{
.formatVersion = 3;
DisplayStrings = (
"\r-Hel/l.6.more.acc o F/r.4 iend/s.4 -\rRei/n.7.acc a Varia/b.4.acc le\rIs tr/u.005.acc ly a/m.4 azing/exclam.7 \rb/y.4  Sp/r.7 ovie/r.4 o\r",
"/q.2"
);
axes = (
{
name = Weight;
tag = wght;
},
{
name = "Optical Size";
tag = opsz;
},
{
name = Accolades;
tag = ZZZZ;
}
);
classes = (
{
code = "A.alt B.7 D.7 E.7 F.7 H.alt K.alt M.7 N.alt P.7 R.7.001 S.2 T.7 U.alt";
name = capsinit;
},
{
code = "A B D E F H K M N P R S T U";
name = decapsinit;
},
{
code = "a.7 b.44 e.8 g.77 h.44 i.7 j.7 k.7 m.7 n.7 o.77 q.2 r.7 s.7 t.7 u.005.7 v.7.001 x.002332 z.7 ampersand.77 exclam.7";
name = rulote;
},
{
code = "a b e g h i j k m n o q r s t u v x z ampersand exclam";
name = derulote;
},
{
code = "a.5 d.5 l.5 m.5 n.5 s.4 u.5 z.baja";
name = bajan;
},
{
code = "a d l m n s u z";
name = debajan;
},
{
code = "a.7.b b.4.acc e.8.acc g.77.acc h.44.acc i.7.acc j.7.acc k.7.acc m.7.acc n.7.acc o.77.acc s.7.acc t.7.acc u.005.acc v.7.acc w.7 z.7.acc";
name = rulotefat;
},
{
code = "a b e g h i j k m n o s t u v w z";
name = derulotefat;
},
{
code = "a.4 c.4 d.4 e.4 f.7 h.4 j.4 l.4 m.4 n.4 p.4 r.4 u.4 v.4 y.44 z.4";
name = encierran;
},
{
code = "a c d e f h j l m n p r u v y z";
name = deencierran;
},
{
code = "b.6 d.6 h.6 k.6 l.6 u.005 y.4";
name = encierranup;
},
{
code = "b d h k l u y";
name = deencierranup;
},
{
code = "a.7.more d.6.more g.7 h.6.more l.6.more m.7.more n.7.more o.7.001 p.4.more r.4.more t.7.more v.7.more y.1.7.more quotesingle.alt";
name = more;
},
{
code = "a d g h l m n o p r t v y quotesingle";
name = demore;
},
{
code = "a.8 g.7777 h.44 k.44 o.7 t.7.4 u.4.2 x.7 y.7";
name = otrorulote;
},
{
code = "a g h k o t u x y";
name = deotrorulote;
},
{
code = "a.9 d.9 e.999 h.9 i.9 k.9 l.9 m.9 n.9 r.sube t.9 u.9 v.sube w.sube y.1.sube";
name = gota;
},
{
code = "a d e h i k l m n r t u v w y";
name = degota;
},
{

glyphs = (
{
color = (255, 153, 153, 255);
glyphname = a;
layers = (
{
anchors = (
{
name = bottom;
position = "{217, -77}";
},
{
name = top;
position = "{233, 577}";
}
);
guides = (
{
position = "{0, -77}";
},
{
position = "{0, 294}";
}
);
layerId = "4C496422-9EE2-4715-A1C6-14E7C06350A7";
shapes = (
{
closed = 1;
nodes = (
(325,312,l),
(233,254,o),
(35,225,o),
(35,89,cs),
(35,22,o),
(88,-9,o),
(148,-9,cs),
(246,-9,o),
(293,61,o),
(321,160,c),
(325,160,l),
(323,137,o),
(322,124,o),
(322,101,cs),
(322,26,o),
(352,-9,o),
(405,-9,cs),
(447,-9,o),
(468,12,o),
(479,35,c),
(473,45,l),
(464,27,o),
(454,18,o),
(436,18,cs),
(400,18,o),
(395,52,o),
(395,106,cs),
(395,335,ls),
(395,421,o),
(356,500,o),
(238,500,cs),
(124,500,o),
(57,425,o),
(57,356,cs),
(57,326,o),
(69,306,o),
(98,306,cs),
(129,306,o),
(145,330,o),
(145,359,cs),
(145,386,o),
(131,411,o),
(119,422,c),
(140,463,o),
(177,487,o),
(227,487,cs),
(310,487,o),
(325,443,o),
(325,371,cs)
);
},
{
closed = 1;
nodes = (
(325,278,ls),
(325,190,o),
(289,26,o),
(179,26,cs),
(136,26,o),
(106,58,o),
(106,105,cs),
(106,189,o),
(207,239,o),
(282,274,cs),
(298,281,o),
(313,288,o),
(325,294,c)
);
}
);
width = 478;
},
{
anchors = (
{
name = bottom;
position = "{272, -77}";
},
{
name = top;
position = "{271, 577}";
}
);
guides = (
{
position = "{0, -77}";
}
);
layerId = "90062726-3AC9-4659-AA20-F783A3D8E853";
shapes = (
{
closed = 1;
nodes = (
(320,305,l),
(211,239,o),
(20,222,o),
(20,96,cs),
(20,35,o),
(74,-9,o),
(150,-9,cs),
(244,-9,o),
(293,51,o),
(315,149,c),
(324,149,l),
(323,137,o),
(322,125,o),
(322,115,cs),
(322,23,o),
(367,-9,o),
(440,-9,cs),
(483,-9,o),
(529,5,o),
(547,43,c),
(542,52,l),
(537,41,o),
(533,37,o),
(527,37,cs),
(514,37,o),
(510,54,o),
(510,110,cs),
(510,268,ls),
(510,396,o),
(469,500,o),
(284,500,cs),
(119,500,o),
(51,415,o),
(51,351,cs),
(51,299,o),
(79,266,o),
(127,266,cs),
(181,266,o),
(207,310,o),
(207,353,cs),
(207,388,o),
(191,422,o),
(158,437,c),
(169,461,o),
(204,485,o),
(243,485,cs),
(302,485,o),
(320,430,o),
(320,385,cs)
);
},
{
closed = 1;
nodes = (
(320,285,ls),
(320,147,o),
(281,52,o),
(241,52,cs),
(217,52,o),
(203,77,o),
(203,120,cs),
(203,185,o),
(241,234,o),
(286,269,cs),
(297,277,o),
(309,284,o),
(320,291,c)
);
}
);
width = 564;
},
{
anchors = (
{
name = top;
position = "{230, 577}";
},
{
name = bottom;
position = "{214, -77}";
}
);
guides = (
{
position = "{0, -77}";
}
);
hints = (
{
horizontal = 1;
place = (-6,43);
type = Stem;
},
{
horizontal = 1;
place = (250,217);
type = Stem;
},
{
place = (-121,192);
type = Stem;
},
{
place = (-88,208);
type = Stem;
},
{
place = (195,195);
type = Stem;
},
{
place = (195,248);
type = Stem;
}
);
layerId = "C0DC133F-6416-4A48-B531-E298505A9AE1";
shapes = (
{
closed = 1;
nodes = (
(322,301,l),
(228,240,o),
(32,223,o),
(32,89,cs),
(32,22,o),
(85,-9,o),
(145,-9,cs),
(252,-9,o),
(299,69,o),
(319,168,c),
(321,168,l),
(320,142,o),
(320,127,o),
(319,101,cs),
(317,26,o),
(349,-9,o),
(402,-9,cs),
(444,-9,o),
(465,12,o),
(476,35,c),
(472,38,l),
(463,20,o),
(451,11,o),
(433,11,cs),
(397,11,o),
(392,48,o),
(392,106,cs),
(392,335,ls),
(392,428,o),
(353,500,o),
(235,500,cs),
(121,500,o),
(54,431,o),
(54,356,cs),
(54,326,o),
(66,306,o),
(95,306,cs),
(126,306,o),
(142,330,o),
(142,359,cs),
(142,386,o),
(128,411,o),
(116,422,c),
(137,469,o),
(174,495,o),
(224,495,cs),
(307,495,o),
(322,435,o),
(322,371,cs)
);
},
{
closed = 1;
nodes = (
(322,252,ls),
(322,160,o),
(296,28,o),
(184,28,cs),
(123,28,o),
(103,74,o),
(103,109,cs),
(103,188,o),
(195,234,o),
(276,271,cs),
(292,278,o),
(308,285,o),
(322,292,c)
);
}
);
width = 472;
},
{
anchors = (
{
name = top;
position = "{267, 577}";
},
{
name = bottom;
position = "{268, -77}";
}
);
guides = (
{
position = "{0, -77}";
}
);
hints = (
{
horizontal = 1;
place = (-6,43);
type = Stem;
},
{
horizontal = 1;
place = (250,217);
type = Stem;
},
{
place = (-58,192);
type = Stem;
},
{
place = (-25,208);
type = Stem;
},
{
place = (258,195);
type = Stem;
},
{
place = (258,248);
type = Stem;
}
);
layerId = "7291A756-B4B9-4A9F-BCDD-45C2F86033E0";
shapes = (
{
closed = 1;
nodes = (
(316,301,l),
(206,236,o),
(16,221,o),
(16,96,cs),
(16,35,o),
(70,-9,o),
(146,-9,cs),
(240,-9,o),
(289,51,o),
(311,149,c),
(313,149,l),
(313,135,o),
(314,122,o),
(315,110,cs),
(325,34,o),
(366,-9,o),
(436,-9,cs),
(479,-9,o),
(525,5,o),
(543,43,c),
(540,46,l),
(535,35,o),
(529,31,o),
(523,31,cs),
(510,31,o),
(506,49,o),
(506,110,cs),
(506,268,ls),
(506,428,o),
(436,500,o),
(280,500,cs),
(115,500,o),
(47,418,o),
(47,351,cs),
(47,299,o),
(75,266,o),
(123,266,cs),
(177,266,o),
(203,310,o),
(203,353,cs),
(203,388,o),
(187,422,o),
(154,437,c),
(165,464,o),
(200,492,o),
(239,492,cs),
(298,492,o),
(316,436,o),
(316,388,cs)
);
},
{
closed = 1;
nodes = (
(316,241,ls),
(316,123,o),
(278,49,o),
(238,49,cs),
(209,49,o),
(199,84,o),
(199,120,cs),
(199,185,o),
(235,234,o),
(278,269,cs),
(290,279,o),
(303,288,o),
(316,295,c)
);
}
);
width = 557;
},
{
anchors = (
{
name = bottom;
position = "{217, -77}";
},
{
name = top;
position = "{233, 577}";
}
);
guides = (
{
position = "{0, -77}";
},
{
position = "{0, 294}";
}
);
layerId = "EC8E161F-9AB2-4247-A7F5-C9BB1661FF9D";
shapes = (
{
closed = 1;
nodes = (
(325,312,l),
(233,254,o),
(35,225,o),
(35,89,cs),
(35,22,o),
(88,-9,o),
(148,-9,cs),
(246,-9,o),
(293,61,o),
(321,160,c),
(325,160,l),
(323,137,o),
(322,124,o),
(322,101,cs),
(322,26,o),
(352,-9,o),
(405,-9,cs),
(447,-9,o),
(468,12,o),
(479,35,c),
(473,45,l),
(464,27,o),
(454,18,o),
(436,18,cs),
(400,18,o),
(395,52,o),
(395,106,cs),
(395,335,ls),
(395,421,o),
(356,500,o),
(238,500,cs),
(124,500,o),
(57,425,o),
(57,356,cs),
(57,326,o),
(69,306,o),
(98,306,cs),
(129,306,o),
(145,330,o),
(145,359,cs),
(145,386,o),
(131,411,o),
(119,422,c),
(140,463,o),
(177,487,o),
(227,487,cs),
(310,487,o),
(325,443,o),
(325,371,cs)
);
},
{
closed = 1;
nodes = (
(325,278,ls),
(325,190,o),
(289,26,o),
(179,26,cs),
(136,26,o),
(106,58,o),
(106,105,cs),
(106,186,o),
(201,236,o),
(275,271,cs),
(294,279,o),
(311,287,o),
(325,294,c)
);
}
);
width = 478;
},
{
anchors = (
{
name = bottom;
position = "{272, -77}";
},
{
name = top;
position = "{271, 577}";
}
);
guides = (
{
position = "{0, -77}";
}
);
layerId = "1188AF94-4382-4C0E-9F0C-F5AE7B488C11";
shapes = (
{
closed = 1;
nodes = (
(320,305,l),
(211,239,o),
(20,222,o),
(20,96,cs),
(20,35,o),
(74,-9,o),
(150,-9,cs),
(244,-9,o),
(293,51,o),
(315,149,c),
(324,149,l),
(323,137,o),
(322,125,o),
(322,115,cs),
(322,23,o),
(367,-9,o),
(440,-9,cs),
(483,-9,o),
(529,5,o),
(547,43,c),
(542,52,l),
(537,41,o),
(533,37,o),
(527,37,cs),
(514,37,o),
(510,54,o),
(510,110,cs),
(510,268,ls),
(510,396,o),
(469,500,o),
(284,500,cs),
(119,500,o),
(51,415,o),
(51,351,cs),
(51,299,o),
(79,266,o),
(127,266,cs),
(181,266,o),
(207,310,o),
(207,353,cs),
(207,388,o),
(191,422,o),
(158,437,c),
(169,461,o),
(204,485,o),
(243,485,cs),
(302,485,o),
(320,430,o),
(320,385,cs)
);
},
{
closed = 1;
nodes = (
(320,285,ls),
(320,147,o),
(281,52,o),
(241,52,cs),
(217,52,o),
(203,77,o),
(203,120,cs),
(203,182,o),
(238,231,o),
(282,265,cs),
(294,275,o),
(307,283,o),
(320,291,c)
);
}
);
width = 564;
},
{
anchors = (
{
name = top;
position = "{230, 577}";
},
{
name = bottom;
position = "{214, -77}";
}
);
guides = (
{
position = "{0, -77}";
}
);
hints = (
{
horizontal = 1;
place = (-6,43);
type = Stem;
},
{
horizontal = 1;
place = (250,217);
type = Stem;
},
{
place = (-121,192);
type = Stem;
},
{
place = (-88,208);
type = Stem;
},
{
place = (195,195);
type = Stem;
},
{
place = (195,248);
type = Stem;
}
);
layerId = "DFD7F247-A6A1-4633-91D9-01055A0B6A1B";
shapes = (
{
closed = 1;
nodes = (
(322,301,l),
(228,240,o),
(32,223,o),
(32,89,cs),
(32,22,o),
(85,-9,o),
(145,-9,cs),
(252,-9,o),
(299,69,o),
(319,168,c),
(321,168,l),
(320,142,o),
(320,127,o),
(319,101,cs),
(317,26,o),
(349,-9,o),
(402,-9,cs),
(444,-9,o),
(465,12,o),
(476,35,c),
(472,38,l),
(463,20,o),
(451,11,o),
(433,11,cs),
(397,11,o),
(392,48,o),
(392,106,cs),
(392,335,ls),
(392,428,o),
(353,500,o),
(235,500,cs),
(121,500,o),
(54,431,o),
(54,356,cs),
(54,326,o),
(66,306,o),
(95,306,cs),
(126,306,o),
(142,330,o),
(142,359,cs),
(142,386,o),
(128,411,o),
(116,422,c),
(137,469,o),
(174,495,o),
(224,495,cs),
(307,495,o),
(322,435,o),
(322,371,cs)
);
},
{
closed = 1;
nodes = (
(322,252,ls),
(322,160,o),
(296,28,o),
(184,28,cs),
(123,28,o),
(103,74,o),
(103,109,cs),
(103,186,o),
(189,231,o),
(268,267,cs),
(287,276,o),
(305,284,o),
(322,292,c)
);
}
);
width = 472;
},
{
anchors = (
{
name = top;
position = "{267, 577}";
},
{
name = bottom;
position = "{268, -77}";
}
);
guides = (
{
position = "{0, -77}";
}
);
hints = (
{
horizontal = 1;
place = (-6,43);
type = Stem;
},
{
horizontal = 1;
place = (250,217);
type = Stem;
},
{
place = (-67,192);
type = Stem;
},
{
place = (-34,208);
type = Stem;
},
{
place = (249,195);
type = Stem;
},
{
place = (249,248);
type = Stem;
}
);
layerId = "7DF38E59-3B01-4CE0-9463-5B164C18123B";
shapes = (
{
closed = 1;
nodes = (
(316,301,l),
(206,236,o),
(16,221,o),
(16,96,cs),
(16,35,o),
(70,-9,o),
(146,-9,cs),
(240,-9,o),
(289,51,o),
(311,149,c),
(315,149,l),
(315,137,o),
(316,125,o),
(317,114,cs),
(325,36,o),
(365,-9,o),
(436,-9,cs),
(479,-9,o),
(525,5,o),
(543,43,c),
(540,46,l),
(535,35,o),
(529,31,o),
(523,31,cs),
(510,31,o),
(506,49,o),
(506,110,cs),
(506,268,ls),
(506,428,o),
(436,500,o),
(280,500,cs),
(115,500,o),
(47,418,o),
(47,351,cs),
(47,299,o),
(75,266,o),
(123,266,cs),
(177,266,o),
(203,310,o),
(203,353,cs),
(203,388,o),
(187,422,o),
(154,437,c),
(165,464,o),
(200,492,o),
(239,492,cs),
(298,492,o),
(316,436,o),
(316,388,cs)
);
},
{
closed = 1;
nodes = (
(316,241,ls),
(316,123,o),
(278,49,o),
(238,49,cs),
(209,49,o),
(199,84,o),
(199,120,cs),
(199,184,o),
(235,234,o),
(278,269,cs),
(290,279,o),
(303,287,o),
(316,295,c)
);
}
);
width = 557;
}
);
leftKerningGroup = _kern1;
rightKerningGroup = _kern1;
unicode = 97;
},
{
color = (153, 255, 154, 255);
glyphname = a.5;
layers = (
{
layerId = "4C496422-9EE2-4715-A1C6-14E7C06350A7";
shapes = (
{
closed = 1;
nodes = (
(325,167,l),
(325,69,ls),
(325,-108,o),
(418,-230,o),
(578,-230,cs),
(654,-230,o),
(730,-200,o),
(761,-139,c),
(754,-132,l),
(723,-182,o),
(656,-215,o),
(592,-215,cs),
(483,-215,o),
(395,-141,o),
(395,31,cs),
(395,335,ls),
(395,421,o),
(356,500,o),
(238,500,cs),
(124,500,o),
(57,425,o),
(57,356,cs),
(57,326,o),
(69,306,o),
(98,306,cs),
(129,306,o),
(145,330,o),
(145,359,cs),
(145,386,o),
(131,411,o),
(119,422,c),
(140,463,o),
(177,487,o),
(227,487,cs),
(310,487,o),
(325,430,o),
(325,371,cs),
(325,306,l),
(232,243,o),
(35,224,o),
(35,89,cs),
(35,25,o),
(85,-9,o),
(143,-9,cs),
(255,-9,o),
(306,72,o),
(325,171,c)
);
},
{
closed = 1;
nodes = (
(325,278,ls),
(325,186,o),
(299,28,o),
(187,28,cs),
(126,28,o),
(106,74,o),
(106,109,cs),
(106,204,o),
(237,245,o),
(325,288,c)
);
}
);
width = 474;
},
{
layerId = "90062726-3AC9-4659-AA20-F783A3D8E853";
shapes = (
{
closed = 1;
nodes = (
(334,163,l),
(332,129,ls),
(321,-51,o),
(372,-239,o),
(686,-239,cs),
(774,-239,o),
(871,-208,o),
(898,-139,c),
(891,-132,l),
(868,-190,o),
(792,-220,o),
(727,-220,cs),
(619,-220,o),
(513,-145,o),
(513,31,cs),
(513,268,l),
(512,400,o),
(473,500,o),
(287,500,cs),
(130,500,o),
(59,415,o),
(59,351,cs),
(59,299,o),
(87,266,o),
(135,266,cs),
(189,266,o),
(215,310,o),
(215,353,cs),
(215,388,o),
(199,422,o),
(166,437,c),
(177,461,o),
(211,485,o),
(253,485,cs),
(309,485,o),
(328,430,o),
(328,385,cs),
(328,304,l),
(217,239,o),
(24,221,o),
(24,96,cs),
(24,15,o),
(102,-7,o),
(142,-7,cs),
(254,-7,o),
(306,55,o),
(327,163,c)
);
},
{
closed = 1;
nodes = (
(328,285,ls),
(328,145,o),
(286,49,o),
(241,49,cs),
(212,49,o),
(202,84,o),
(202,120,cs),
(202,200,o),
(265,257,o),
(328,290,c)
);
}
);
width = 572;
},
{
layerId = "C0DC133F-6416-4A48-B531-E298505A9AE1";
leftMetricsKey = a;
shapes = (
{
closed = 1;
nodes = (
(322,178,l),
(322,69,ls),
(322,-108,o),
(415,-230,o),
(575,-230,cs),
(651,-230,o),
(731,-202,o),
(758,-139,c),
(755,-136,l),
(732,-193,o),
(657,-223,o),
(593,-223,cs),
(484,-223,o),
(392,-144,o),
(392,31,cs),
(392,335,ls),
(392,428,o),
(353,500,o),
(235,500,cs),
(121,500,o),
(54,431,o),
(54,356,cs),
(54,326,o),
(66,306,o),
(95,306,cs),
(126,306,o),
(142,330,o),
(142,359,cs),
(142,386,o),
(128,411,o),
(116,422,c),
(137,469,o),
(174,495,o),
(224,495,cs),
(307,495,o),
(322,435,o),
(322,371,cs),
(322,301,l),
(229,238,o),
(32,224,o),
(32,89,cs),
(32,24,o),
(82,-9,o),
(141,-9,cs),
(253,-9,o),
(300,73,o),
(320,178,c)
);
},
{
closed = 1;
nodes = (
(322,253,ls),
(322,161,o),
(296,28,o),
(184,28,cs),
(123,28,o),
(103,74,o),
(103,109,cs),
(103,204,o),
(234,250,o),
(322,293,c)
);
}
);
width = 468;
},
{
layerId = "7291A756-B4B9-4A9F-BCDD-45C2F86033E0";
shapes = (
{
closed = 1;
nodes = (
(318,163,l),
(318,129,ls),
(318,-52,o),
(360,-239,o),
(674,-239,cs),
(762,-239,o),
(857,-208,o),
(886,-139,c),
(883,-136,l),
(860,-194,o),
(784,-224,o),
(719,-224,cs),
(611,-224,o),
(501,-145,o),
(501,31,cs),
(501,268,ls),
(501,403,o),
(464,500,o),
(278,500,cs),
(113,500,o),
(47,418,o),
(47,351,cs),
(47,299,o),
(75,266,o),
(123,266,cs),
(177,266,o),
(203,310,o),
(203,353,cs),
(203,388,o),
(187,422,o),
(154,437,c),
(165,464,o),
(200,492,o),
(239,492,cs),
(298,492,o),
(316,436,o),
(316,388,cs),
(316,301,l),
(206,236,o),
(16,221,o),
(16,96,cs),
(16,19,o),
(90,-9,o),
(146,-9,cs),
(245,-9,o),
(294,57,o),
(314,163,c)
);
},
{
closed = 1;
nodes = (
(316,256,ls),
(316,116,o),
(278,49,o),
(238,49,cs),
(209,49,o),
(199,84,o),
(199,120,cs),
(199,203,o),
(257,261,o),
(316,295,c)
);
}
);
width = 557;
},
{
layerId = "EC8E161F-9AB2-4247-A7F5-C9BB1661FF9D";
shapes = (
{
closed = 1;
nodes = (
(325,167,l),
(325,69,ls),
(325,-108,o),
(418,-230,o),
(578,-230,cs),
(654,-230,o),
(730,-200,o),
(761,-139,c),
(754,-132,l),
(723,-182,o),
(656,-215,o),
(592,-215,cs),
(483,-215,o),
(395,-141,o),
(395,31,cs),
(395,335,ls),
(395,421,o),
(356,500,o),
(238,500,cs),
(124,500,o),
(57,425,o),
(57,356,cs),
(57,326,o),
(69,306,o),
(98,306,cs),
(129,306,o),
(145,330,o),
(145,359,cs),
(145,386,o),
(131,411,o),
(119,422,c),
(140,463,o),
(177,487,o),
(227,487,cs),
(310,487,o),
(325,430,o),
(325,371,cs),
(325,306,l),
(232,243,o),
(35,224,o),
(35,89,cs),
(35,25,o),
(85,-9,o),
(143,-9,cs),
(255,-9,o),
(306,72,o),
(325,171,c)
);
},
{
closed = 1;
nodes = (
(325,278,ls),
(325,186,o),
(299,28,o),
(187,28,cs),
(126,28,o),
(106,74,o),
(106,109,cs),
(106,204,o),
(237,245,o),
(325,288,c)
);
}
);
width = 474;
},
{
layerId = "1188AF94-4382-4C0E-9F0C-F5AE7B488C11";
shapes = (
{
closed = 1;
nodes = (
(334,163,l),
(332,129,ls),
(321,-51,o),
(372,-239,o),
(686,-239,cs),
(774,-239,o),
(871,-208,o),
(898,-139,c),
(891,-132,l),
(868,-190,o),
(792,-220,o),
(727,-220,cs),
(619,-220,o),
(513,-145,o),
(513,31,cs),
(513,268,l),
(512,400,o),
(473,500,o),
(287,500,cs),
(130,500,o),
(59,415,o),
(59,351,cs),
(59,299,o),
(87,266,o),
(135,266,cs),
(189,266,o),
(215,310,o),
(215,353,cs),
(215,388,o),
(199,422,o),
(166,437,c),
(177,461,o),
(211,485,o),
(253,485,cs),
(309,485,o),
(328,430,o),
(328,385,cs),
(328,304,l),
(217,239,o),
(24,221,o),
(24,96,cs),
(24,15,o),
(102,-7,o),
(142,-7,cs),
(254,-7,o),
(306,55,o),
(327,163,c)
);
},
{
closed = 1;
nodes = (
(328,285,ls),
(328,145,o),
(286,49,o),
(241,49,cs),
(212,49,o),
(202,84,o),
(202,120,cs),
(202,200,o),
(265,257,o),
(328,290,c)
);
}
);
width = 572;
},
{
layerId = "DFD7F247-A6A1-4633-91D9-01055A0B6A1B";
leftMetricsKey = a;
shapes = (
{
closed = 1;
nodes = (
(322,178,l),
(322,69,ls),
(322,-108,o),
(415,-230,o),
(575,-230,cs),
(651,-230,o),
(731,-202,o),
(758,-139,c),
(755,-136,l),
(732,-193,o),
(657,-223,o),
(593,-223,cs),
(484,-223,o),
(392,-144,o),
(392,31,cs),
(392,335,ls),
(392,428,o),
(353,500,o),
(235,500,cs),
(121,500,o),
(54,431,o),
(54,356,cs),
(54,326,o),
(66,306,o),
(95,306,cs),
(126,306,o),
(142,330,o),
(142,359,cs),
(142,386,o),
(128,411,o),
(116,422,c),
(137,469,o),
(174,495,o),
(224,495,cs),
(307,495,o),
(322,435,o),
(322,371,cs),
(322,301,l),
(229,238,o),
(32,224,o),
(32,89,cs),
(32,24,o),
(82,-9,o),
(141,-9,cs),
(253,-9,o),
(300,73,o),
(320,178,c)
);
},
{
closed = 1;
nodes = (
(322,253,ls),
(322,161,o),
(296,28,o),
(184,28,cs),
(123,28,o),
(103,74,o),
(103,109,cs),
(103,204,o),
(234,250,o),
(322,293,c)
);
}
);
width = 468;
},
{
background = {
shapes = (
{
closed = 0;
nodes = (
(316,301,l),
(206,236,o),
(16,221,o),
(16,96,cs),
(16,35,o),
(70,-9,o),
(146,-9,cs),
(240,-9,o),
(289,51,o),
(311,149,c)
);
},
{
closed = 1;
nodes = (
(316,241,ls),
(316,123,o),
(278,49,o),
(238,49,cs),
(209,49,o),
(199,84,o),
(199,120,cs),
(199,203,o),
(258,261,o),
(316,295,c)
);
}
);
};
layerId = "7DF38E59-3B01-4CE0-9463-5B164C18123B";
shapes = (
{
closed = 1;
nodes = (
(318,163,l),
(318,129,ls),
(318,-52,o),
(360,-239,o),
(674,-239,cs),
(762,-239,o),
(857,-208,o),
(886,-139,c),
(883,-136,l),
(860,-194,o),
(784,-224,o),
(719,-224,cs),
(611,-224,o),
(501,-145,o),
(501,31,cs),
(501,268,ls),
(501,403,o),
(464,500,o),
(278,500,cs),
(113,500,o),
(47,418,o),
(47,351,cs),
(47,299,o),
(75,266,o),
(123,266,cs),
(177,266,o),
(203,310,o),
(203,353,cs),
(203,388,o),
(187,422,o),
(154,437,c),
(165,464,o),
(200,492,o),
(239,492,cs),
(298,492,o),
(316,436,o),
(316,388,cs),
(316,301,l),
(206,236,o),
(16,221,o),
(16,96,cs),
(16,19,o),
(90,-9,o),
(146,-9,cs),
(245,-9,o),
(294,57,o),
(314,163,c)
);
},
{
closed = 1;
nodes = (
(316,256,ls),
(316,116,o),
(278,49,o),
(238,49,cs),
(209,49,o),
(199,84,o),
(199,120,cs),
(199,203,o),
(257,261,o),
(316,295,c)
);
}
);
width = 557;
}
);
leftKerningGroup = _kern1;
rightKerningGroup = _kern1;
},
{
color = (153, 255, 154, 255);
glyphname = a.7;
layers = (
{
guides = (
{
angle = 90;
position = "{1019, 0}";
}
);
layerId = "4C496422-9EE2-4715-A1C6-14E7C06350A7";
shapes = (
{
closed = 1;
nodes = (
(146,386,o),
(132,411,o),
(120,422,c),
(141,463,o),
(178,487,o),
(228,487,cs),
(311,487,o),
(326,431,o),
(326,371,cs),
(326,305,l),
(244,249,o),
(36,221,o),
(36,95,cs),
(36,19,o),
(94,-9,o),
(156,-9,cs),
(260,-9,o),
(303,67,o),
(324,168,c),
(325,160,l),
(323,148,l),
(324,-177,o),
(573,-393,o),
(947,-393,cs),
(1257,-393,o),
(1592,-153,o),
(1592,201,cs),
(1592,526,o),
(1325,791,o),
(1000,791,cs),
(754,791,o),
(537,647,o),
(336,453,c),
(345,447,l),
(548,638,o),
(756,779,o),
(1000,779,cs),
(1319,779,o),
(1580,520,o),
(1580,201,cs),
(1580,-142,o),
(1255,-377,o),
(966,-377,cs),
(653,-377,o),
(396,-194,o),
(396,144,cs),
(396,335,ls),
(396,437,o),
(343,500,o),
(239,500,cs),
(125,500,o),
(58,428,o),
(58,356,cs),
(58,326,o),
(70,306,o),
(99,306,cs),
(130,306,o),
(146,330,o),
(146,359,cs)
);
},
{
closed = 1;
nodes = (
(51,137,l),
(-280,-227,o),
(-625,-610,o),
(-1108,-610,cs),
(-1581,-610,o),
(-1965,-227,o),
(-1965,247,cs),
(-1965,721,o),
(-1581,1106,o),
(-1108,1106,cs),
(-897,1106,o),
(-705,1029,o),
(-555,901,c),
(-548,911,l),
(-699,1039,o),
(-895,1118,o),
(-1108,1118,cs),
(-1588,1118,o),
(-1977,727,o),
(-1977,247,cs),
(-1977,-233,o),
(-1588,-622,o),
(-1108,-622,cs),
(-628,-622,o),
(-282,-246,o),
(47,117,c)
);
},
{
closed = 1;
nodes = (
(326,274,ls),
(326,182,o),
(294,28,o),
(188,28,cs),
(127,28,o),
(107,74,o),
(107,109,cs),
(107,204,o),
(238,245,o),
(326,288,c)
);
}
);
width = 468;
},
{
guides = (
{
angle = 90;
position = "{1019, 0}";
}
);
layerId = "90062726-3AC9-4659-AA20-F783A3D8E853";
shapes = (
{
closed = 1;
nodes = (
(215,388,o),
(199,422,o),
(166,437,c),
(177,461,o),
(211,485,o),
(253,485,cs),
(309,485,o),
(328,431,o),
(328,385,cs),
(328,301,l),
(219,238,o),
(27,214,o),
(27,101,cs),
(27,32,o),
(91,-7,o),
(149,-7,cs),
(253,-7,o),
(305,57,o),
(326,163,c),
(335,163,l),
(333,151,l),
(333,-213,o),
(635,-386,o),
(1019,-386,cs),
(1344,-386,o),
(1609,-124,o),
(1609,201,cs),
(1609,526,o),
(1344,791,o),
(1019,791,cs),
(782,791,o),
(572,659,o),
(378,476,c),
(393,472,l),
(588,651,o),
(785,779,o),
(1019,779,cs),
(1338,779,o),
(1597,520,o),
(1597,201,cs),
(1597,-117,o),
(1338,-374,o),
(1019,-374,cs),
(747,-374,o),
(513,-269,o),
(513,134,cs),
(513,268,ls),
(513,429,o),
(451,500,o),
(287,500,cs),
(130,500,o),
(59,418,o),
(59,351,cs),
(59,299,o),
(87,266,o),
(135,266,cs),
(189,266,o),
(215,310,o),
(215,353,cs)
);
},
{
closed = 1;
nodes = (
(35,114,l),
(-290,-243,o),
(-631,-610,o),
(-1104,-610,cs),
(-1577,-610,o),
(-1961,-227,o),
(-1961,247,cs),
(-1961,721,o),
(-1577,1106,o),
(-1104,1106,cs),
(-893,1106,o),
(-701,1029,o),
(-551,900,c),
(-544,911,l),
(-695,1039,o),
(-891,1118,o),
(-1104,1118,cs),
(-1584,1118,o),
(-1973,727,o),
(-1973,247,cs),
(-1973,-233,o),
(-1584,-622,o),
(-1104,-622,cs),
(-632,-622,o),
(-289,-257,o),
(35,101,c)
);
},
{
closed = 1;
nodes = (
(328,280,ls),
(328,140,o),
(286,49,o),
(241,49,cs),
(212,49,o),
(202,84,o),
(202,120,cs),
(202,200,o),
(265,254,o),
(328,287,c)
);
}
);
width = 570;
},
{
guides = (
{
angle = 90;
position = "{994, 0}";
}
);
layerId = "C0DC133F-6416-4A48-B531-E298505A9AE1";
shapes = (
{
closed = 1;
nodes = (
(143,386,o),
(129,411,o),
(117,422,c),
(138,468,o),
(175,495,o),
(225,495,cs),
(308,495,o),
(323,434,o),
(323,371,cs),
(323,305,l),
(236,246,o),
(33,224,o),
(33,89,cs),
(33,19,o),
(91,-9,o),
(134,-9,cs),
(257,-9,o),
(300,71,o),
(321,178,c),
(320,166,l),
(320,155,l),
(321,-177,o),
(570,-393,o),
(944,-393,cs),
(1254,-393,o),
(1585,-153,o),
(1585,201,cs),
(1585,526,o),
(1322,787,o),
(997,787,cs),
(749,787,o),
(541,645,o),
(337,450,c),
(340,447,l),
(543,640,o),
(753,783,o),
(997,783,cs),
(1318,783,o),
(1581,522,o),
(1581,201,cs),
(1581,-146,o),
(1254,-385,o),
(963,-385,c),
(650,-384,o),
(393,-199,o),
(393,144,cs),
(393,335,ls),
(393,436,o),
(340,500,o),
(236,500,cs),
(122,500,o),
(55,428,o),
(55,356,cs),
(55,326,o),
(67,306,o),
(96,306,cs),
(127,306,o),
(143,330,o),
(143,359,cs)
);
},
{
closed = 1;
nodes = (
(46,131,l),
(-283,-235,o),
(-630,-618,o),
(-1111,-618,cs),
(-1588,-618,o),
(-1976,-229,o),
(-1976,247,cs),
(-1976,723,o),
(-1588,1110,o),
(-1111,1110,cs),
(-900,1110,o),
(-706,1034,o),
(-556,907,c),
(-551,911,l),
(-702,1039,o),
(-898,1114,o),
(-1111,1114,cs),
(-1591,1114,o),
(-1980,727,o),
(-1980,247,cs),
(-1980,-233,o),
(-1591,-622,o),
(-1111,-622,cs),
(-631,-622,o),
(-285,-244,o),
(44,119,c)
);
},
{
closed = 1;
nodes = (
(323,259,ls),
(323,167,o),
(297,28,o),
(185,28,cs),
(124,28,o),
(104,74,o),
(104,109,cs),
(104,204,o),
(235,254,o),
(323,297,c)
);
}
);
width = 462;
},
{
guides = (
{
angle = 90;
position = "{1016, 0}";
}
);
layerId = "7291A756-B4B9-4A9F-BCDD-45C2F86033E0";
shapes = (
{
closed = 1;
nodes = (
(212,388,o),
(196,422,o),
(163,437,c),
(174,465,o),
(207,492,o),
(248,492,cs),
(306,492,o),
(325,434,o),
(325,385,cs),
(325,301,l),
(212,236,o),
(16,219,o),
(16,95,cs),
(16,23,o),
(81,-9,o),
(146,-9,cs),
(250,-9,o),
(302,56,o),
(323,163,c),
(328,163,l),
(327,151,l),
(327,-213,o),
(632,-386,o),
(1016,-386,cs),
(1341,-386,o),
(1602,-124,o),
(1602,201,cs),
(1602,526,o),
(1341,787,o),
(1016,787,cs),
(778,787,o),
(573,658,o),
(377,475,c),
(386,472,l),
(581,653,o),
(782,783,o),
(1016,783,cs),
(1337,783,o),
(1598,522,o),
(1598,201,cs),
(1598,-120,o),
(1337,-382,o),
(1016,-382,cs),
(744,-382,o),
(510,-273,o),
(510,134,cs),
(510,268,ls),
(510,428,o),
(448,500,o),
(284,500,cs),
(127,500,o),
(56,418,o),
(56,351,cs),
(56,299,o),
(84,266,o),
(132,266,cs),
(186,266,o),
(212,310,o),
(212,353,cs)
);
},
{
closed = 1;
nodes = (
(26,106,l),
(-297,-253,o),
(-637,-618,o),
(-1107,-618,cs),
(-1583,-618,o),
(-1972,-230,o),
(-1972,247,cs),
(-1972,723,o),
(-1583,1110,o),
(-1107,1110,cs),
(-896,1110,o),
(-702,1034,o),
(-552,907,c),
(-547,911,l),
(-698,1038,o),
(-894,1114,o),
(-1107,1114,cs),
(-1587,1114,o),
(-1976,726,o),
(-1976,247,cs),
(-1976,-233,o),
(-1587,-622,o),
(-1107,-622,cs),
(-638,-622,o),
(-296,-260,o),
(28,96,c)
);
},
{
closed = 1;
nodes = (
(325,255,ls),
(325,115,o),
(283,49,o),
(238,49,cs),
(209,49,o),
(199,84,o),
(199,120,cs),
(199,202,o),
(262,260,o),
(325,294,c)
);
}
);
width = 564;
},
{
guides = (
{
angle = 90;
position = "{1019, 0}";
}
);
layerId = "EC8E161F-9AB2-4247-A7F5-C9BB1661FF9D";
shapes = (
{
closed = 1;
nodes = (
(146,386,o),
(132,411,o),
(120,422,c),
(141,463,o),
(178,487,o),
(228,487,cs),
(311,487,o),
(326,431,o),
(326,371,cs),
(326,305,l),
(244,249,o),
(36,221,o),
(36,95,cs),
(36,19,o),
(94,-9,o),
(156,-9,cs),
(260,-9,o),
(303,67,o),
(324,168,c),
(325,160,l),
(323,148,l),
(324,-177,o),
(573,-393,o),
(947,-393,cs),
(1257,-393,o),
(1592,-153,o),
(1592,201,cs),
(1592,526,o),
(1325,791,o),
(1000,791,cs),
(754,791,o),
(537,647,o),
(336,453,c),
(345,447,l),
(548,638,o),
(756,779,o),
(1000,779,cs),
(1319,779,o),
(1580,520,o),
(1580,201,cs),
(1580,-142,o),
(1255,-377,o),
(966,-377,cs),
(653,-377,o),
(396,-194,o),
(396,144,cs),
(396,335,ls),
(396,437,o),
(343,500,o),
(239,500,cs),
(125,500,o),
(58,428,o),
(58,356,cs),
(58,326,o),
(70,306,o),
(99,306,cs),
(130,306,o),
(146,330,o),
(146,359,cs)
);
},
{
closed = 1;
nodes = (
(51,137,l),
(-280,-227,o),
(-625,-610,o),
(-1108,-610,cs),
(-1581,-610,o),
(-1965,-227,o),
(-1965,247,cs),
(-1965,721,o),
(-1581,1106,o),
(-1108,1106,cs),
(-897,1106,o),
(-705,1029,o),
(-555,901,c),
(-548,911,l),
(-699,1039,o),
(-895,1118,o),
(-1108,1118,cs),
(-1588,1118,o),
(-1977,727,o),
(-1977,247,cs),
(-1977,-233,o),
(-1588,-622,o),
(-1108,-622,cs),
(-628,-622,o),
(-282,-246,o),
(47,117,c)
);
},
{
closed = 1;
nodes = (
(326,274,ls),
(326,182,o),
(294,28,o),
(188,28,cs),
(127,28,o),
(107,74,o),
(107,109,cs),
(107,204,o),
(238,245,o),
(326,288,c)
);
}
);
width = 468;
},
{
guides = (
{
angle = 90;
position = "{1019, 0}";
}
);
layerId = "1188AF94-4382-4C0E-9F0C-F5AE7B488C11";
shapes = (
{
closed = 1;
nodes = (
(215,388,o),
(199,422,o),
(166,437,c),
(177,461,o),
(211,485,o),
(253,485,cs),
(309,485,o),
(328,431,o),
(328,385,cs),
(328,301,l),
(219,238,o),
(27,214,o),
(27,101,cs),
(27,32,o),
(91,-7,o),
(149,-7,cs),
(253,-7,o),
(305,57,o),
(326,163,c),
(335,163,l),
(333,151,l),
(333,-213,o),
(635,-386,o),
(1019,-386,cs),
(1344,-386,o),
(1609,-124,o),
(1609,201,cs),
(1609,526,o),
(1344,791,o),
(1019,791,cs),
(782,791,o),
(572,659,o),
(378,476,c),
(393,472,l),
(588,651,o),
(785,779,o),
(1019,779,cs),
(1338,779,o),
(1597,520,o),
(1597,201,cs),
(1597,-117,o),
(1338,-374,o),
(1019,-374,cs),
(747,-374,o),
(513,-269,o),
(513,134,cs),
(513,268,ls),
(513,429,o),
(451,500,o),
(287,500,cs),
(130,500,o),
(59,418,o),
(59,351,cs),
(59,299,o),
(87,266,o),
(135,266,cs),
(189,266,o),
(215,310,o),
(215,353,cs)
);
},
{
closed = 1;
nodes = (
(35,114,l),
(-290,-243,o),
(-631,-610,o),
(-1104,-610,cs),
(-1577,-610,o),
(-1961,-227,o),
(-1961,247,cs),
(-1961,721,o),
(-1577,1106,o),
(-1104,1106,cs),
(-893,1106,o),
(-701,1029,o),
(-551,900,c),
(-544,911,l),
(-695,1039,o),
(-891,1118,o),
(-1104,1118,cs),
(-1584,1118,o),
(-1973,727,o),
(-1973,247,cs),
(-1973,-233,o),
(-1584,-622,o),
(-1104,-622,cs),
(-632,-622,o),
(-289,-257,o),
(35,101,c)
);
},
{
closed = 1;
nodes = (
(328,280,ls),
(328,140,o),
(286,49,o),
(241,49,cs),
(212,49,o),
(202,84,o),
(202,120,cs),
(202,200,o),
(265,254,o),
(328,287,c)
);
}
);
width = 570;
},
{
guides = (
{
angle = 90;
position = "{994, 0}";
}
);
layerId = "DFD7F247-A6A1-4633-91D9-01055A0B6A1B";
shapes = (
{
closed = 1;
nodes = (
(143,386,o),
(129,411,o),
(117,422,c),
(138,468,o),
(175,495,o),
(225,495,cs),
(308,495,o),
(323,434,o),
(323,371,cs),
(323,305,l),
(236,246,o),
(33,224,o),
(33,89,cs),
(33,19,o),
(91,-9,o),
(134,-9,cs),
(257,-9,o),
(300,71,o),
(321,178,c),
(320,166,l),
(320,155,l),
(321,-177,o),
(570,-393,o),
(944,-393,cs),
(1254,-393,o),
(1585,-153,o),
(1585,201,cs),
(1585,526,o),
(1322,787,o),
(997,787,cs),
(749,787,o),
(541,645,o),
(337,450,c),
(340,447,l),
(543,640,o),
(753,783,o),
(997,783,cs),
(1318,783,o),
(1581,522,o),
(1581,201,cs),
(1581,-146,o),
(1254,-385,o),
(963,-385,c),
(650,-384,o),
(393,-199,o),
(393,144,cs),
(393,335,ls),
(393,436,o),
(340,500,o),
(236,500,cs),
(122,500,o),
(55,428,o),
(55,356,cs),
(55,326,o),
(67,306,o),
(96,306,cs),
(127,306,o),
(143,330,o),
(143,359,cs)
);
},
{
closed = 1;
nodes = (
(46,131,l),
(-283,-235,o),
(-630,-618,o),
(-1111,-618,cs),
(-1588,-618,o),
(-1976,-229,o),
(-1976,247,cs),
(-1976,723,o),
(-1588,1110,o),
(-1111,1110,cs),
(-900,1110,o),
(-706,1034,o),
(-556,907,c),
(-551,911,l),
(-702,1039,o),
(-898,1114,o),
(-1111,1114,cs),
(-1591,1114,o),
(-1980,727,o),
(-1980,247,cs),
(-1980,-233,o),
(-1591,-622,o),
(-1111,-622,cs),
(-631,-622,o),
(-285,-244,o),
(44,119,c)
);
},
{
closed = 1;
nodes = (
(323,259,ls),
(323,167,o),
(297,28,o),
(185,28,cs),
(124,28,o),
(104,74,o),
(104,109,cs),
(104,204,o),
(235,254,o),
(323,297,c)
);
}
);
width = 462;
},
{
background = {
shapes = (
{
closed = 0;
nodes = (
(325,301,l),
(215,236,o),
(25,221,o),
(25,96,cs),
(25,35,o),
(79,-9,o),
(155,-9,cs),
(249,-9,o),
(298,51,o),
(320,149,c)
);
},
{
closed = 1;
nodes = (
(325,241,ls),
(325,123,o),
(287,49,o),
(247,49,cs),
(218,49,o),
(208,84,o),
(208,120,cs),
(208,203,o),
(267,261,o),
(325,295,c)
);
}
);
};
guides = (
{
angle = 90;
position = "{1016, 0}";
}
);
layerId = "7DF38E59-3B01-4CE0-9463-5B164C18123B";
shapes = (
{
closed = 1;
nodes = (
(212,388,o),
(196,422,o),
(163,437,c),
(174,465,o),
(207,492,o),
(248,492,cs),
(306,492,o),
(325,434,o),
(325,385,cs),
(325,301,l),
(215,236,o),
(24,219,o),
(24,95,cs),
(24,33,o),
(77,-9,o),
(154,-9,cs),
(253,-9,o),
(303,56,o),
(323,163,c),
(328,163,l),
(327,151,l),
(327,-213,o),
(632,-386,o),
(1016,-386,cs),
(1341,-386,o),
(1602,-124,o),
(1602,201,cs),
(1602,526,o),
(1341,787,o),
(1016,787,cs),
(778,787,o),
(573,658,o),
(377,475,c),
(386,472,l),
(581,653,o),
(782,783,o),
(1016,783,cs),
(1337,783,o),
(1598,522,o),
(1598,201,cs),
(1598,-120,o),
(1337,-382,o),
(1016,-382,cs),
(744,-382,o),
(510,-273,o),
(510,134,cs),
(510,268,ls),
(510,428,o),
(448,500,o),
(284,500,cs),
(127,500,o),
(56,418,o),
(56,351,cs),
(56,299,o),
(84,266,o),
(132,266,cs),
(186,266,o),
(212,310,o),
(212,353,cs)
);
},
{
closed = 1;
nodes = (
(26,106,l),
(-297,-253,o),
(-637,-618,o),
(-1107,-618,cs),
(-1583,-618,o),
(-1972,-230,o),
(-1972,247,cs),
(-1972,723,o),
(-1583,1110,o),
(-1107,1110,cs),
(-896,1110,o),
(-702,1034,o),
(-552,907,c),
(-547,911,l),
(-698,1038,o),
(-894,1114,o),
(-1107,1114,cs),
(-1587,1114,o),
(-1976,726,o),
(-1976,247,cs),
(-1976,-233,o),
(-1587,-622,o),
(-1107,-622,cs),
(-638,-622,o),
(-296,-260,o),
(28,96,c)
);
},
{
closed = 1;
nodes = (
(325,255,ls),
(325,115,o),
(287,49,o),
(246,49,cs),
(217,49,o),
(207,84,o),
(207,120,cs),
(207,202,o),
(266,260,o),
(325,294,c)
);
}
);
width = 564;
}
);
leftKerningGroup = _kern1;
rightKerningGroup = _kern1;
},
{
color = (153, 255, 154, 255);
glyphname = a.7.b;
layers = (
{
anchors = (
{
name = top;
position = "{239, 577}";
}
);
guides = (
{
position = "{0, -536}";
}
);
layerId = "4C496422-9EE2-4715-A1C6-14E7C06350A7";
shapes = (
{
closed = 1;
nodes = (
(36,20,o),
(90,-10,o),
(151,-10,cs),
(262,-10,o),
(303,69,o),
(324,162,c),
(323,148,l),
(323,143,ls),
(323,-192,o),
(587,-388,o),
(936,-388,cs),
(1255,-388,o),
(1573,-179,o),
(1588,201,cs),
(1602,550,o),
(1325,804,o),
(1000,804,cs),
(752,804,o),
(541,670,o),
(337,451,c),
(344,448,l),
(546,641,o),
(756,758,o),
(1000,758,cs),
(1320,758,o),
(1595,524,o),
(1580,201,cs),
(1563,-173,o),
(1250,-376,o),
(936,-376,cs),
(658,-376,o),
(396,-213,o),
(396,144,cs),
(396,335,ls),
(396,438,o),
(344,500,o),
(239,500,cs),
(125,500,o),
(58,428,o),
(58,356,cs),
(58,326,o),
(70,306,o),
(99,306,cs),
(130,306,o),
(146,330,o),
(146,359,cs),
(146,386,o),
(132,411,o),
(120,422,c),
(142,463,o),
(180,487,o),
(231,487,cs),
(312,487,o),
(326,430,o),
(326,371,cs),
(326,304,l),
(239,244,o),
(36,226,o),
(36,89,cs)
);
},
{
closed = 1;
nodes = (
(-544,911,l),
(-695,1039,o),
(-891,1116,o),
(-1104,1116,cs),
(-1585,1116,o),
(-1975,727,o),
(-1975,247,cs),
(-1975,-255,o),
(-1585,-666,o),
(-1104,-666,cs),
(-626,-666,o),
(-279,-269,o),
(49,113,c),
(49,122,l),
(-279,-221,o),
(-627,-596,o),
(-1104,-596,cs),
(-1578,-596,o),
(-1963,-207,o),
(-1963,247,cs),
(-1963,720,o),
(-1578,1104,o),
(-1104,1104,cs),
(-893,1104,o),
(-701,1029,o),
(-551,902,c)
);
},
{
closed = 1;
nodes = (
(326,273,ls),
(326,181,o),
(296,28,o),
(188,28,cs),
(127,28,o),
(107,74,o),
(107,109,cs),
(107,203,o),
(237,245,o),
(326,288,c)
);
}
);
width = 468;
},
{
anchors = (
{
name = top;
position = "{288, 577}";
}
);
guides = (
{
position = "{0, -536}";
}
);
layerId = "90062726-3AC9-4659-AA20-F783A3D8E853";
shapes = (
{
closed = 1;
nodes = (
(24,30,o),
(75,-7,o),
(145,-7,cs),
(266,-7,o),
(304,57,o),
(326,163,c),
(335,163,l),
(334,151,l),
(334,-219,o),
(631,-396,o),
(1009,-396,cs),
(1340,-396,o),
(1608,-132,o),
(1611,216,c),
(1621,565,o),
(1344,820,o),
(1019,820,cs),
(781,820,o),
(576,678,o),
(380,474,c),
(389,472,l),
(583,650,o),
(785,760,o),
(1019,760,cs),
(1339,760,o),
(1610,522,o),
(1599,201,c),
(1595,-115,o),
(1350,-374,o),
(1019,-374,cs),
(747,-374,o),
(513,-269,o),
(513,134,cs),
(513,268,ls),
(513,428,o),
(451,500,o),
(287,500,cs),
(130,500,o),
(59,418,o),
(59,351,cs),
(59,299,o),
(87,266,o),
(135,266,cs),
(189,266,o),
(215,310,o),
(215,353,cs),
(215,388,o),
(199,422,o),
(166,437,c),
(178,461,o),
(213,485,o),
(256,485,cs),
(310,485,o),
(328,430,o),
(328,385,cs),
(328,304,l),
(219,239,o),
(24,223,o),
(24,102,cs)
);
},
{
closed = 1;
nodes = (
(-544,911,l),
(-695,1039,o),
(-889,1116,o),
(-1104,1116,cs),
(-1584,1116,o),
(-1975,738,o),
(-1975,237,cs),
(-1975,-264,o),
(-1585,-702,o),
(-1116,-702,cs),
(-634,-702,o),
(-266,-251,o),
(33,101,c),
(35,113,l),
(-281,-205,o),
(-629,-509,o),
(-1100,-509,cs),
(-1579,-509,o),
(-1959,-189,o),
(-1959,264,cs),
(-1959,714,o),
(-1581,1104,o),
(-1104,1104,cs),
(-889,1104,o),
(-696,1025,o),
(-551,902,c)
);
},
{
closed = 1;
nodes = (
(328,275,ls),
(328,135,o),
(286,49,o),
(241,49,cs),
(212,49,o),
(202,84,o),
(202,120,cs),
(202,199,o),
(264,257,o),
(328,290,c)
);
}
);
width = 570;
},
{
anchors = (
{
name = top;
position = "{236, 577}";
}
);
guides = (
{
position = "{0, -536}";
}
);
layerId = "C0DC133F-6416-4A48-B531-E298505A9AE1";
shapes = (
{
closed = 1;
nodes = (
(33,19,o),
(94,-9,o),
(139,-9,cs),
(242,-9,o),
(301,71,o),
(321,178,c),
(320,166,l),
(320,155,ls),
(320,-191,o),
(584,-388,o),
(933,-388,cs),
(1252,-388,o),
(1585,-179,o),
(1585,201,cs),
(1585,550,o),
(1322,804,o),
(997,804,cs),
(749,804,o),
(538,670,o),
(334,451,c),
(339,448,l),
(541,641,o),
(753,758,o),
(997,758,cs),
(1319,758,o),
(1581,524,o),
(1581,201,cs),
(1581,-176,o),
(1247,-384,o),
(933,-384,cs),
(655,-384,o),
(393,-218,o),
(393,144,cs),
(393,335,ls),
(393,438,o),
(341,500,o),
(236,500,cs),
(122,500,o),
(55,428,o),
(55,356,cs),
(55,326,o),
(67,306,o),
(96,306,cs),
(127,306,o),
(143,330,o),
(143,359,cs),
(143,386,o),
(129,411,o),
(117,422,c),
(137,468,o),
(173,495,o),
(221,495,cs),
(307,495,o),
(323,435,o),
(323,371,cs),
(323,301,l),
(238,246,o),
(33,221,o),
(33,89,cs)
);
},
{
closed = 1;
nodes = (
(-547,911,l),
(-698,1039,o),
(-894,1116,o),
(-1107,1116,cs),
(-1586,1116,o),
(-1974,727,o),
(-1974,247,cs),
(-1974,-255,o),
(-1586,-666,o),
(-1107,-666,cs),
(-629,-666,o),
(-284,-269,o),
(44,113,c),
(46,122,l),
(-282,-221,o),
(-630,-596,o),
(-1107,-596,cs),
(-1583,-596,o),
(-1970,-207,o),
(-1970,247,cs),
(-1970,724,o),
(-1583,1112,o),
(-1107,1112,cs),
(-896,1112,o),
(-700,1035,o),
(-550,908,c)
);
},
{
closed = 1;
nodes = (
(323,265,ls),
(323,173,o),
(297,28,o),
(185,28,cs),
(124,28,o),
(104,74,o),
(104,109,cs),
(104,205,o),
(236,250,o),
(323,293,c)
);
}
);
width = 462;
},
{
anchors = (
{
name = top;
position = "{285, 577}";
}
);
guides = (
{
position = "{0, -536}";
}
);
layerId = "7291A756-B4B9-4A9F-BCDD-45C2F86033E0";
shapes = (
{
closed = 1;
nodes = (
(27,29,o),
(87,-7,o),
(154,-7,cs),
(253,-7,o),
(303,57,o),
(323,163,c),
(328,163,l),
(327,151,l),
(327,-219,o),
(628,-396,o),
(1006,-396,cs),
(1337,-396,o),
(1608,-132,o),
(1608,216,cs),
(1608,565,o),
(1341,820,o),
(1016,820,cs),
(778,820,o),
(573,678,o),
(377,474,c),
(386,472,l),
(580,650,o),
(782,760,o),
(1016,760,cs),
(1337,760,o),
(1598,522,o),
(1598,201,cs),
(1598,-120,o),
(1348,-380,o),
(1016,-380,cs),
(744,-380,o),
(510,-273,o),
(510,134,cs),
(510,268,ls),
(510,428,o),
(448,500,o),
(284,500,cs),
(127,500,o),
(56,418,o),
(56,351,cs),
(56,299,o),
(84,266,o),
(132,266,cs),
(186,266,o),
(212,310,o),
(212,353,cs),
(212,388,o),
(196,422,o),
(163,437,c),
(174,466,o),
(207,492,o),
(248,492,cs),
(305,492,o),
(325,434,o),
(325,385,cs),
(325,301,l),
(219,237,o),
(33,221,o),
(29,102,cs)
);
},
{
closed = 1;
nodes = (
(-547,911,l),
(-698,1039,o),
(-892,1116,o),
(-1107,1116,cs),
(-1586,1116,o),
(-1976,738,o),
(-1976,237,cs),
(-1976,-264,o),
(-1587,-702,o),
(-1119,-702,cs),
(-634,-702,o),
(-263,-251,o),
(38,101,c),
(40,113,l),
(-278,-205,o),
(-629,-509,o),
(-1103,-509,cs),
(-1585,-509,o),
(-1968,-189,o),
(-1968,264,cs),
(-1968,718,o),
(-1585,1112,o),
(-1107,1112,cs),
(-892,1112,o),
(-697,1031,o),
(-552,907,c)
);
},
{
closed = 1;
nodes = (
(325,259,ls),
(325,119,o),
(286,49,o),
(246,49,cs),
(217,49,o),
(207,84,o),
(207,120,cs),
(207,202,o),
(266,260,o),
(325,294,c)
);
}
);
width = 564;
},
{
anchors = (
{
name = top;
position = "{239, 577}";
}
);
guides = (
{
position = "{0, -536}";
}
);
layerId = "EC8E161F-9AB2-4247-A7F5-C9BB1661FF9D";
shapes = (
{
closed = 1;
nodes = (
(36,19,o),
(94,-9,o),
(156,-9,cs),
(260,-9,o),
(303,67,o),
(324,168,c),
(325,160,l),
(323,148,l),
(324,-177,o),
(573,-393,o),
(947,-393,cs),
(1257,-393,o),
(1592,-153,o),
(1592,201,cs),
(1592,526,o),
(1325,791,o),
(1000,791,cs),
(754,791,o),
(537,647,o),
(336,453,c),
(345,447,l),
(548,638,o),
(756,779,o),
(1000,779,cs),
(1319,779,o),
(1580,520,o),
(1580,201,cs),
(1580,-142,o),
(1255,-377,o),
(966,-377,cs),
(653,-377,o),
(396,-194,o),
(396,144,cs),
(396,335,ls),
(396,437,o),
(343,500,o),
(239,500,cs),
(125,500,o),
(58,428,o),
(58,356,cs),
(58,326,o),
(70,306,o),
(99,306,cs),
(130,306,o),
(146,330,o),
(146,359,cs),
(146,386,o),
(132,411,o),
(120,422,c),
(141,463,o),
(178,487,o),
(228,487,cs),
(311,487,o),
(326,431,o),
(326,371,cs),
(326,305,l),
(244,249,o),
(36,221,o),
(36,95,cs)
);
},
{
closed = 1;
nodes = (
(-548,911,l),
(-699,1039,o),
(-895,1118,o),
(-1108,1118,cs),
(-1588,1118,o),
(-1977,727,o),
(-1977,247,cs),
(-1977,-233,o),
(-1588,-622,o),
(-1108,-622,cs),
(-628,-622,o),
(-282,-246,o),
(47,117,c),
(51,137,l),
(-280,-227,o),
(-625,-610,o),
(-1108,-610,cs),
(-1581,-610,o),
(-1965,-227,o),
(-1965,247,cs),
(-1965,721,o),
(-1581,1106,o),
(-1108,1106,cs),
(-897,1106,o),
(-705,1029,o),
(-555,901,c)
);
},
{
closed = 1;
nodes = (
(326,274,ls),
(326,182,o),
(294,28,o),
(188,28,cs),
(127,28,o),
(107,74,o),
(107,109,cs),
(107,204,o),
(238,245,o),
(326,288,c)
);
}
);
width = 468;
},
{
anchors = (
{
name = top;
position = "{288, 577}";
}
);
guides = (
{
position = "{0, -536}";
}
);
layerId = "1188AF94-4382-4C0E-9F0C-F5AE7B488C11";
shapes = (
{
closed = 1;
nodes = (
(27,32,o),
(91,-7,o),
(149,-7,cs),
(253,-7,o),
(305,57,o),
(326,163,c),
(335,163,l),
(333,151,l),
(333,-213,o),
(635,-386,o),
(1019,-386,cs),
(1344,-386,o),
(1609,-124,o),
(1609,201,cs),
(1609,526,o),
(1344,791,o),
(1019,791,cs),
(782,791,o),
(572,659,o),
(378,476,c),
(393,472,l),
(588,651,o),
(785,779,o),
(1019,779,cs),
(1338,779,o),
(1597,520,o),
(1597,201,cs),
(1597,-117,o),
(1338,-374,o),
(1019,-374,cs),
(747,-374,o),
(513,-269,o),
(513,134,cs),
(513,268,ls),
(513,429,o),
(451,500,o),
(287,500,cs),
(130,500,o),
(59,418,o),
(59,351,cs),
(59,299,o),
(87,266,o),
(135,266,cs),
(189,266,o),
(215,310,o),
(215,353,cs),
(215,388,o),
(199,422,o),
(166,437,c),
(177,461,o),
(211,485,o),
(253,485,cs),
(309,485,o),
(328,431,o),
(328,385,cs),
(328,301,l),
(219,238,o),
(27,214,o),
(27,101,cs)
);
},
{
closed = 1;
nodes = (
(-544,911,l),
(-695,1039,o),
(-891,1118,o),
(-1104,1118,cs),
(-1584,1118,o),
(-1973,727,o),
(-1973,247,cs),
(-1973,-233,o),
(-1584,-622,o),
(-1104,-622,cs),
(-632,-622,o),
(-289,-257,o),
(35,101,c),
(35,114,l),
(-290,-243,o),
(-631,-610,o),
(-1104,-610,cs),
(-1577,-610,o),
(-1961,-227,o),
(-1961,247,cs),
(-1961,721,o),
(-1577,1106,o),
(-1104,1106,cs),
(-893,1106,o),
(-701,1029,o),
(-551,900,c)
);
},
{
closed = 1;
nodes = (
(328,280,ls),
(328,140,o),
(286,49,o),
(241,49,cs),
(212,49,o),
(202,84,o),
(202,120,cs),
(202,200,o),
(265,254,o),
(328,287,c)
);
}
);
width = 570;
},
{
anchors = (
{
name = top;
position = "{236, 577}";
}
);
guides = (
{
position = "{0, -536}";
}
);
layerId = "DFD7F247-A6A1-4633-91D9-01055A0B6A1B";
shapes = (
{
closed = 1;
nodes = (
(33,19,o),
(91,-9,o),
(134,-9,cs),
(257,-9,o),
(300,71,o),
(321,178,c),
(320,166,l),
(320,155,l),
(321,-177,o),
(570,-393,o),
(944,-393,cs),
(1254,-393,o),
(1585,-153,o),
(1585,201,cs),
(1585,526,o),
(1322,787,o),
(997,787,cs),
(749,787,o),
(541,645,o),
(337,450,c),
(340,447,l),
(543,640,o),
(753,783,o),
(997,783,cs),
(1318,783,o),
(1581,522,o),
(1581,201,cs),
(1581,-146,o),
(1254,-385,o),
(963,-385,c),
(650,-384,o),
(393,-199,o),
(393,144,cs),
(393,335,ls),
(393,436,o),
(340,500,o),
(236,500,cs),
(122,500,o),
(55,428,o),
(55,356,cs),
(55,326,o),
(67,306,o),
(96,306,cs),
(127,306,o),
(143,330,o),
(143,359,cs),
(143,386,o),
(129,411,o),
(117,422,c),
(138,468,o),
(175,495,o),
(225,495,cs),
(308,495,o),
(323,434,o),
(323,371,cs),
(323,305,l),
(236,246,o),
(33,224,o),
(33,89,cs)
);
},
{
closed = 1;
nodes = (
(-551,911,l),
(-702,1039,o),
(-898,1114,o),
(-1111,1114,cs),
(-1591,1114,o),
(-1980,727,o),
(-1980,247,cs),
(-1980,-233,o),
(-1591,-622,o),
(-1111,-622,cs),
(-631,-622,o),
(-285,-244,o),
(44,119,c),
(46,131,l),
(-283,-235,o),
(-630,-618,o),
(-1111,-618,cs),
(-1588,-618,o),
(-1976,-229,o),
(-1976,247,cs),
(-1976,723,o),
(-1588,1110,o),
(-1111,1110,cs),
(-900,1110,o),
(-706,1034,o),
(-556,907,c)
);
},
{
closed = 1;
nodes = (
(323,259,ls),
(323,167,o),
(297,28,o),
(185,28,cs),
(124,28,o),
(104,74,o),
(104,109,cs),
(104,204,o),
(235,254,o),
(323,297,c)
);
}
);
width = 462;
},
{
anchors = (
{
name = top;
position = "{281, 577}";
}
);
guides = (
{
position = "{0, -536}";
}
);
layerId = "7DF38E59-3B01-4CE0-9463-5B164C18123B";
shapes = (
{
closed = 1;
nodes = (
(23,29,o),
(83,-7,o),
(150,-7,cs),
(249,-7,o),
(299,57,o),
(319,163,c),
(324,163,l),
(323,151,l),
(323,-219,o),
(624,-396,o),
(1002,-396,cs),
(1331,-396,o),
(1598,-138,o),
(1598,201,cs),
(1598,539,o),
(1335,779,o),
(1012,779,cs),
(774,779,o),
(569,657,o),
(373,474,c),
(382,472,l),
(576,659,o),
(778,775,o),
(1012,775,cs),
(1333,775,o),
(1594,531,o),
(1594,201,cs),
(1594,-120,o),
(1344,-380,o),
(1012,-380,cs),
(740,-380,o),
(506,-273,o),
(506,134,cs),
(506,268,ls),
(506,428,o),
(444,500,o),
(280,500,cs),
(123,500,o),
(52,418,o),
(52,351,cs),
(52,299,o),
(80,266,o),
(128,266,cs),
(182,266,o),
(208,310,o),
(208,353,cs),
(208,388,o),
(192,422,o),
(159,437,c),
(170,466,o),
(203,492,o),
(244,492,cs),
(301,492,o),
(321,434,o),
(321,385,cs),
(321,301,l),
(215,237,o),
(29,221,o),
(25,102,cs)
);
},
{
closed = 1;
nodes = (
(-551,911,l),
(-702,1038,o),
(-898,1114,o),
(-1111,1114,cs),
(-1591,1114,o),
(-1980,726,o),
(-1980,247,cs),
(-1980,-233,o),
(-1591,-622,o),
(-1111,-622,cs),
(-639,-622,o),
(-294,-260,o),
(32,96,c),
(30,106,l),
(-295,-253,o),
(-638,-618,o),
(-1111,-618,cs),
(-1587,-618,o),
(-1976,-230,o),
(-1976,247,cs),
(-1976,723,o),
(-1587,1110,o),
(-1111,1110,cs),
(-900,1110,o),
(-706,1034,o),
(-556,907,c)
);
},
{
closed = 1;
nodes = (
(321,259,ls),
(321,119,o),
(283,49,o),
(242,49,cs),
(213,49,o),
(203,84,o),
(203,120,cs),
(203,202,o),
(262,260,o),
(321,294,c)
);
}
);
width = 560;
}
);
leftKerningGroup = _kern1;
rightKerningGroup = _kern1;
},
{
color = (153, 255, 154, 255);
glyphname = a.7.more;
layers = (
{
layerId = "4C496422-9EE2-4715-A1C6-14E7C06350A7";
shapes = (
{
closed = 1;
nodes = (
(326,306,l),
(239,249,o),
(36,222,o),
(36,90,cs),
(36,22,o),
(89,-9,o),
(149,-9,cs),
(262,-9,o),
(304,70,o),
(324,163,c),
(323,151,l),
(323,140,l),
(324,-182,o),
(573,-393,o),
(947,-393,cs),
(1257,-393,o),
(1590,-153,o),
(1590,201,cs),
(1590,526,o),
(1325,789,o),
(1000,789,cs),
(753,789,o),
(539,647,o),
(336,453,c),
(343,444,l),
(546,634,o),
(756,777,o),
(1000,777,cs),
(1318,777,o),
(1578,519,o),
(1578,201,cs),
(1578,-142,o),
(1254,-377,o),
(966,-377,c),
(653,-375,o),
(396,-194,o),
(396,144,cs),
(396,335,ls),
(396,437,o),
(343,500,o),
(239,500,cs),
(125,500,o),
(58,428,o),
(58,356,cs),
(58,326,o),
(70,306,o),
(99,306,cs),
(130,306,o),
(146,330,o),
(146,359,cs),
(146,386,o),
(132,411,o),
(120,422,c),
(141,463,o),
(178,487,o),
(228,487,cs),
(311,487,o),
(326,431,o),
(326,371,cs)
);
},
{
closed = 1;
nodes = (
(50,131,l),
(-279,-232,o),
(-623,-610,o),
(-1104,-610,cs),
(-1577,-610,o),
(-1961,-226,o),
(-1961,247,cs),
(-1961,720,o),
(-1577,1104,o),
(-1104,1104,cs),
(-682,1104,o),
(-411,866,o),
(-29,866,cs),
(143,866,o),
(298,932,o),
(401,1046,c),
(389,1053,l),
(287,943,o),
(138,878,o),
(-29,878,cs),
(-408,878,o),
(-674,1116,o),
(-1104,1116,cs),
(-1584,1116,o),
(-1973,727,o),
(-1973,247,cs),
(-1973,-233,o),
(-1584,-622,o),
(-1104,-622,cs),
(-626,-622,o),
(-281,-251,o),
(47,111,c)
);
},
{
closed = 1;
nodes = (
(326,273,ls),
(326,181,o),
(295,28,o),
(188,28,cs),
(127,28,o),
(107,74,o),
(107,109,cs),
(107,204,o),
(238,245,o),
(326,288,c)
);
}
);
width = 468;
},
{
layerId = "90062726-3AC9-4659-AA20-F783A3D8E853";
shapes = (
{
closed = 1;
nodes = (
(328,301,l),
(218,238,o),
(27,208,o),
(24,94,cs),
(22,24,o),
(93,-7,o),
(149,-7,cs),
(253,-7,o),
(305,57,o),
(326,163,c),
(335,163,l),
(334,151,l),
(334,-213,o),
(635,-386,o),
(1019,-386,cs),
(1344,-386,o),
(1607,-124,o),
(1607,201,cs),
(1607,526,o),
(1344,789,o),
(1019,789,cs),
(781,789,o),
(573,659,o),
(378,476,c),
(389,469,l),
(584,647,o),
(785,777,o),
(1019,777,cs),
(1337,777,o),
(1595,519,o),
(1595,201,cs),
(1595,-117,o),
(1337,-374,o),
(1019,-374,c),
(747,-373,o),
(513,-269,o),
(513,134,cs),
(513,268,ls),
(513,429,o),
(451,500,o),
(287,500,cs),
(130,500,o),
(59,418,o),
(59,351,cs),
(59,299,o),
(87,266,o),
(135,266,cs),
(189,266,o),
(215,310,o),
(215,353,cs),
(215,388,o),
(199,422,o),
(166,437,c),
(177,461,o),
(211,485,o),
(253,485,cs),
(309,485,o),
(328,431,o),
(328,385,cs)
);
},
{
closed = 1;
nodes = (
(35,114,l),
(-289,-243,o),
(-631,-610,o),
(-1104,-610,cs),
(-1577,-610,o),
(-1961,-226,o),
(-1961,247,cs),
(-1961,720,o),
(-1577,1104,o),
(-1104,1104,cs),
(-682,1104,o),
(-411,866,o),
(-29,866,cs),
(143,866,o),
(298,932,o),
(401,1046,c),
(389,1053,l),
(287,943,o),
(138,878,o),
(-29,878,cs),
(-408,878,o),
(-674,1116,o),
(-1104,1116,cs),
(-1584,1116,o),
(-1973,727,o),
(-1973,247,cs),
(-1973,-233,o),
(-1584,-622,o),
(-1104,-622,cs),
(-632,-622,o),
(-290,-260,o),
(34,98,c)
);
},
{
closed = 1;
nodes = (
(328,280,ls),
(328,140,o),
(286,49,o),
(241,49,cs),
(212,49,o),
(202,84,o),
(202,120,cs),
(202,200,o),
(265,254,o),
(328,287,c)
);
}
);
width = 570;
},
{
layerId = "C0DC133F-6416-4A48-B531-E298505A9AE1";
shapes = (
{
closed = 1;
nodes = (
(323,305,l),
(237,246,o),
(33,223,o),
(33,89,cs),
(33,19,o),
(91,-9,o),
(134,-9,cs),
(257,-9,o),
(300,71,o),
(321,178,c),
(320,166,l),
(320,155,l),
(321,-177,o),
(570,-393,o),
(944,-393,cs),
(1254,-393,o),
(1587,-153,o),
(1587,201,cs),
(1587,526,o),
(1322,789,o),
(997,789,cs),
(755,789,o),
(542,647,o),
(343,458,c),
(346,453,l),
(545,642,o),
(758,785,o),
(997,785,cs),
(1319,785,o),
(1583,523,o),
(1583,201,cs),
(1583,-146,o),
(1255,-385,o),
(963,-385,cs),
(650,-385,o),
(393,-199,o),
(393,144,cs),
(393,335,ls),
(393,438,o),
(341,500,o),
(236,500,cs),
(122,500,o),
(55,428,o),
(55,356,cs),
(55,326,o),
(67,306,o),
(96,306,cs),
(127,306,o),
(143,330,o),
(143,359,cs),
(143,386,o),
(129,411,o),
(117,422,c),
(138,468,o),
(175,495,o),
(225,495,cs),
(308,495,o),
(323,434,o),
(323,371,cs)
);
},
{
closed = 1;
nodes = (
(45,125,l),
(-284,-240,o),
(-628,-618,o),
(-1107,-618,cs),
(-1584,-618,o),
(-1972,-230,o),
(-1972,247,cs),
(-1972,724,o),
(-1584,1112,o),
(-1107,1112,cs),
(-685,1112,o),
(-414,870,o),
(-32,870,cs),
(138,870,o),
(291,934,o),
(394,1046,c),
(388,1048,l),
(286,938,o),
(136,874,o),
(-32,874,cs),
(-411,874,o),
(-677,1116,o),
(-1107,1116,cs),
(-1587,1116,o),
(-1976,727,o),
(-1976,247,cs),
(-1976,-233,o),
(-1587,-622,o),
(-1107,-622,cs),
(-629,-622,o),
(-284,-248,o),
(44,114,c)
);
},
{
closed = 1;
nodes = (
(323,259,ls),
(323,167,o),
(297,28,o),
(185,28,cs),
(124,28,o),
(104,74,o),
(104,109,cs),
(104,204,o),
(235,254,o),
(323,297,c)
);
}
);
width = 462;
},
{
layerId = "7291A756-B4B9-4A9F-BCDD-45C2F86033E0";
shapes = (
{
closed = 1;
nodes = (
(325,301,l),
(214,236,o),
(16,213,o),
(20,93,cs),
(23,21,o),
(95,-7,o),
(146,-7,cs),
(250,-7,o),
(302,57,o),
(323,163,c),
(328,163,l),
(327,151,l),
(327,-213,o),
(632,-386,o),
(1016,-386,cs),
(1341,-386,o),
(1604,-124,o),
(1604,201,cs),
(1604,526,o),
(1341,789,o),
(1016,789,cs),
(778,789,o),
(575,658,o),
(380,474,c),
(386,472,l),
(581,654,o),
(782,785,o),
(1016,785,cs),
(1338,785,o),
(1600,523,o),
(1600,201,cs),
(1600,-121,o),
(1338,-382,o),
(1016,-382,cs),
(744,-382,o),
(510,-275,o),
(510,134,cs),
(510,268,ls),
(510,431,o),
(437,500,o),
(284,500,cs),
(127,500,o),
(56,418,o),
(56,351,cs),
(56,299,o),
(84,266,o),
(132,266,cs),
(186,266,o),
(212,310,o),
(212,353,cs),
(212,388,o),
(196,422,o),
(163,437,c),
(174,466,o),
(208,494,o),
(250,494,cs),
(306,494,o),
(325,451,o),
(325,401,cs)
);
},
{
closed = 1;
nodes = (
(32,109,l),
(-294,-250,o),
(-635,-618,o),
(-1107,-618,cs),
(-1584,-618,o),
(-1972,-230,o),
(-1972,247,cs),
(-1972,724,o),
(-1584,1112,o),
(-1107,1112,cs),
(-685,1112,o),
(-414,870,o),
(-32,870,cs),
(138,870,o),
(291,934,o),
(394,1046,c),
(388,1048,l),
(286,938,o),
(136,874,o),
(-32,874,cs),
(-411,874,o),
(-677,1116,o),
(-1107,1116,cs),
(-1587,1116,o),
(-1976,727,o),
(-1976,247,cs),
(-1976,-233,o),
(-1587,-622,o),
(-1107,-622,cs),
(-635,-622,o),
(-293,-257,o),
(31,101,c)
);
},
{
closed = 1;
nodes = (
(325,252,ls),
(325,112,o),
(283,49,o),
(238,49,cs),
(209,49,o),
(199,84,o),
(199,120,cs),
(199,203,o),
(262,262,o),
(325,296,c)
);
}
);
width = 564;
},
{
layerId = "EC8E161F-9AB2-4247-A7F5-C9BB1661FF9D";
shapes = (
{
closed = 1;
nodes = (
(326,306,l),
(239,249,o),
(36,222,o),
(36,90,cs),
(36,22,o),
(89,-9,o),
(149,-9,cs),
(262,-9,o),
(304,70,o),
(324,163,c),
(323,151,l),
(323,140,l),
(324,-182,o),
(573,-393,o),
(947,-393,cs),
(1257,-393,o),
(1590,-153,o),
(1590,201,cs),
(1590,526,o),
(1325,789,o),
(1000,789,cs),
(753,789,o),
(539,647,o),
(336,453,c),
(343,444,l),
(546,634,o),
(756,777,o),
(1000,777,cs),
(1318,777,o),
(1578,519,o),
(1578,201,cs),
(1578,-142,o),
(1254,-377,o),
(966,-377,c),
(653,-375,o),
(396,-194,o),
(396,144,cs),
(396,335,ls),
(396,437,o),
(343,500,o),
(239,500,cs),
(125,500,o),
(58,428,o),
(58,356,cs),
(58,326,o),
(70,306,o),
(99,306,cs),
(130,306,o),
(146,330,o),
(146,359,cs),
(146,386,o),
(132,411,o),
(120,422,c),
(141,463,o),
(178,487,o),
(228,487,cs),
(311,487,o),
(326,431,o),
(326,371,cs)
);
},
{
closed = 1;
nodes = (
(50,131,l),
(-279,-232,o),
(-623,-610,o),
(-1104,-610,cs),
(-1577,-610,o),
(-1961,-226,o),
(-1961,247,cs),
(-1961,720,o),
(-1577,1104,o),
(-1104,1104,cs),
(-682,1104,o),
(-411,866,o),
(-29,866,cs),
(143,866,o),
(298,932,o),
(401,1046,c),
(389,1053,l),
(287,943,o),
(138,878,o),
(-29,878,cs),
(-408,878,o),
(-674,1116,o),
(-1104,1116,cs),
(-1584,1116,o),
(-1973,727,o),
(-1973,247,cs),
(-1973,-233,o),
(-1584,-622,o),
(-1104,-622,cs),
(-626,-622,o),
(-281,-251,o),
(47,111,c)
);
},
{
closed = 1;
nodes = (
(326,273,ls),
(326,181,o),
(295,28,o),
(188,28,cs),
(127,28,o),
(107,74,o),
(107,109,cs),
(107,204,o),
(238,245,o),
(326,288,c)
);
}
);
width = 468;
},
{
layerId = "1188AF94-4382-4C0E-9F0C-F5AE7B488C11";
shapes = (
{
closed = 1;
nodes = (
(328,301,l),
(218,238,o),
(27,208,o),
(24,94,cs),
(22,24,o),
(93,-7,o),
(149,-7,cs),
(253,-7,o),
(305,57,o),
(326,163,c),
(335,163,l),
(334,151,l),
(334,-213,o),
(635,-386,o),
(1019,-386,cs),
(1344,-386,o),
(1607,-124,o),
(1607,201,cs),
(1607,526,o),
(1344,789,o),
(1019,789,cs),
(781,789,o),
(573,659,o),
(378,476,c),
(389,469,l),
(584,647,o),
(785,777,o),
(1019,777,cs),
(1337,777,o),
(1595,519,o),
(1595,201,cs),
(1595,-117,o),
(1337,-374,o),
(1019,-374,c),
(747,-373,o),
(513,-269,o),
(513,134,cs),
(513,268,ls),
(513,429,o),
(451,500,o),
(287,500,cs),
(130,500,o),
(59,418,o),
(59,351,cs),
(59,299,o),
(87,266,o),
(135,266,cs),
(189,266,o),
(215,310,o),
(215,353,cs),
(215,388,o),
(199,422,o),
(166,437,c),
(177,461,o),
(211,485,o),
(253,485,cs),
(309,485,o),
(328,431,o),
(328,385,cs)
);
},
{
closed = 1;
nodes = (
(35,114,l),
(-289,-243,o),
(-631,-610,o),
(-1104,-610,cs),
(-1577,-610,o),
(-1961,-226,o),
(-1961,247,cs),
(-1961,720,o),
(-1577,1104,o),
(-1104,1104,cs),
(-682,1104,o),
(-411,866,o),
(-29,866,cs),
(143,866,o),
(298,932,o),
(401,1046,c),
(389,1053,l),
(287,943,o),
(138,878,o),
(-29,878,cs),
(-408,878,o),
(-674,1116,o),
(-1104,1116,cs),
(-1584,1116,o),
(-1973,727,o),
(-1973,247,cs),
(-1973,-233,o),
(-1584,-622,o),
(-1104,-622,cs),
(-632,-622,o),
(-290,-260,o),
(34,98,c)
);
},
{
closed = 1;
nodes = (
(328,280,ls),
(328,140,o),
(286,49,o),
(241,49,cs),
(212,49,o),
(202,84,o),
(202,120,cs),
(202,200,o),
(265,254,o),
(328,287,c)
);
}
);
width = 570;
},
{
layerId = "DFD7F247-A6A1-4633-91D9-01055A0B6A1B";
shapes = (
{
closed = 1;
nodes = (
(323,305,l),
(237,246,o),
(33,223,o),
(33,89,cs),
(33,19,o),
(91,-9,o),
(134,-9,cs),
(257,-9,o),
(300,71,o),
(321,178,c),
(320,166,l),
(320,155,l),
(321,-177,o),
(570,-393,o),
(944,-393,cs),
(1254,-393,o),
(1587,-153,o),
(1587,201,cs),
(1587,526,o),
(1322,789,o),
(997,789,cs),
(755,789,o),
(542,647,o),
(343,458,c),
(346,453,l),
(545,642,o),
(758,785,o),
(997,785,cs),
(1319,785,o),
(1583,523,o),
(1583,201,cs),
(1583,-146,o),
(1255,-385,o),
(963,-385,cs),
(650,-385,o),
(393,-199,o),
(393,144,cs),
(393,335,ls),
(393,438,o),
(341,500,o),
(236,500,cs),
(122,500,o),
(55,428,o),
(55,356,cs),
(55,326,o),
(67,306,o),
(96,306,cs),
(127,306,o),
(143,330,o),
(143,359,cs),
(143,386,o),
(129,411,o),
(117,422,c),
(138,468,o),
(175,495,o),
(225,495,cs),
(308,495,o),
(323,434,o),
(323,371,cs)
);
},
{
closed = 1;
nodes = (
(45,125,l),
(-284,-240,o),
(-628,-618,o),
(-1107,-618,cs),
(-1584,-618,o),
(-1972,-230,o),
(-1972,247,cs),
(-1972,724,o),
(-1584,1112,o),
(-1107,1112,cs),
(-685,1112,o),
(-414,870,o),
(-32,870,cs),
(138,870,o),
(291,934,o),
(394,1046,c),
(388,1048,l),
(286,938,o),
(136,874,o),
(-32,874,cs),
(-411,874,o),
(-677,1116,o),
(-1107,1116,cs),
(-1587,1116,o),
(-1976,727,o),
(-1976,247,cs),
(-1976,-233,o),
(-1587,-622,o),
(-1107,-622,cs),
(-629,-622,o),
(-284,-248,o),
(44,114,c)
);
},
{
closed = 1;
nodes = (
(323,259,ls),
(323,167,o),
(297,28,o),
(185,28,cs),
(124,28,o),
(104,74,o),
(104,109,cs),
(104,204,o),
(235,254,o),
(323,297,c)
);
}
);
width = 462;
},
{
layerId = "7DF38E59-3B01-4CE0-9463-5B164C18123B";
shapes = (
{
closed = 1;
nodes = (
(321,301,l),
(213,236,o),
(20,213,o),
(24,93,cs),
(27,21,o),
(99,-7,o),
(150,-7,cs),
(249,-7,o),
(299,57,o),
(319,163,c),
(324,163,l),
(323,151,l),
(323,-213,o),
(628,-386,o),
(1012,-386,cs),
(1337,-386,o),
(1600,-124,o),
(1600,201,cs),
(1600,526,o),
(1337,789,o),
(1012,789,cs),
(774,789,o),
(571,658,o),
(376,474,c),
(382,472,l),
(577,654,o),
(778,785,o),
(1012,785,cs),
(1334,785,o),
(1596,523,o),
(1596,201,cs),
(1596,-121,o),
(1334,-382,o),
(1012,-382,cs),
(740,-382,o),
(506,-275,o),
(506,134,cs),
(506,268,ls),
(506,431,o),
(433,500,o),
(280,500,cs),
(123,500,o),
(52,418,o),
(52,351,cs),
(52,299,o),
(80,266,o),
(128,266,cs),
(182,266,o),
(208,310,o),
(208,353,cs),
(208,388,o),
(192,422,o),
(159,437,c),
(170,466,o),
(204,494,o),
(246,494,cs),
(302,494,o),
(321,451,o),
(321,401,cs)
);
},
{
closed = 1;
nodes = (
(36,109,l),
(-293,-250,o),
(-636,-618,o),
(-1111,-618,cs),
(-1588,-618,o),
(-1976,-230,o),
(-1976,247,cs),
(-1976,724,o),
(-1588,1112,o),
(-1111,1112,cs),
(-689,1112,o),
(-418,870,o),
(-36,870,cs),
(134,870,o),
(287,934,o),
(390,1046,c),
(384,1048,l),
(282,938,o),
(132,874,o),
(-36,874,cs),
(-415,874,o),
(-681,1116,o),
(-1111,1116,cs),
(-1591,1116,o),
(-1980,727,o),
(-1980,247,cs),
(-1980,-233,o),
(-1591,-622,o),
(-1111,-622,cs),
(-636,-622,o),
(-292,-257,o),
(35,101,c)
);
},
{
closed = 1;
nodes = (
(321,255,ls),
(321,115,o),
(283,49,o),
(242,49,cs),
(213,49,o),
(203,84,o),
(203,120,cs),
(203,203,o),
(262,262,o),
(321,296,c)
);
}
);
width = 560;
}
);
leftKerningGroup = _kern1;
rightKerningGroup = _kern1;
},
{
color = (153, 255, 154, 255);
glyphname = a.7.more.acc;
layers = (
{
layerId = "4C496422-9EE2-4715-A1C6-14E7C06350A7";
shapes = (
{
closed = 1;
nodes = (
(326,306,l),
(304,291,o),
(275,281,o),
(243,268,cs),
(150,229,o),
(36,191,o),
(36,91,cs),
(36,19,o),
(94,-9,o),
(137,-9,cs),
(260,-9,o),
(303,59,o),
(324,159,c),
(323,147,l),
(323,142,ls),
(323,-186,o),
(573,-393,o),
(947,-393,cs),
(1257,-393,o),
(1584,-153,o),
(1590,201,cs),
(1595,547,o),
(1325,822,o),
(1000,822,cs),
(752,822,o),
(541,665,o),
(337,452,c),
(345,443,l),
(549,639,o),
(755,783,o),
(1000,783,cs),
(1318,783,o),
(1584,525,o),
(1578,201,cs),
(1572,-142,o),
(1254,-377,o),
(966,-377,c),
(653,-375,o),
(396,-194,o),
(396,144,cs),
(396,335,ls),
(396,437,o),
(344,500,o),
(239,500,cs),
(125,500,o),
(58,428,o),
(58,356,cs),
(58,326,o),
(70,306,o),
(99,306,cs),
(130,306,o),
(146,330,o),
(146,359,cs),
(146,386,o),
(132,411,o),
(120,422,c),
(141,463,o),
(178,487,o),
(228,487,cs),
(311,487,o),
(326,431,o),
(326,371,cs)
);
},
{
closed = 1;
nodes = (
(51,133,l),
(-281,-212,o),
(-621,-564,o),
(-1104,-564,cs),
(-1577,-564,o),
(-1961,-205,o),
(-1961,247,cs),
(-1961,721,o),
(-1577,1104,o),
(-1104,1104,cs),
(-682,1104,o),
(-411,866,o),
(-29,866,cs),
(142,866,o),
(298,933,o),
(401,1046,c),
(388,1054,l),
(286,944,o),
(138,878,o),
(-29,878,cs),
(-408,878,o),
(-674,1116,o),
(-1104,1116,cs),
(-1584,1116,o),
(-1973,727,o),
(-1973,247,cs),
(-1973,-250,o),
(-1583,-654,o),
(-1104,-654,cs),
(-626,-654,o),
(-281,-264,o),
(47,113,c)
);
},
{
closed = 1;
nodes = (
(326,273,ls),
(326,181,o),
(298,28,o),
(188,28,cs),
(127,28,o),
(107,74,o),
(107,109,cs),
(107,204,o),
(238,245,o),
(326,288,c)
);
}
);
width = 468;
},
{
layerId = "90062726-3AC9-4659-AA20-F783A3D8E853";
shapes = (
{
closed = 1;
nodes = (
(328,301,l),
(298,283,o),
(265,271,o),
(233,259,cs),
(158,231,o),
(23,196,o),
(23,95,cs),
(23,26,o),
(86,-7,o),
(149,-7,cs),
(253,-7,o),
(305,57,o),
(326,163,c),
(335,163,l),
(334,151,l),
(334,-213,o),
(635,-386,o),
(1019,-386,cs),
(1344,-386,o),
(1607,-124,o),
(1607,201,cs),
(1607,539,o),
(1344,823,o),
(1019,823,cs),
(780,823,o),
(575,672,o),
(378,474,c),
(391,469,l),
(587,652,o),
(784,783,o),
(1019,783,cs),
(1337,783,o),
(1596,522,o),
(1596,201,cs),
(1596,-117,o),
(1337,-374,o),
(1019,-374,c),
(747,-373,o),
(513,-269,o),
(513,134,cs),
(513,268,ls),
(513,432,o),
(444,500,o),
(287,500,cs),
(130,500,o),
(59,418,o),
(59,351,cs),
(59,299,o),
(87,266,o),
(135,266,cs),
(189,266,o),
(215,310,o),
(215,353,cs),
(215,388,o),
(199,422,o),
(166,437,c),
(177,461,o),
(211,485,o),
(253,485,cs),
(309,485,o),
(328,431,o),
(328,385,cs)
);
},
{
closed = 1;
nodes = (
(36,118,l),
(-291,-209,o),
(-629,-544,o),
(-1104,-544,cs),
(-1577,-544,o),
(-1961,-189,o),
(-1961,247,cs),
(-1961,721,o),
(-1577,1104,o),
(-1104,1104,cs),
(-682,1104,o),
(-411,866,o),
(-29,866,cs),
(142,866,o),
(298,933,o),
(401,1046,c),
(388,1054,l),
(286,944,o),
(138,878,o),
(-29,878,cs),
(-408,878,o),
(-674,1116,o),
(-1104,1116,cs),
(-1584,1116,o),
(-1973,727,o),
(-1973,247,cs),
(-1973,-262,o),
(-1584,-674,o),
(-1104,-674,cs),
(-632,-674,o),
(-290,-284,o),
(34,98,c)
);
},
{
closed = 1;
nodes = (
(328,280,ls),
(328,140,o),
(286,49,o),
(241,49,cs),
(212,49,o),
(202,84,o),
(202,120,cs),
(202,200,o),
(265,254,o),
(328,287,c)
);
}
);
width = 570;
},
{
layerId = "C0DC133F-6416-4A48-B531-E298505A9AE1";
shapes = (
{
closed = 1;
nodes = (
(323,305,l),
(302,291,o),
(274,279,o),
(243,266,cs),
(149,229,o),
(33,190,o),
(33,89,cs),
(33,19,o),
(91,-9,o),
(134,-9,cs),
(257,-9,o),
(300,71,o),
(321,178,c),
(320,166,l),
(320,155,ls),
(320,-177,o),
(570,-393,o),
(944,-393,cs),
(1254,-393,o),
(1587,-153,o),
(1587,201,cs),
(1587,544,o),
(1322,822,o),
(997,822,cs),
(749,822,o),
(538,665,o),
(334,452,c),
(338,450,l),
(539,641,o),
(754,783,o),
(997,783,cs),
(1319,783,o),
(1583,522,o),
(1583,201,cs),
(1583,-146,o),
(1255,-385,o),
(963,-385,cs),
(650,-385,o),
(393,-199,o),
(393,144,cs),
(393,335,ls),
(393,438,o),
(341,500,o),
(236,500,cs),
(122,500,o),
(55,428,o),
(55,356,cs),
(55,326,o),
(67,306,o),
(96,306,cs),
(127,306,o),
(143,330,o),
(143,359,cs),
(143,386,o),
(129,411,o),
(117,422,c),
(138,468,o),
(175,495,o),
(225,495,cs),
(308,495,o),
(323,434,o),
(323,371,cs)
);
},
{
closed = 1;
nodes = (
(46,122,l),
(-281,-219,o),
(-630,-564,o),
(-1107,-564,cs),
(-1584,-564,o),
(-1972,-205,o),
(-1972,247,cs),
(-1972,723,o),
(-1584,1112,o),
(-1107,1112,cs),
(-685,1112,o),
(-414,870,o),
(-32,870,cs),
(139,870,o),
(291,933,o),
(394,1046,c),
(389,1047,l),
(287,937,o),
(136,874,o),
(-32,874,cs),
(-411,874,o),
(-677,1116,o),
(-1107,1116,cs),
(-1587,1116,o),
(-1976,727,o),
(-1976,247,cs),
(-1976,-250,o),
(-1586,-654,o),
(-1107,-654,cs),
(-629,-654,o),
(-284,-264,o),
(44,113,c)
);
},
{
closed = 1;
nodes = (
(323,259,ls),
(323,167,o),
(297,28,o),
(185,28,cs),
(124,28,o),
(104,74,o),
(104,109,cs),
(104,204,o),
(235,254,o),
(323,297,c)
);
}
);
width = 462;
},
{
layerId = "7291A756-B4B9-4A9F-BCDD-45C2F86033E0";
shapes = (
{
closed = 1;
nodes = (
(325,301,l),
(307,290,o),
(286,281,o),
(264,271,cs),
(159,224,o),
(25,189,o),
(28,90,cs),
(31,19,o),
(103,-7,o),
(154,-7,cs),
(253,-7,o),
(303,57,o),
(323,163,c),
(328,163,l),
(327,151,l),
(327,-213,o),
(632,-386,o),
(1016,-386,cs),
(1341,-386,o),
(1604,-124,o),
(1604,201,cs),
(1604,539,o),
(1341,823,o),
(1016,823,cs),
(777,823,o),
(572,672,o),
(375,474,c),
(382,473,l),
(576,654,o),
(783,783,o),
(1016,783,cs),
(1338,783,o),
(1600,522,o),
(1600,201,cs),
(1600,-121,o),
(1338,-382,o),
(1016,-382,cs),
(744,-382,o),
(510,-275,o),
(510,134,cs),
(510,268,ls),
(510,434,o),
(442,500,o),
(284,500,cs),
(127,500,o),
(56,418,o),
(56,351,cs),
(56,299,o),
(84,266,o),
(132,266,cs),
(186,266,o),
(212,310,o),
(212,353,cs),
(212,388,o),
(196,422,o),
(163,437,c),
(174,466,o),
(207,492,o),
(248,492,cs),
(305,492,o),
(325,434,o),
(325,385,cs)
);
},
{
closed = 1;
nodes = (
(40,109,l),
(-285,-214,o),
(-634,-544,o),
(-1107,-544,cs),
(-1584,-544,o),
(-1972,-189,o),
(-1972,247,cs),
(-1972,723,o),
(-1584,1112,o),
(-1107,1112,cs),
(-685,1112,o),
(-414,870,o),
(-32,870,cs),
(139,870,o),
(291,933,o),
(394,1046,c),
(389,1047,l),
(287,937,o),
(136,874,o),
(-32,874,cs),
(-411,874,o),
(-677,1116,o),
(-1107,1116,cs),
(-1587,1116,o),
(-1976,727,o),
(-1976,247,cs),
(-1976,-262,o),
(-1587,-674,o),
(-1107,-674,cs),
(-632,-674,o),
(-287,-284,o),
(39,98,c)
);
},
{
closed = 1;
nodes = (
(325,264,ls),
(325,124,o),
(287,49,o),
(246,49,cs),
(217,49,o),
(207,84,o),
(207,120,cs),
(207,202,o),
(266,260,o),
(325,294,c)
);
}
);
width = 564;
},
{
layerId = "EC8E161F-9AB2-4247-A7F5-C9BB1661FF9D";
shapes = (
{
closed = 1;
nodes = (
(326,306,l),
(308,294,o),
(286,284,o),
(262,274,cs),
(165,234,o),
(36,195,o),
(36,90,cs),
(36,22,o),
(89,-9,o),
(149,-9,cs),
(262,-9,o),
(304,70,o),
(324,163,c),
(323,151,l),
(323,140,l),
(324,-182,o),
(573,-393,o),
(947,-393,cs),
(1257,-393,o),
(1590,-153,o),
(1590,201,cs),
(1590,526,o),
(1325,789,o),
(1000,789,cs),
(753,789,o),
(539,647,o),
(336,453,c),
(343,444,l),
(546,634,o),
(756,777,o),
(1000,777,cs),
(1318,777,o),
(1578,519,o),
(1578,201,cs),
(1578,-142,o),
(1254,-377,o),
(966,-377,c),
(653,-375,o),
(396,-194,o),
(396,144,cs),
(396,335,ls),
(396,437,o),
(343,500,o),
(239,500,cs),
(125,500,o),
(58,428,o),
(58,356,cs),
(58,326,o),
(70,306,o),
(99,306,cs),
(130,306,o),
(146,330,o),
(146,359,cs),
(146,386,o),
(132,411,o),
(120,422,c),
(141,463,o),
(178,487,o),
(228,487,cs),
(311,487,o),
(326,431,o),
(326,371,cs)
);
},
{
closed = 1;
nodes = (
(50,131,l),
(-279,-232,o),
(-623,-610,o),
(-1104,-610,cs),
(-1577,-610,o),
(-1961,-226,o),
(-1961,247,cs),
(-1961,720,o),
(-1577,1104,o),
(-1104,1104,cs),
(-682,1104,o),
(-411,866,o),
(-29,866,cs),
(143,866,o),
(298,932,o),
(401,1046,c),
(389,1053,l),
(287,943,o),
(138,878,o),
(-29,878,cs),
(-408,878,o),
(-674,1116,o),
(-1104,1116,cs),
(-1584,1116,o),
(-1973,727,o),
(-1973,247,cs),
(-1973,-233,o),
(-1584,-622,o),
(-1104,-622,cs),
(-626,-622,o),
(-281,-251,o),
(47,111,c)
);
},
{
closed = 1;
nodes = (
(326,273,ls),
(326,181,o),
(295,28,o),
(188,28,cs),
(127,28,o),
(107,74,o),
(107,109,cs),
(107,204,o),
(238,245,o),
(326,288,c)
);
}
);
width = 468;
},
{
layerId = "1188AF94-4382-4C0E-9F0C-F5AE7B488C11";
shapes = (
{
closed = 1;
nodes = (
(328,301,l),
(311,291,o),
(292,282,o),
(273,274,cs),
(164,227,o),
(27,190,o),
(24,94,cs),
(22,24,o),
(93,-7,o),
(149,-7,cs),
(253,-7,o),
(305,57,o),
(326,163,c),
(335,163,l),
(334,151,l),
(334,-213,o),
(635,-386,o),
(1019,-386,cs),
(1344,-386,o),
(1607,-124,o),
(1607,201,cs),
(1607,526,o),
(1344,789,o),
(1019,789,cs),
(781,789,o),
(573,659,o),
(378,476,c),
(389,469,l),
(584,647,o),
(785,777,o),
(1019,777,cs),
(1337,777,o),
(1595,519,o),
(1595,201,cs),
(1595,-117,o),
(1337,-374,o),
(1019,-374,c),
(747,-373,o),
(513,-269,o),
(513,134,cs),
(513,268,ls),
(513,429,o),
(451,500,o),
(287,500,cs),
(130,500,o),
(59,418,o),
(59,351,cs),
(59,299,o),
(87,266,o),
(135,266,cs),
(189,266,o),
(215,310,o),
(215,353,cs),
(215,388,o),
(199,422,o),
(166,437,c),
(177,461,o),
(211,485,o),
(253,485,cs),
(309,485,o),
(328,431,o),
(328,385,cs)
);
},
{
closed = 1;
nodes = (
(35,114,l),
(-289,-243,o),
(-631,-610,o),
(-1104,-610,cs),
(-1577,-610,o),
(-1961,-226,o),
(-1961,247,cs),
(-1961,720,o),
(-1577,1104,o),
(-1104,1104,cs),
(-682,1104,o),
(-411,866,o),
(-29,866,cs),
(143,866,o),
(298,932,o),
(401,1046,c),
(389,1053,l),
(287,943,o),
(138,878,o),
(-29,878,cs),
(-408,878,o),
(-674,1116,o),
(-1104,1116,cs),
(-1584,1116,o),
(-1973,727,o),
(-1973,247,cs),
(-1973,-233,o),
(-1584,-622,o),
(-1104,-622,cs),
(-632,-622,o),
(-290,-260,o),
(34,98,c)
);
},
{
closed = 1;
nodes = (
(328,280,ls),
(328,140,o),
(286,49,o),
(241,49,cs),
(212,49,o),
(202,84,o),
(202,120,cs),
(202,200,o),
(265,254,o),
(328,287,c)
);
}
);
width = 570;
},
{
layerId = "DFD7F247-A6A1-4633-91D9-01055A0B6A1B";
shapes = (
{
closed = 1;
nodes = (
(323,305,l),
(303,292,o),
(278,280,o),
(250,269,cs),
(155,230,o),
(33,192,o),
(33,89,cs),
(33,19,o),
(91,-9,o),
(134,-9,cs),
(257,-9,o),
(300,71,o),
(321,178,c),
(320,166,l),
(320,155,l),
(321,-177,o),
(570,-393,o),
(944,-393,cs),
(1254,-393,o),
(1587,-153,o),
(1587,201,cs),
(1587,526,o),
(1322,789,o),
(997,789,cs),
(755,789,o),
(542,647,o),
(343,458,c),
(346,453,l),
(545,642,o),
(758,785,o),
(997,785,cs),
(1319,785,o),
(1583,523,o),
(1583,201,cs),
(1583,-146,o),
(1255,-385,o),
(963,-385,cs),
(650,-385,o),
(393,-199,o),
(393,144,cs),
(393,335,ls),
(393,438,o),
(341,500,o),
(236,500,cs),
(122,500,o),
(55,428,o),
(55,356,cs),
(55,326,o),
(67,306,o),
(96,306,cs),
(127,306,o),
(143,330,o),
(143,359,cs),
(143,386,o),
(129,411,o),
(117,422,c),
(138,468,o),
(175,495,o),
(225,495,cs),
(308,495,o),
(323,434,o),
(323,371,cs)
);
},
{
closed = 1;
nodes = (
(45,125,l),
(-284,-240,o),
(-628,-618,o),
(-1107,-618,cs),
(-1584,-618,o),
(-1972,-230,o),
(-1972,247,cs),
(-1972,724,o),
(-1584,1112,o),
(-1107,1112,cs),
(-685,1112,o),
(-414,870,o),
(-32,870,cs),
(138,870,o),
(291,934,o),
(394,1046,c),
(388,1048,l),
(286,938,o),
(136,874,o),
(-32,874,cs),
(-411,874,o),
(-677,1116,o),
(-1107,1116,cs),
(-1587,1116,o),
(-1976,727,o),
(-1976,247,cs),
(-1976,-233,o),
(-1587,-622,o),
(-1107,-622,cs),
(-629,-622,o),
(-284,-248,o),
(44,114,c)
);
},
{
closed = 1;
nodes = (
(323,259,ls),
(323,167,o),
(297,28,o),
(185,28,cs),
(124,28,o),
(104,74,o),
(104,109,cs),
(104,204,o),
(235,254,o),
(323,297,c)
);
}
);
width = 462;
},
{
layerId = "7DF38E59-3B01-4CE0-9463-5B164C18123B";
shapes = (
{
closed = 1;
nodes = (
(321,301,l),
(296,286,o),
(266,274,o),
(234,261,cs),
(134,220,o),
(21,186,o),
(24,93,cs),
(27,21,o),
(99,-7,o),
(150,-7,cs),
(249,-7,o),
(299,57,o),
(319,163,c),
(324,163,l),
(323,151,l),
(323,-213,o),
(628,-386,o),
(1012,-386,cs),
(1337,-386,o),
(1600,-124,o),
(1600,201,cs),
(1600,526,o),
(1337,789,o),
(1012,789,cs),
(774,789,o),
(571,658,o),
(376,474,c),
(382,472,l),
(577,654,o),
(778,785,o),
(1012,785,cs),
(1334,785,o),
(1596,523,o),
(1596,201,cs),
(1596,-121,o),
(1334,-382,o),
(1012,-382,cs),
(740,-382,o),
(506,-275,o),
(506,134,cs),
(506,268,ls),
(506,431,o),
(433,500,o),
(280,500,cs),
(123,500,o),
(52,418,o),
(52,351,cs),
(52,299,o),
(80,266,o),
(128,266,cs),
(182,266,o),
(208,310,o),
(208,353,cs),
(208,388,o),
(192,422,o),
(159,437,c),
(170,466,o),
(204,494,o),
(246,494,cs),
(302,494,o),
(321,451,o),
(321,401,cs)
);
},
{
closed = 1;
nodes = (
(36,109,l),
(-293,-250,o),
(-636,-618,o),
(-1111,-618,cs),
(-1588,-618,o),
(-1976,-230,o),
(-1976,247,cs),
(-1976,724,o),
(-1588,1112,o),
(-1111,1112,cs),
(-689,1112,o),
(-418,870,o),
(-36,870,cs),
(134,870,o),
(287,934,o),
(390,1046,c),
(384,1048,l),
(282,938,o),
(132,874,o),
(-36,874,cs),
(-415,874,o),
(-681,1116,o),
(-1111,1116,cs),
(-1591,1116,o),
(-1980,727,o),
(-1980,247,cs),
(-1980,-233,o),
(-1591,-622,o),
(-1111,-622,cs),
(-636,-622,o),
(-292,-257,o),
(35,101,c)
);
},
{
closed = 1;
nodes = (
(321,255,ls),
(321,115,o),
(283,49,o),
(242,49,cs),
(213,49,o),
(203,84,o),
(203,120,cs),
(203,203,o),
(262,262,o),
(321,296,c)
);
}
);
width = 560;
}
);
leftKerningGroup = _kern1;
rightKerningGroup = _kern1;
},
{
color = (153, 255, 154, 255);
glyphname = a.4;
layers = (
{
layerId = "4C496422-9EE2-4715-A1C6-14E7C06350A7";
shapes = (
{
closed = 1;
nodes = (
(327,152,l),
(327,-260,o),
(587,-414,o),
(913,-414,cs),
(1268,-414,o),
(1578,-161,o),
(1578,207,cs),
(1578,544,o),
(1303,817,o),
(964,817,cs),
(806,817,o),
(662,757,o),
(554,659,c),
(563,651,l),
(669,748,o),
(810,805,o),
(964,805,cs),
(1296,805,o),
(1566,537,o),
(1566,207,cs),
(1566,-154,o),
(1259,-401,o),
(924,-401,cs),
(643,-401,o),
(395,-231,o),
(395,109,cs),
(395,335,ls),
(395,424,o),
(356,500,o),
(238,500,cs),
(124,500,o),
(57,428,o),
(57,356,cs),
(57,326,o),
(69,306,o),
(98,306,cs),
(129,306,o),
(145,330,o),
(145,359,cs),
(145,386,o),
(131,411,o),
(119,422,c),
(140,463,o),
(177,487,o),
(227,487,cs),
(310,487,o),
(325,431,o),
(325,371,cs),
(325,306,l),
(232,243,o),
(35,224,o),
(35,89,cs),
(35,19,o),
(93,-9,o),
(136,-9,cs),
(253,-9,o),
(301,54,o),
(322,152,c)
);
},
{
closed = 1;
nodes = (
(325,273,ls),
(325,181,o),
(299,28,o),
(187,28,cs),
(126,28,o),
(106,74,o),
(106,109,cs),
(106,204,o),
(237,245,o),
(325,288,c)
);
}
);
width = 469;
},
{
layerId = "90062726-3AC9-4659-AA20-F783A3D8E853";
shapes = (
{
closed = 1;
nodes = (
(335,163,l),
(329,-192,o),
(653,-413,o),
(1027,-413,cs),
(1372,-413,o),
(1651,-136,o),
(1651,207,cs),
(1651,544,o),
(1376,817,o),
(1037,817,cs),
(879,817,o),
(735,757,o),
(627,659,c),
(636,651,l),
(742,748,o),
(883,805,o),
(1037,805,cs),
(1369,805,o),
(1639,537,o),
(1639,207,cs),
(1639,-125,o),
(1362,-395,o),
(1037,-395,cs),
(766,-395,o),
(518,-230,o),
(518,138,cs),
(518,268,ls),
(518,403,o),
(477,500,o),
(287,500,cs),
(130,500,o),
(59,418,o),
(59,351,cs),
(59,299,o),
(87,266,o),
(135,266,cs),
(189,266,o),
(215,310,o),
(215,353,cs),
(215,388,o),
(199,422,o),
(166,437,c),
(177,461,o),
(211,485,o),
(253,485,cs),
(309,485,o),
(328,431,o),
(328,385,cs),
(328,301,l),
(215,236,o),
(19,221,o),
(19,96,cs),
(19,19,o),
(93,-9,o),
(149,-9,cs),
(253,-9,o),
(305,57,o),
(326,163,c)
);
},
{
closed = 1;
nodes = (
(328,280,ls),
(328,140,o),
(286,49,o),
(241,49,cs),
(212,49,o),
(202,84,o),
(202,120,cs),
(202,200,o),
(265,254,o),
(328,287,c)
);
}
);
width = 575;
},
{
layerId = "C0DC133F-6416-4A48-B531-E298505A9AE1";
leftMetricsKey = a;
shapes = (
{
closed = 1;
nodes = (
(324,168,l),
(324,-211,o),
(584,-414,o),
(910,-414,cs),
(1263,-414,o),
(1571,-161,o),
(1571,207,cs),
(1571,544,o),
(1298,817,o),
(961,817,cs),
(803,817,o),
(659,757,o),
(551,659,c),
(554,655,l),
(662,753,o),
(805,813,o),
(961,813,cs),
(1295,813,o),
(1567,541,o),
(1567,207,cs),
(1567,-149,o),
(1273,-405,o),
(921,-405,cs),
(640,-405,o),
(392,-233,o),
(392,109,cs),
(392,335,ls),
(392,424,o),
(353,500,o),
(235,500,cs),
(121,500,o),
(54,428,o),
(54,356,cs),
(54,326,o),
(66,306,o),
(95,306,cs),
(126,306,o),
(142,330,o),
(142,359,cs),
(142,386,o),
(128,411,o),
(116,422,c),
(137,468,o),
(174,495,o),
(224,495,cs),
(307,495,o),
(322,434,o),
(322,371,cs),
(322,305,l),
(229,242,o),
(32,224,o),
(32,89,cs),
(32,19,o),
(90,-9,o),
(133,-9,cs),
(250,-9,o),
(298,66,o),
(319,168,c)
);
},
{
closed = 1;
nodes = (
(322,259,ls),
(322,167,o),
(296,28,o),
(184,28,cs),
(123,28,o),
(103,74,o),
(103,109,cs),
(103,204,o),
(234,254,o),
(322,297,c)
);
}
);
width = 463;
},
{
layerId = "7291A756-B4B9-4A9F-BCDD-45C2F86033E0";
shapes = (
{
closed = 1;
nodes = (
(325,156,l),
(337,-199,o),
(650,-413,o),
(1024,-413,cs),
(1367,-413,o),
(1644,-136,o),
(1644,207,cs),
(1644,544,o),
(1371,817,o),
(1034,817,cs),
(876,817,o),
(732,757,o),
(624,659,c),
(627,655,l),
(735,753,o),
(878,813,o),
(1034,813,cs),
(1368,813,o),
(1640,541,o),
(1640,207,cs),
(1640,-129,o),
(1368,-403,o),
(1034,-403,cs),
(763,-403,o),
(515,-234,o),
(515,138,cs),
(515,268,ls),
(515,403,o),
(474,500,o),
(284,500,cs),
(127,500,o),
(56,418,o),
(56,351,cs),
(56,299,o),
(84,266,o),
(132,266,cs),
(186,266,o),
(212,310,o),
(212,353,cs),
(212,388,o),
(196,422,o),
(163,437,c),
(174,466,o),
(207,492,o),
(248,492,cs),
(305,492,o),
(325,434,o),
(325,385,cs),
(325,301,l),
(212,236,o),
(16,221,o),
(16,96,cs),
(16,19,o),
(90,-9,o),
(146,-9,cs),
(250,-9,o),
(302,57,o),
(323,163,c)
);
},
{
closed = 1;
nodes = (
(325,259,ls),
(325,119,o),
(283,49,o),
(238,49,cs),
(209,49,o),
(199,84,o),
(199,120,cs),
(199,200,o),
(262,257,o),
(325,290,c)
);
}
);
width = 569;
},
{
layerId = "EC8E161F-9AB2-4247-A7F5-C9BB1661FF9D";
shapes = (
{
closed = 1;
nodes = (
(327,152,l),
(327,-253,o),
(587,-414,o),
(913,-414,cs),
(1268,-414,o),
(1578,-161,o),
(1578,207,cs),
(1578,544,o),
(1303,817,o),
(964,817,cs),
(806,817,o),
(662,757,o),
(554,659,c),
(563,651,l),
(669,748,o),
(810,805,o),
(964,805,cs),
(1296,805,o),
(1566,537,o),
(1566,207,cs),
(1566,-154,o),
(1259,-401,o),
(924,-401,cs),
(643,-401,o),
(395,-231,o),
(395,109,cs),
(395,335,ls),
(395,424,o),
(356,500,o),
(238,500,cs),
(124,500,o),
(57,428,o),
(57,356,cs),
(57,326,o),
(69,306,o),
(98,306,cs),
(129,306,o),
(145,330,o),
(145,359,cs),
(145,386,o),
(131,411,o),
(119,422,c),
(140,463,o),
(177,487,o),
(227,487,cs),
(310,487,o),
(325,431,o),
(325,371,cs),
(325,306,l),
(232,243,o),
(35,224,o),
(35,89,cs),
(35,19,o),
(93,-9,o),
(136,-9,cs),
(253,-9,o),
(301,54,o),
(322,152,c)
);
},
{
closed = 1;
nodes = (
(325,273,ls),
(325,181,o),
(299,28,o),
(187,28,cs),
(126,28,o),
(106,74,o),
(106,109,cs),
(106,204,o),
(237,245,o),
(325,288,c)
);
}
);
width = 469;
},
{
layerId = "1188AF94-4382-4C0E-9F0C-F5AE7B488C11";
shapes = (
{
closed = 1;
nodes = (
(335,163,l),
(329,-192,o),
(653,-413,o),
(1027,-413,cs),
(1372,-413,o),
(1651,-136,o),
(1651,207,cs),
(1651,544,o),
(1376,817,o),
(1037,817,cs),
(879,817,o),
(735,757,o),
(627,659,c),
(636,651,l),
(742,748,o),
(883,805,o),
(1037,805,cs),
(1369,805,o),
(1639,537,o),
(1639,207,cs),
(1639,-125,o),
(1362,-395,o),
(1037,-395,cs),
(766,-395,o),
(518,-230,o),
(518,138,cs),
(518,268,ls),
(518,403,o),
(477,500,o),
(287,500,cs),
(130,500,o),
(59,418,o),
(59,351,cs),
(59,299,o),
(87,266,o),
(135,266,cs),
(189,266,o),
(215,310,o),
(215,353,cs),
(215,388,o),
(199,422,o),
(166,437,c),
(177,461,o),
(211,485,o),
(253,485,cs),
(309,485,o),
(328,431,o),
(328,385,cs),
(328,301,l),
(215,236,o),
(19,221,o),
(19,96,cs),
(19,19,o),
(93,-9,o),
(149,-9,cs),
(253,-9,o),
(305,57,o),
(326,163,c)
);
},
{
closed = 1;
nodes = (
(328,280,ls),
(328,140,o),
(286,49,o),
(241,49,cs),
(212,49,o),
(202,84,o),
(202,120,cs),
(202,200,o),
(265,254,o),
(328,287,c)
);
}
);
width = 575;
},
{
layerId = "DFD7F247-A6A1-4633-91D9-01055A0B6A1B";
leftMetricsKey = a;
shapes = (
{
closed = 1;
nodes = (
(324,168,l),
(324,-245,o),
(584,-414,o),
(910,-414,cs),
(1263,-414,o),
(1571,-161,o),
(1571,207,cs),
(1571,544,o),
(1298,817,o),
(961,817,cs),
(803,817,o),
(659,757,o),
(551,659,c),
(554,655,l),
(662,753,o),
(805,813,o),
(961,813,cs),
(1295,813,o),
(1567,541,o),
(1567,207,cs),
(1567,-149,o),
(1273,-405,o),
(921,-405,cs),
(640,-405,o),
(392,-233,o),
(392,109,cs),
(392,335,ls),
(392,424,o),
(353,500,o),
(235,500,cs),
(121,500,o),
(54,428,o),
(54,356,cs),
(54,326,o),
(66,306,o),
(95,306,cs),
(126,306,o),
(142,330,o),
(142,359,cs),
(142,386,o),
(128,411,o),
(116,422,c),
(137,468,o),
(174,495,o),
(224,495,cs),
(307,495,o),
(322,434,o),
(322,371,cs),
(322,305,l),
(229,242,o),
(32,224,o),
(32,89,cs),
(32,19,o),
(90,-9,o),
(133,-9,cs),
(250,-9,o),
(298,66,o),
(319,168,c)
);
},
{
closed = 1;
nodes = (
(322,259,ls),
(322,167,o),
(296,28,o),
(184,28,cs),
(123,28,o),
(103,74,o),
(103,109,cs),
(103,204,o),
(234,254,o),
(322,297,c)
);
}
);
width = 463;
},
{
layerId = "7DF38E59-3B01-4CE0-9463-5B164C18123B";
shapes = (
{
closed = 1;
nodes = (
(317,156,l),
(329,-199,o),
(642,-413,o),
(1016,-413,cs),
(1359,-413,o),
(1636,-136,o),
(1636,207,cs),
(1636,544,o),
(1363,817,o),
(1026,817,cs),
(868,817,o),
(724,757,o),
(616,659,c),
(619,655,l),
(727,753,o),
(870,813,o),
(1026,813,cs),
(1360,813,o),
(1632,541,o),
(1632,207,cs),
(1632,-129,o),
(1360,-403,o),
(1026,-403,cs),
(755,-403,o),
(507,-234,o),
(507,138,cs),
(507,268,ls),
(507,403,o),
(466,500,o),
(276,500,cs),
(119,500,o),
(48,418,o),
(48,351,cs),
(48,299,o),
(76,266,o),
(124,266,cs),
(178,266,o),
(204,310,o),
(204,353,cs),
(204,388,o),
(188,422,o),
(155,437,c),
(166,466,o),
(199,492,o),
(240,492,cs),
(297,492,o),
(317,434,o),
(317,385,cs),
(317,301,l),
(207,236,o),
(16,221,o),
(16,96,cs),
(16,19,o),
(90,-9,o),
(146,-9,cs),
(245,-9,o),
(294,57,o),
(315,163,c)
);
},
{
closed = 1;
nodes = (
(317,262,ls),
(317,127,o),
(278,49,o),
(238,49,cs),
(209,49,o),
(199,84,o),
(199,120,cs),
(199,200,o),
(258,259,o),
(317,292,c)
);
}
);
width = 561;
}
);
leftKerningGroup = _kern1;
rightKerningGroup = _kern1;
},
{
color = (153, 255, 154, 255);
glyphname = a.8;
layers = (
{
layerId = "4C496422-9EE2-4715-A1C6-14E7C06350A7";
shapes = (
{
closed = 1;
nodes = (
(-1020,628,l),
(-1134,722,o),
(-1281,779,o),
(-1440,779,cs),
(-1803,779,o),
(-2096,485,o),
(-2096,119,cs),
(-2096,-242,o),
(-1812,-536,o),
(-1418,-536,cs),
(-1040,-536,o),
(-745,-279,o),
(-476,-23,cs),
(-218,222,o),
(31,487,o),
(228,487,cs),
(311,487,o),
(333,430,o),
(333,371,cs),
(333,306,l),
(245,243,o),
(39,224,o),
(39,89,cs),
(39,19,o),
(97,-9,o),
(140,-9,cs),
(240,-9,o),
(300,55,o),
(327,155,c),
(329,156,l),
(328,114,l),
(322,24,o),
(357,-9,o),
(412,-9,cs),
(448,-9,o),
(481,5,o),
(493,30,c),
(488,39,l),
(479,25,o),
(467,18,o),
(449,18,cs),
(417,18,o),
(403,39,o),
(403,110,cs),
(403,335,ls),
(403,424,o),
(357,500,o),
(239,500,cs),
(39,500,o),
(-224,229,o),
(-490,-22,cs),
(-756,-273,o),
(-1051,-524,o),
(-1414,-524,cs),
(-1809,-524,o),
(-2084,-235,o),
(-2084,119,cs),
(-2084,481,o),
(-1798,767,o),
(-1440,767,cs),
(-1282,767,o),
(-1137,712,o),
(-1024,616,c)
);
},
{
closed = 1;
nodes = (
(333,270,ls),
(333,109,o),
(244,28,o),
(189,28,cs),
(128,28,o),
(108,74,o),
(108,109,cs),
(108,204,o),
(251,245,o),
(333,288,c)
);
},
{
closed = 1;
nodes = (
(130,296,o),
(152,323,o),
(152,356,cs),
(152,389,o),
(130,416,o),
(102,416,cs),
(74,416,o),
(53,389,o),
(53,356,cs),
(53,323,o),
(74,296,o),
(102,296,cs)
);
}
);
width = 486;
},
{
layerId = "90062726-3AC9-4659-AA20-F783A3D8E853";
shapes = (
{
closed = 1;
nodes = (
(-1007,628,l),
(-1121,722,o),
(-1268,779,o),
(-1427,779,cs),
(-1790,779,o),
(-2083,485,o),
(-2083,119,cs),
(-2083,-242,o),
(-1799,-536,o),
(-1405,-536,cs),
(-1027,-536,o),
(-731,-280,o),
(-463,-24,cs),
(-205,222,o),
(11,486,o),
(237,486,cs),
(311,486,o),
(329,449,o),
(329,385,cs),
(329,301,l),
(216,236,o),
(20,221,o),
(20,96,cs),
(20,19,o),
(94,-9,o),
(150,-9,cs),
(254,-9,o),
(306,57,o),
(327,163,c),
(336,163,l),
(335,151,l),
(334,42,o),
(365,-9,o),
(449,-9,cs),
(492,-9,o),
(538,5,o),
(556,43,c),
(551,52,l),
(546,41,o),
(541,37,o),
(535,37,cs),
(522,37,o),
(519,54,o),
(519,110,cs),
(519,268,ls),
(519,455,o),
(422,503,o),
(264,503,cs),
(29,503,o),
(-203,238,o),
(-474,-22,cs),
(-738,-276,o),
(-1038,-526,o),
(-1401,-526,cs),
(-1796,-526,o),
(-2073,-236,o),
(-2073,118,cs),
(-2073,480,o),
(-1784,769,o),
(-1426,769,cs),
(-1268,769,o),
(-1124,711,o),
(-1011,616,c)
);
},
{
closed = 1;
nodes = (
(329,280,ls),
(329,140,o),
(287,49,o),
(242,49,cs),
(213,49,o),
(203,84,o),
(203,120,cs),
(203,200,o),
(266,254,o),
(329,287,c)
);
},
{
closed = 1;
nodes = (
(185,266,o),
(220,304,o),
(220,351,cs),
(220,398,o),
(185,437,o),
(142,437,cs),
(99,437,o),
(64,398,o),
(64,351,cs),
(64,304,o),
(99,266,o),
(142,266,cs)
);
}
);
width = 575;
},
{
layerId = "C0DC133F-6416-4A48-B531-E298505A9AE1";
rightMetricsKey = "=n-2";
shapes = (
{
closed = 1;
nodes = (
(-1031,628,l),
(-1145,722,o),
(-1292,779,o),
(-1451,779,cs),
(-1814,779,o),
(-2107,485,o),
(-2107,119,cs),
(-2107,-242,o),
(-1823,-536,o),
(-1429,-536,cs),
(-1051,-536,o),
(-757,-281,o),
(-490,-23,cs),
(-232,226,o),
(31,493,o),
(217,493,cs),
(300,493,o),
(322,434,o),
(322,371,cs),
(322,305,l),
(229,242,o),
(32,224,o),
(32,89,cs),
(32,19,o),
(90,-9,o),
(133,-9,cs),
(250,-9,o),
(298,66,o),
(319,168,c),
(319,165,l),
(317,114,ls),
(314,24,o),
(346,-9,o),
(401,-9,cs),
(437,-9,o),
(470,5,o),
(482,30,c),
(480,33,l),
(471,19,o),
(459,12,o),
(441,12,cs),
(408,12,o),
(392,35,o),
(392,110,cs),
(392,335,ls),
(392,424,o),
(346,500,o),
(228,500,cs),
(28,500,o),
(-232,231,o),
(-498,-22,cs),
(-764,-275,o),
(-1062,-530,o),
(-1425,-530,cs),
(-1822,-530,o),
(-2101,-238,o),
(-2101,118,cs),
(-2101,482,o),
(-1810,773,o),
(-1450,773,cs),
(-1292,773,o),
(-1148,717,o),
(-1035,624,c)
);
},
{
closed = 1;
nodes = (
(322,259,ls),
(322,167,o),
(296,28,o),
(184,28,cs),
(123,28,o),
(103,74,o),
(103,109,cs),
(103,204,o),
(234,254,o),
(322,297,c)
);
},
{
closed = 1;
nodes = (
(142,317,o),
(164,344,o),
(164,377,cs),
(164,410,o),
(142,437,o),
(114,437,cs),
(86,437,o),
(65,410,o),
(65,377,cs),
(65,344,o),
(86,317,o),
(114,317,cs)
);
}
);
width = 472;
},
{
layerId = "7291A756-B4B9-4A9F-BCDD-45C2F86033E0";
shapes = (
{
closed = 1;
nodes = (
(-1011,628,l),
(-1125,722,o),
(-1272,779,o),
(-1431,779,cs),
(-1794,779,o),
(-2087,485,o),
(-2087,119,cs),
(-2087,-242,o),
(-1803,-536,o),
(-1409,-536,cs),
(-1031,-536,o),
(-733,-282,o),
(-467,-24,cs),
(-210,226,o),
(10,492,o),
(231,492,cs),
(307,492,o),
(325,453,o),
(325,385,cs),
(325,301,l),
(212,236,o),
(16,221,o),
(16,96,cs),
(16,19,o),
(90,-9,o),
(146,-9,cs),
(250,-9,o),
(302,57,o),
(323,163,c),
(328,163,l),
(327,151,l),
(327,42,o),
(361,-9,o),
(445,-9,cs),
(488,-9,o),
(534,5,o),
(552,43,c),
(548,49,l),
(543,38,o),
(538,34,o),
(532,34,cs),
(519,34,o),
(515,52,o),
(515,110,cs),
(515,268,ls),
(515,455,o),
(418,503,o),
(260,503,cs),
(10,503,o),
(-208,239,o),
(-478,-22,cs),
(-742,-278,o),
(-1042,-530,o),
(-1405,-530,cs),
(-1802,-530,o),
(-2081,-238,o),
(-2081,118,cs),
(-2081,482,o),
(-1790,773,o),
(-1430,773,cs),
(-1272,773,o),
(-1128,717,o),
(-1015,624,c)
);
},
{
closed = 1;
nodes = (
(325,259,ls),
(325,119,o),
(283,49,o),
(238,49,cs),
(209,49,o),
(199,84,o),
(199,120,cs),
(199,200,o),
(262,257,o),
(325,290,c)
);
},
{
closed = 1;
nodes = (
(181,266,o),
(216,304,o),
(216,351,cs),
(216,398,o),
(181,437,o),
(138,437,cs),
(95,437,o),
(60,398,o),
(60,351,cs),
(60,304,o),
(95,266,o),
(138,266,cs)
);
}
);
width = 568;
},
{
layerId = "EC8E161F-9AB2-4247-A7F5-C9BB1661FF9D";
shapes = (
{
closed = 1;
nodes = (
(-1020,628,l),
(-1134,722,o),
(-1281,779,o),
(-1440,779,cs),
(-1803,779,o),
(-2096,485,o),
(-2096,119,cs),
(-2096,-242,o),
(-1812,-536,o),
(-1418,-536,cs),
(-1040,-536,o),
(-745,-279,o),
(-476,-23,cs),
(-218,222,o),
(31,487,o),
(228,487,cs),
(311,487,o),
(333,430,o),
(333,371,cs),
(333,306,l),
(245,243,o),
(39,224,o),
(39,89,cs),
(39,19,o),
(97,-9,o),
(140,-9,cs),
(240,-9,o),
(300,55,o),
(327,155,c),
(329,156,l),
(328,114,l),
(322,24,o),
(357,-9,o),
(412,-9,cs),
(448,-9,o),
(481,5,o),
(493,30,c),
(488,39,l),
(479,25,o),
(467,18,o),
(449,18,cs),
(417,18,o),
(403,39,o),
(403,110,cs),
(403,335,ls),
(403,424,o),
(357,500,o),
(239,500,cs),
(39,500,o),
(-224,229,o),
(-490,-22,cs),
(-756,-273,o),
(-1051,-524,o),
(-1414,-524,cs),
(-1809,-524,o),
(-2084,-235,o),
(-2084,119,cs),
(-2084,481,o),
(-1798,767,o),
(-1440,767,cs),
(-1282,767,o),
(-1137,712,o),
(-1024,616,c)
);
},
{
closed = 1;
nodes = (
(333,270,ls),
(333,109,o),
(244,28,o),
(189,28,cs),
(128,28,o),
(108,74,o),
(108,109,cs),
(108,204,o),
(251,245,o),
(333,288,c)
);
},
{
closed = 1;
nodes = (
(130,296,o),
(152,323,o),
(152,356,cs),
(152,389,o),
(130,416,o),
(102,416,cs),
(74,416,o),
(53,389,o),
(53,356,cs),
(53,323,o),
(74,296,o),
(102,296,cs)
);
}
);
width = 486;
},
{
layerId = "1188AF94-4382-4C0E-9F0C-F5AE7B488C11";
shapes = (
{
closed = 1;
nodes = (
(-1007,628,l),
(-1121,722,o),
(-1268,779,o),
(-1427,779,cs),
(-1790,779,o),
(-2083,485,o),
(-2083,119,cs),
(-2083,-242,o),
(-1799,-536,o),
(-1405,-536,cs),
(-1027,-536,o),
(-731,-280,o),
(-463,-24,cs),
(-205,222,o),
(22,486,o),
(237,486,cs),
(311,486,o),
(329,449,o),
(329,385,cs),
(329,301,l),
(216,236,o),
(20,221,o),
(20,96,cs),
(20,19,o),
(94,-9,o),
(150,-9,cs),
(254,-9,o),
(306,57,o),
(327,163,c),
(336,163,l),
(335,151,l),
(334,42,o),
(365,-9,o),
(449,-9,cs),
(492,-9,o),
(538,5,o),
(556,43,c),
(551,52,l),
(546,41,o),
(541,37,o),
(535,37,cs),
(522,37,o),
(519,54,o),
(519,110,cs),
(519,268,ls),
(519,455,o),
(422,503,o),
(264,503,cs),
(29,503,o),
(-203,238,o),
(-474,-22,cs),
(-738,-276,o),
(-1038,-526,o),
(-1401,-526,cs),
(-1796,-526,o),
(-2073,-236,o),
(-2073,118,cs),
(-2073,480,o),
(-1784,769,o),
(-1426,769,cs),
(-1268,769,o),
(-1124,711,o),
(-1011,616,c)
);
},
{
closed = 1;
nodes = (
(329,280,ls),
(329,140,o),
(287,49,o),
(242,49,cs),
(213,49,o),
(203,84,o),
(203,120,cs),
(203,200,o),
(266,254,o),
(329,287,c)
);
},
{
closed = 1;
nodes = (
(185,266,o),
(220,304,o),
(220,351,cs),
(220,398,o),
(185,437,o),
(142,437,cs),
(99,437,o),
(64,398,o),
(64,351,cs),
(64,304,o),
(99,266,o),
(142,266,cs)
);
}
);
width = 575;
},
{
layerId = "DFD7F247-A6A1-4633-91D9-01055A0B6A1B";
rightMetricsKey = "=n-2";
shapes = (
{
closed = 1;
nodes = (
(-1031,628,l),
(-1145,722,o),
(-1292,779,o),
(-1451,779,cs),
(-1814,779,o),
(-2107,485,o),
(-2107,119,cs),
(-2107,-242,o),
(-1823,-536,o),
(-1429,-536,cs),
(-1051,-536,o),
(-757,-281,o),
(-490,-23,cs),
(-232,226,o),
(31,493,o),
(217,493,cs),
(300,493,o),
(322,434,o),
(322,371,cs),
(322,305,l),
(229,242,o),
(32,224,o),
(32,89,cs),
(32,19,o),
(90,-9,o),
(133,-9,cs),
(250,-9,o),
(298,66,o),
(319,168,c),
(319,165,l),
(317,114,ls),
(314,24,o),
(346,-9,o),
(401,-9,cs),
(437,-9,o),
(470,5,o),
(482,30,c),
(480,33,l),
(471,19,o),
(459,12,o),
(441,12,cs),
(408,12,o),
(392,35,o),
(392,110,cs),
(392,335,ls),
(392,424,o),
(346,500,o),
(228,500,cs),
(28,500,o),
(-232,231,o),
(-498,-22,cs),
(-764,-275,o),
(-1062,-530,o),
(-1425,-530,cs),
(-1822,-530,o),
(-2101,-238,o),
(-2101,118,cs),
(-2101,482,o),
(-1810,773,o),
(-1450,773,cs),
(-1292,773,o),
(-1148,717,o),
(-1035,624,c)
);
},
{
closed = 1;
nodes = (
(322,259,ls),
(322,167,o),
(296,28,o),
(184,28,cs),
(123,28,o),
(103,74,o),
(103,109,cs),
(103,204,o),
(234,254,o),
(322,297,c)
);
},
{
closed = 1;
nodes = (
(142,317,o),
(164,344,o),
(164,377,cs),
(164,410,o),
(142,437,o),
(114,437,cs),
(86,437,o),
(65,410,o),
(65,377,cs),
(65,344,o),
(86,317,o),
(114,317,cs)
);
}
);
width = 472;
},
{
layerId = "7DF38E59-3B01-4CE0-9463-5B164C18123B";
shapes = (
{
closed = 1;
nodes = (
(-1011,628,l),
(-1125,722,o),
(-1272,779,o),
(-1431,779,cs),
(-1794,779,o),
(-2087,485,o),
(-2087,119,cs),
(-2087,-242,o),
(-1803,-536,o),
(-1409,-536,cs),
(-1031,-536,o),
(-733,-282,o),
(-467,-24,cs),
(-210,226,o),
(10,492,o),
(231,492,cs),
(307,492,o),
(325,453,o),
(325,385,cs),
(325,301,l),
(214,236,o),
(22,221,o),
(22,96,cs),
(22,19,o),
(96,-9,o),
(152,-9,cs),
(252,-9,o),
(303,57,o),
(323,163,c),
(328,163,l),
(327,151,l),
(327,42,o),
(361,-9,o),
(445,-9,cs),
(488,-9,o),
(534,5,o),
(552,43,c),
(548,49,l),
(543,38,o),
(538,34,o),
(532,34,cs),
(519,34,o),
(515,52,o),
(515,110,cs),
(515,268,ls),
(515,455,o),
(418,503,o),
(260,503,cs),
(10,503,o),
(-208,239,o),
(-478,-22,cs),
(-742,-278,o),
(-1042,-530,o),
(-1405,-530,cs),
(-1802,-530,o),
(-2081,-238,o),
(-2081,118,cs),
(-2081,482,o),
(-1790,773,o),
(-1430,773,cs),
(-1272,773,o),
(-1128,717,o),
(-1015,624,c)
);
},
{
closed = 1;
nodes = (
(325,266,ls),
(325,126,o),
(286,49,o),
(244,49,cs),
(215,49,o),
(205,84,o),
(205,120,cs),
(205,200,o),
(265,257,o),
(325,290,c)
);
},
{
closed = 1;
nodes = (
(181,266,o),
(216,304,o),
(216,351,cs),
(216,398,o),
(181,437,o),
(138,437,cs),
(95,437,o),
(60,398,o),
(60,351,cs),
(60,304,o),
(95,266,o),
(138,266,cs)
);
}
);
width = 568;
}
);
leftKerningGroup = _kern1;
rightKerningGroup = _kern1;
},
{
color = (153, 255, 154, 255);
glyphname = a.8.acc;
layers = (
{
layerId = "4C496422-9EE2-4715-A1C6-14E7C06350A7";
rightMetricsKey = a;
shapes = (
{
closed = 1;
nodes = (
(56,500,o),
(-203,256,o),
(-470,-22,cs),
(-714,-276,o),
(-1034,-486,o),
(-1397,-486,cs),
(-1793,-486,o),
(-2071,-214,o),
(-2071,117,cs),
(-2071,479,o),
(-1781,767,o),
(-1421,767,cs),
(-1263,767,o),
(-1121,711,o),
(-1008,619,c),
(-1003,628,l),
(-1117,722,o),
(-1264,779,o),
(-1423,779,cs),
(-1787,779,o),
(-2081,485,o),
(-2081,119,cs),
(-2081,-285,o),
(-1773,-576,o),
(-1397,-576,cs),
(-1020,-576,o),
(-729,-299,o),
(-461,-23,cs),
(-213,232,o),
(53,487,o),
(245,487,cs),
(328,487,o),
(350,430,o),
(350,371,cs),
(350,306,l),
(262,243,o),
(56,224,o),
(56,89,cs),
(56,19,o),
(112,-9,o),
(165,-9,cs),
(263,-9,o),
(318,54,o),
(344,154,c),
(347,172,l),
(345,114,l),
(339,24,o),
(374,-9,o),
(429,-9,cs),
(465,-9,o),
(498,5,o),
(510,30,c),
(505,39,l),
(496,25,o),
(484,18,o),
(466,18,cs),
(434,18,o),
(420,39,o),
(420,110,cs),
(420,335,ls),
(420,424,o),
(374,500,o),
(256,500,cs)
);
},
{
closed = 1;
nodes = (
(350,270,ls),
(350,109,o),
(261,28,o),
(206,28,cs),
(145,28,o),
(125,74,o),
(125,109,cs),
(125,204,o),
(268,245,o),
(350,288,c)
);
},
{
closed = 1;
nodes = (
(147,296,o),
(169,323,o),
(169,356,cs),
(169,389,o),
(147,416,o),
(119,416,cs),
(91,416,o),
(70,389,o),
(70,356,cs),
(70,323,o),
(91,296,o),
(119,296,cs)
);
}
);
width = 509;
},
{
layerId = "90062726-3AC9-4659-AA20-F783A3D8E853";
shapes = (
{
closed = 1;
nodes = (
(28,503,o),
(-197,270,o),
(-474,-22,cs),
(-713,-274,o),
(-1039,-471,o),
(-1402,-471,cs),
(-1798,-471,o),
(-2076,-205,o),
(-2076,117,cs),
(-2076,479,o),
(-1786,767,o),
(-1426,767,cs),
(-1268,767,o),
(-1126,711,o),
(-1013,619,c),
(-1008,628,l),
(-1122,722,o),
(-1269,779,o),
(-1428,779,cs),
(-1792,779,o),
(-2086,485,o),
(-2086,119,cs),
(-2086,-273,o),
(-1800,-591,o),
(-1404,-591,cs),
(-1027,-591,o),
(-728,-309,o),
(-461,-24,cs),
(-217,236,o),
(15,486,o),
(236,486,cs),
(310,486,o),
(328,449,o),
(328,385,cs),
(328,301,l),
(215,236,o),
(19,221,o),
(19,96,cs),
(19,19,o),
(93,-9,o),
(149,-9,cs),
(253,-9,o),
(305,57,o),
(326,163,c),
(331,163,l),
(330,151,l),
(330,42,o),
(364,-9,o),
(448,-9,cs),
(491,-9,o),
(537,5,o),
(555,43,c),
(549,52,l),
(544,41,o),
(539,37,o),
(533,37,cs),
(521,37,o),
(518,54,o),
(518,110,cs),
(518,268,ls),
(518,455,o),
(421,503,o),
(263,503,cs)
);
},
{
closed = 1;
nodes = (
(328,280,ls),
(328,140,o),
(286,49,o),
(241,49,cs),
(212,49,o),
(202,84,o),
(202,120,cs),
(202,200,o),
(265,254,o),
(328,287,c)
);
},
{
closed = 1;
nodes = (
(184,266,o),
(219,304,o),
(219,351,cs),
(219,398,o),
(184,437,o),
(141,437,cs),
(98,437,o),
(63,398,o),
(63,351,cs),
(63,304,o),
(98,266,o),
(141,266,cs)
);
}
);
width = 574;
},
{
layerId = "C0DC133F-6416-4A48-B531-E298505A9AE1";
rightMetricsKey = "=n-2";
shapes = (
{
closed = 1;
nodes = (
(49,500,o),
(-210,256,o),
(-477,-22,cs),
(-721,-276,o),
(-1041,-486,o),
(-1404,-486,cs),
(-1802,-486,o),
(-2082,-214,o),
(-2082,119,cs),
(-2082,483,o),
(-1790,775,o),
(-1430,775,cs),
(-1272,775,o),
(-1126,719,o),
(-1013,625,c),
(-1010,628,l),
(-1124,722,o),
(-1271,779,o),
(-1430,779,cs),
(-1793,779,o),
(-2086,485,o),
(-2086,119,cs),
(-2086,-285,o),
(-1779,-576,o),
(-1404,-576,cs),
(-1027,-576,o),
(-735,-301,o),
(-469,-23,cs),
(-221,236,o),
(46,493,o),
(238,493,cs),
(321,493,o),
(343,434,o),
(343,371,cs),
(343,305,l),
(253,242,o),
(47,224,o),
(47,89,cs),
(47,19,o),
(105,-9,o),
(148,-9,cs),
(256,-9,o),
(314,75,o),
(338,176,c),
(340,176,l),
(338,114,ls),
(333,24,o),
(367,-9,o),
(422,-9,cs),
(458,-9,o),
(491,5,o),
(503,30,c),
(501,33,l),
(492,19,o),
(480,12,o),
(462,12,cs),
(429,12,o),
(413,35,o),
(413,110,cs),
(413,335,ls),
(413,424,o),
(367,500,o),
(249,500,cs)
);
},
{
closed = 1;
nodes = (
(343,259,ls),
(343,130,o),
(277,28,o),
(198,28,cs),
(137,28,o),
(117,74,o),
(117,109,cs),
(117,204,o),
(259,254,o),
(343,297,c)
);
},
{
closed = 1;
nodes = (
(148,306,o),
(170,333,o),
(170,366,cs),
(170,399,o),
(148,426,o),
(120,426,cs),
(92,426,o),
(71,399,o),
(71,366,cs),
(71,333,o),
(92,306,o),
(120,306,cs)
);
}
);
width = 493;
},
{
layerId = "7291A756-B4B9-4A9F-BCDD-45C2F86033E0";
shapes = (
{
closed = 1;
nodes = (
(14,503,o),
(-201,270,o),
(-478,-22,cs),
(-717,-274,o),
(-1042,-471,o),
(-1405,-471,cs),
(-1803,-471,o),
(-2083,-205,o),
(-2083,119,cs),
(-2083,483,o),
(-1791,775,o),
(-1431,775,cs),
(-1273,775,o),
(-1127,719,o),
(-1014,625,c),
(-1011,628,l),
(-1125,722,o),
(-1272,779,o),
(-1431,779,cs),
(-1794,779,o),
(-2087,485,o),
(-2087,119,cs),
(-2087,-273,o),
(-1802,-591,o),
(-1407,-591,cs),
(-1030,-591,o),
(-732,-311,o),
(-467,-24,cs),
(-224,240,o),
(10,492,o),
(231,492,cs),
(307,492,o),
(325,453,o),
(325,385,cs),
(325,301,l),
(215,236,o),
(24,221,o),
(24,96,cs),
(24,19,o),
(98,-9,o),
(154,-9,cs),
(253,-9,o),
(303,57,o),
(323,163,c),
(328,163,l),
(327,151,l),
(327,42,o),
(361,-9,o),
(445,-9,cs),
(488,-9,o),
(534,5,o),
(552,43,c),
(548,49,l),
(543,38,o),
(538,34,o),
(532,34,cs),
(519,34,o),
(515,52,o),
(515,110,cs),
(515,268,ls),
(515,455,o),
(418,503,o),
(260,503,cs)
);
},
{
closed = 1;
nodes = (
(325,263,ls),
(325,123,o),
(287,49,o),
(246,49,cs),
(217,49,o),
(207,84,o),
(207,120,cs),
(207,200,o),
(266,257,o),
(325,290,c)
);
},
{
closed = 1;
nodes = (
(181,266,o),
(216,304,o),
(216,351,cs),
(216,398,o),
(181,437,o),
(138,437,cs),
(95,437,o),
(60,398,o),
(60,351,cs),
(60,304,o),
(95,266,o),
(138,266,cs)
);
}
);
width = 568;
},
{
layerId = "EC8E161F-9AB2-4247-A7F5-C9BB1661FF9D";
shapes = (
{
closed = 1;
nodes = (
(39,500,o),
(-224,229,o),
(-490,-22,cs),
(-756,-273,o),
(-1051,-524,o),
(-1414,-524,cs),
(-1809,-524,o),
(-2084,-235,o),
(-2084,119,cs),
(-2084,481,o),
(-1798,767,o),
(-1440,767,cs),
(-1282,767,o),
(-1137,712,o),
(-1024,616,c),
(-1020,628,l),
(-1134,722,o),
(-1281,779,o),
(-1440,779,cs),
(-1803,779,o),
(-2096,485,o),
(-2096,119,cs),
(-2096,-242,o),
(-1812,-536,o),
(-1418,-536,cs),
(-1040,-536,o),
(-745,-279,o),
(-476,-23,cs),
(-218,222,o),
(31,487,o),
(228,487,cs),
(311,487,o),
(333,430,o),
(333,371,cs),
(333,306,l),
(245,243,o),
(39,224,o),
(39,89,cs),
(39,19,o),
(97,-9,o),
(140,-9,cs),
(240,-9,o),
(300,55,o),
(327,155,c),
(329,156,l),
(328,114,l),
(322,24,o),
(357,-9,o),
(412,-9,cs),
(448,-9,o),
(481,5,o),
(493,30,c),
(488,39,l),
(479,25,o),
(467,18,o),
(449,18,cs),
(417,18,o),
(403,39,o),
(403,110,cs),
(403,335,ls),
(403,424,o),
(357,500,o),
(239,500,cs)
);
},
{
closed = 1;
nodes = (
(333,270,ls),
(333,109,o),
(244,28,o),
(189,28,cs),
(128,28,o),
(108,74,o),
(108,109,cs),
(108,204,o),
(251,245,o),
(333,288,c)
);
},
{
closed = 1;
nodes = (
(130,296,o),
(152,323,o),
(152,356,cs),
(152,389,o),
(130,416,o),
(102,416,cs),
(74,416,o),
(53,389,o),
(53,356,cs),
(53,323,o),
(74,296,o),
(102,296,cs)
);
}
);
width = 486;
},
{
layerId = "1188AF94-4382-4C0E-9F0C-F5AE7B488C11";
shapes = (
{
closed = 1;
nodes = (
(29,503,o),
(-203,238,o),
(-474,-22,cs),
(-738,-276,o),
(-1038,-526,o),
(-1401,-526,cs),
(-1796,-526,o),
(-2073,-236,o),
(-2073,118,cs),
(-2073,480,o),
(-1784,769,o),
(-1426,769,cs),
(-1268,769,o),
(-1124,711,o),
(-1011,616,c),
(-1007,628,l),
(-1121,722,o),
(-1268,779,o),
(-1427,779,cs),
(-1790,779,o),
(-2083,485,o),
(-2083,119,cs),
(-2083,-242,o),
(-1799,-536,o),
(-1405,-536,cs),
(-1027,-536,o),
(-731,-280,o),
(-463,-24,cs),
(-205,222,o),
(26,486,o),
(237,486,cs),
(311,486,o),
(329,449,o),
(329,385,cs),
(329,301,l),
(216,236,o),
(20,221,o),
(20,96,cs),
(20,19,o),
(94,-9,o),
(150,-9,cs),
(254,-9,o),
(306,57,o),
(327,163,c),
(336,163,l),
(335,151,l),
(334,42,o),
(365,-9,o),
(449,-9,cs),
(492,-9,o),
(538,5,o),
(556,43,c),
(551,52,l),
(546,41,o),
(541,37,o),
(535,37,cs),
(522,37,o),
(519,54,o),
(519,110,cs),
(519,268,ls),
(519,455,o),
(422,503,o),
(264,503,cs)
);
},
{
closed = 1;
nodes = (
(329,280,ls),
(329,140,o),
(287,49,o),
(242,49,cs),
(213,49,o),
(203,84,o),
(203,120,cs),
(203,200,o),
(266,254,o),
(329,287,c)
);
},
{
closed = 1;
nodes = (
(185,266,o),
(220,304,o),
(220,351,cs),
(220,398,o),
(185,437,o),
(142,437,cs),
(99,437,o),
(64,398,o),
(64,351,cs),
(64,304,o),
(99,266,o),
(142,266,cs)
);
}
);
width = 575;
},
{
layerId = "DFD7F247-A6A1-4633-91D9-01055A0B6A1B";
rightMetricsKey = "=n-2";
shapes = (
{
closed = 1;
nodes = (
(28,500,o),
(-232,231,o),
(-498,-22,cs),
(-764,-275,o),
(-1062,-530,o),
(-1425,-530,cs),
(-1822,-530,o),
(-2101,-238,o),
(-2101,118,cs),
(-2101,482,o),
(-1810,773,o),
(-1450,773,cs),
(-1292,773,o),
(-1148,717,o),
(-1035,624,c),
(-1031,628,l),
(-1145,722,o),
(-1292,779,o),
(-1451,779,cs),
(-1814,779,o),
(-2107,485,o),
(-2107,119,cs),
(-2107,-242,o),
(-1823,-536,o),
(-1429,-536,cs),
(-1051,-536,o),
(-757,-281,o),
(-490,-23,cs),
(-232,226,o),
(31,493,o),
(217,493,cs),
(300,493,o),
(322,434,o),
(322,371,cs),
(322,305,l),
(229,242,o),
(32,224,o),
(32,89,cs),
(32,19,o),
(90,-9,o),
(133,-9,cs),
(250,-9,o),
(298,66,o),
(319,168,c),
(319,165,l),
(317,114,ls),
(314,24,o),
(346,-9,o),
(401,-9,cs),
(437,-9,o),
(470,5,o),
(482,30,c),
(480,33,l),
(471,19,o),
(459,12,o),
(441,12,cs),
(408,12,o),
(392,35,o),
(392,110,cs),
(392,335,ls),
(392,424,o),
(346,500,o),
(228,500,cs)
);
},
{
closed = 1;
nodes = (
(322,259,ls),
(322,167,o),
(296,28,o),
(184,28,cs),
(123,28,o),
(103,74,o),
(103,109,cs),
(103,204,o),
(234,254,o),
(322,297,c)
);
},
{
closed = 1;
nodes = (
(142,317,o),
(164,344,o),
(164,377,cs),
(164,410,o),
(142,437,o),
(114,437,cs),
(86,437,o),
(65,410,o),
(65,377,cs),
(65,344,o),
(86,317,o),
(114,317,cs)
);
}
);
width = 472;
},
{
layerId = "7DF38E59-3B01-4CE0-9463-5B164C18123B";
shapes = (
{
closed = 1;
nodes = (
(10,503,o),
(-208,239,o),
(-478,-22,cs),
(-742,-278,o),
(-1042,-530,o),
(-1405,-530,cs),
(-1802,-530,o),
(-2081,-238,o),
(-2081,118,cs),
(-2081,482,o),
(-1790,773,o),
(-1430,773,cs),
(-1272,773,o),
(-1128,717,o),
(-1015,624,c),
(-1011,628,l),
(-1125,722,o),
(-1272,779,o),
(-1431,779,cs),
(-1794,779,o),
(-2087,485,o),
(-2087,119,cs),
(-2087,-242,o),
(-1803,-536,o),
(-1409,-536,cs),
(-1031,-536,o),
(-733,-282,o),
(-467,-24,cs),
(-210,226,o),
(10,492,o),
(231,492,cs),
(307,492,o),
(325,453,o),
(325,385,cs),
(325,301,l),
(215,236,o),
(24,221,o),
(24,96,cs),
(24,19,o),
(98,-9,o),
(154,-9,cs),
(253,-9,o),
(303,57,o),
(323,163,c),
(328,163,l),
(327,151,l),
(327,42,o),
(361,-9,o),
(445,-9,cs),
(488,-9,o),
(534,5,o),
(552,43,c),
(548,49,l),
(543,38,o),
(538,34,o),
(532,34,cs),
(519,34,o),
(515,52,o),
(515,110,cs),
(515,268,ls),
(515,455,o),
(418,503,o),
(260,503,cs)
);
},
{
closed = 1;
nodes = (
(325,264,ls),
(325,124,o),
(287,49,o),
(246,49,cs),
(217,49,o),
(207,84,o),
(207,120,cs),
(207,200,o),
(266,257,o),
(325,290,c)
);
},
{
closed = 1;
nodes = (
(181,266,o),
(216,304,o),
(216,351,cs),
(216,398,o),
(181,437,o),
(138,437,cs),
(95,437,o),
(60,398,o),
(60,351,cs),
(60,304,o),
(95,266,o),
(138,266,cs)
);
}
);
width = 568;
}
);
leftKerningGroup = _kern1;
rightKerningGroup = _kern1;
},
{
color = (153, 255, 154, 255);
glyphname = a.9;
layers = (
{
layerId = "4C496422-9EE2-4715-A1C6-14E7C06350A7";
shapes = (
{
closed = 1;
nodes = (
(325,307,l),
(232,244,o),
(35,224,o),
(35,89,cs),
(35,19,o),
(93,-7,o),
(136,-9,cs),
(252,-14,o),
(302,65,o),
(323,172,c),
(327,-49,o),
(422,-151,o),
(611,-151,cs),
(800,-151,o),
(897,-21,o),
(897,113,cs),
(897,167,o),
(867,216,o),
(814,216,cs),
(776,216,o),
(750,190,o),
(750,159,cs),
(750,129,o),
(774,102,o),
(811,102,cs),
(840,102,o),
(864,119,o),
(873,140,c),
(878,124,o),
(880,110,o),
(880,92,cs),
(880,-25,o),
(781,-119,o),
(639,-119,cs),
(516,-119,o),
(395,-48,o),
(395,161,cs),
(395,335,ls),
(395,424,o),
(356,500,o),
(238,500,cs),
(124,500,o),
(57,428,o),
(57,356,cs),
(57,326,o),
(69,306,o),
(98,306,cs),
(129,306,o),
(145,330,o),
(145,359,cs),
(145,386,o),
(131,411,o),
(119,422,c),
(140,463,o),
(177,487,o),
(227,487,cs),
(310,487,o),
(325,431,o),
(325,371,cs)
);
},
{
closed = 1;
nodes = (
(325,275,ls),
(325,183,o),
(291,28,o),
(187,28,cs),
(126,28,o),
(106,74,o),
(106,109,cs),
(106,204,o),
(237,245,o),
(325,288,c)
);
}
);
width = 955;
},
{
layerId = "90062726-3AC9-4659-AA20-F783A3D8E853";
shapes = (
{
closed = 1;
nodes = (
(328,301,l),
(215,236,o),
(19,221,o),
(19,96,cs),
(19,19,o),
(93,-9,o),
(149,-9,cs),
(252,-9,o),
(304,60,o),
(325,164,c),
(331,-31,o),
(469,-152,o),
(662,-152,cs),
(867,-152,o),
(984,-14,o),
(984,124,cs),
(984,216,o),
(932,301,o),
(842,301,cs),
(777,301,o),
(733,256,o),
(733,203,cs),
(733,152,o),
(774,105,o),
(837,105,cs),
(886,105,o),
(927,134,o),
(943,171,c),
(951,144,o),
(955,120,o),
(955,94,cs),
(955,-25,o),
(861,-111,o),
(734,-111,cs),
(622,-111,o),
(518,-48,o),
(518,160,cs),
(518,268,ls),
(518,399,o),
(477,500,o),
(292,500,cs),
(127,500,o),
(59,418,o),
(59,351,cs),
(59,299,o),
(87,266,o),
(135,266,cs),
(189,266,o),
(215,310,o),
(215,353,cs),
(215,388,o),
(199,422,o),
(166,437,c),
(177,461,o),
(212,485,o),
(251,485,cs),
(310,485,o),
(328,431,o),
(328,385,cs)
);
},
{
closed = 1;
nodes = (
(328,279,ls),
(328,139,o),
(286,49,o),
(241,49,cs),
(212,49,o),
(202,84,o),
(202,120,cs),
(202,200,o),
(265,254,o),
(328,287,c)
);
}
);
width = 1026;
},
{
layerId = "C0DC133F-6416-4A48-B531-E298505A9AE1";
leftMetricsKey = a;
shapes = (
{
closed = 1;
nodes = (
(322,305,l),
(229,242,o),
(32,224,o),
(32,89,cs),
(32,19,o),
(90,-9,o),
(133,-9,cs),
(256,-9,o),
(299,71,o),
(320,178,c),
(324,-43,o),
(419,-151,o),
(608,-151,cs),
(797,-151,o),
(894,-21,o),
(894,113,cs),
(894,167,o),
(864,216,o),
(811,216,cs),
(773,216,o),
(747,190,o),
(747,159,cs),
(747,129,o),
(771,102,o),
(808,102,cs),
(837,102,o),
(861,119,o),
(870,140,c),
(875,124,o),
(877,110,o),
(877,92,cs),
(877,-38,o),
(778,-141,o),
(636,-141,cs),
(513,-141,o),
(392,-65,o),
(392,161,cs),
(392,335,ls),
(392,424,o),
(353,500,o),
(235,500,cs),
(121,500,o),
(54,428,o),
(54,356,cs),
(54,326,o),
(66,306,o),
(95,306,cs),
(126,306,o),
(142,330,o),
(142,359,cs),
(142,386,o),
(128,411,o),
(116,422,c),
(137,468,o),
(174,495,o),
(224,495,cs),
(307,495,o),
(322,434,o),
(322,371,cs)
);
},
{
closed = 1;
nodes = (
(322,259,ls),
(322,167,o),
(296,28,o),
(184,28,cs),
(123,28,o),
(103,74,o),
(103,109,cs),
(103,204,o),
(234,254,o),
(322,297,c)
);
}
);
width = 949;
},
{
layerId = "7291A756-B4B9-4A9F-BCDD-45C2F86033E0";
shapes = (
{
closed = 1;
nodes = (
(325,301,l),
(212,236,o),
(16,221,o),
(16,96,cs),
(16,19,o),
(90,-9,o),
(146,-9,cs),
(249,-9,o),
(301,60,o),
(322,164,c),
(328,-31,o),
(466,-152,o),
(659,-152,cs),
(864,-152,o),
(981,-14,o),
(981,124,cs),
(981,216,o),
(929,301,o),
(839,301,cs),
(774,301,o),
(730,256,o),
(730,203,cs),
(730,152,o),
(771,105,o),
(834,105,cs),
(883,105,o),
(924,134,o),
(940,171,c),
(948,144,o),
(952,120,o),
(952,94,cs),
(952,-35,o),
(857,-128,o),
(729,-128,cs),
(618,-128,o),
(515,-61,o),
(515,160,cs),
(515,268,ls),
(515,399,o),
(474,500,o),
(289,500,cs),
(124,500,o),
(56,418,o),
(56,351,cs),
(56,299,o),
(84,266,o),
(132,266,cs),
(186,266,o),
(212,310,o),
(212,353,cs),
(212,388,o),
(196,422,o),
(163,437,c),
(174,466,o),
(208,492,o),
(246,492,cs),
(306,492,o),
(325,434,o),
(325,385,cs)
);
},
{
closed = 1;
nodes = (
(325,258,ls),
(325,118,o),
(283,49,o),
(238,49,cs),
(209,49,o),
(199,84,o),
(199,120,cs),
(199,202,o),
(262,260,o),
(325,294,c)
);
}
);
width = 1020;
},
{
layerId = "EC8E161F-9AB2-4247-A7F5-C9BB1661FF9D";
shapes = (
{
closed = 1;
nodes = (
(325,307,l),
(232,244,o),
(35,224,o),
(35,89,cs),
(35,19,o),
(93,-7,o),
(136,-9,cs),
(252,-14,o),
(302,65,o),
(323,172,c),
(327,-49,o),
(422,-151,o),
(611,-151,cs),
(800,-151,o),
(897,-21,o),
(897,113,cs),
(897,167,o),
(867,216,o),
(814,216,cs),
(776,216,o),
(750,190,o),
(750,159,cs),
(750,129,o),
(774,102,o),
(811,102,cs),
(840,102,o),
(864,119,o),
(873,140,c),
(878,124,o),
(880,110,o),
(880,92,cs),
(880,-25,o),
(781,-119,o),
(639,-119,cs),
(516,-119,o),
(395,-48,o),
(395,161,cs),
(395,335,ls),
(395,424,o),
(356,500,o),
(238,500,cs),
(124,500,o),
(57,428,o),
(57,356,cs),
(57,326,o),
(69,306,o),
(98,306,cs),
(129,306,o),
(145,330,o),
(145,359,cs),
(145,386,o),
(131,411,o),
(119,422,c),
(140,463,o),
(177,487,o),
(227,487,cs),
(310,487,o),
(325,431,o),
(325,371,cs)
);
},
{
closed = 1;
nodes = (
(325,275,ls),
(325,183,o),
(291,28,o),
(187,28,cs),
(126,28,o),
(106,74,o),
(106,109,cs),
(106,204,o),
(237,245,o),
(325,288,c)
);
}
);
width = 955;
},
{
layerId = "1188AF94-4382-4C0E-9F0C-F5AE7B488C11";
shapes = (
{
closed = 1;
nodes = (
(328,301,l),
(215,236,o),
(19,221,o),
(19,96,cs),
(19,19,o),
(93,-9,o),
(149,-9,cs),
(252,-9,o),
(304,60,o),
(325,164,c),
(331,-31,o),
(469,-152,o),
(662,-152,cs),
(867,-152,o),
(984,-14,o),
(984,124,cs),
(984,216,o),
(932,301,o),
(842,301,cs),
(777,301,o),
(733,256,o),
(733,203,cs),
(733,152,o),
(774,105,o),
(837,105,cs),
(886,105,o),
(927,134,o),
(943,171,c),
(951,144,o),
(955,120,o),
(955,94,cs),
(955,-25,o),
(861,-111,o),
(734,-111,cs),
(622,-111,o),
(518,-48,o),
(518,160,cs),
(518,268,ls),
(518,399,o),
(477,500,o),
(292,500,cs),
(127,500,o),
(59,418,o),
(59,351,cs),
(59,299,o),
(87,266,o),
(135,266,cs),
(189,266,o),
(215,310,o),
(215,353,cs),
(215,388,o),
(199,422,o),
(166,437,c),
(177,461,o),
(212,485,o),
(251,485,cs),
(310,485,o),
(328,431,o),
(328,385,cs)
);
},
{
closed = 1;
nodes = (
(328,279,ls),
(328,139,o),
(286,49,o),
(241,49,cs),
(212,49,o),
(202,84,o),
(202,120,cs),
(202,200,o),
(265,254,o),
(328,287,c)
);
}
);
width = 1026;
},
{
layerId = "DFD7F247-A6A1-4633-91D9-01055A0B6A1B";
leftMetricsKey = a;
shapes = (
{
closed = 1;
nodes = (
(322,305,l),
(229,242,o),
(32,224,o),
(32,89,cs),
(32,19,o),
(90,-9,o),
(133,-9,cs),
(256,-9,o),
(299,71,o),
(320,178,c),
(324,-43,o),
(419,-151,o),
(608,-151,cs),
(797,-151,o),
(894,-21,o),
(894,113,cs),
(894,167,o),
(864,216,o),
(811,216,cs),
(773,216,o),
(747,190,o),
(747,159,cs),
(747,129,o),
(771,102,o),
(808,102,cs),
(837,102,o),
(861,119,o),
(870,140,c),
(875,124,o),
(877,110,o),
(877,92,cs),
(877,-38,o),
(778,-141,o),
(636,-141,cs),
(513,-141,o),
(392,-65,o),
(392,161,cs),
(392,335,ls),
(392,424,o),
(353,500,o),
(235,500,cs),
(121,500,o),
(54,428,o),
(54,356,cs),
(54,326,o),
(66,306,o),
(95,306,cs),
(126,306,o),
(142,330,o),
(142,359,cs),
(142,386,o),
(128,411,o),
(116,422,c),
(137,468,o),
(174,495,o),
(224,495,cs),
(307,495,o),
(322,434,o),
(322,371,cs)
);
},
{
closed = 1;
nodes = (
(322,259,ls),
(322,167,o),
(296,28,o),
(184,28,cs),
(123,28,o),
(103,74,o),
(103,109,cs),
(103,204,o),
(234,254,o),
(322,297,c)
);
}
);
width = 949;
},
{
layerId = "7DF38E59-3B01-4CE0-9463-5B164C18123B";
shapes = (
{
closed = 1;
nodes = (
(317,301,l),
(207,236,o),
(16,221,o),
(16,96,cs),
(16,19,o),
(90,-9,o),
(146,-9,cs),
(244,-9,o),
(294,60,o),
(314,164,c),
(320,-31,o),
(458,-152,o),
(651,-152,cs),
(856,-152,o),
(973,-14,o),
(973,124,cs),
(973,216,o),
(921,301,o),
(831,301,cs),
(766,301,o),
(722,256,o),
(722,203,cs),
(722,152,o),
(763,105,o),
(826,105,cs),
(875,105,o),
(916,134,o),
(932,171,c),
(940,144,o),
(944,120,o),
(944,94,cs),
(944,-35,o),
(849,-128,o),
(721,-128,cs),
(610,-128,o),
(507,-61,o),
(507,160,cs),
(507,268,ls),
(507,399,o),
(466,500,o),
(281,500,cs),
(116,500,o),
(48,418,o),
(48,351,cs),
(48,299,o),
(76,266,o),
(124,266,cs),
(178,266,o),
(204,310,o),
(204,353,cs),
(204,388,o),
(188,422,o),
(155,437,c),
(166,466,o),
(200,492,o),
(238,492,cs),
(298,492,o),
(317,434,o),
(317,385,cs)
);
},
{
closed = 1;
nodes = (
(317,269,ls),
(317,129,o),
(279,49,o),
(238,49,cs),
(209,49,o),
(199,84,o),
(199,120,cs),
(199,202,o),
(258,260,o),
(317,294,c)
);
}
);
width = 1012;
}
);
},
{
color = (255, 153, 153, 255);
glyphname = b;
layers = (
{
layerId = "4C496422-9EE2-4715-A1C6-14E7C06350A7";
shapes = (
{
closed = 1;
nodes = (
(63,-9,ls),
(63,-13,o),
(65,-14,o),
(67,-14,c),
(77,-14,o),
(64,42,o),
(102,42,cs),
(136,42,o),
(169,-7,o),
(262,-7,cs),
(407,-7,o),
(477,122,o),
(477,258,cs),
(477,390,o),
(409,500,o),
(281,500,cs),
(205,500,o),
(148,444,o),
(133,392,c),
(130,379,o),
(130,387,o),
(130,394,cs),
(130,461,l),
(130,721,l),
(-14,692,l),
(-14,684,l),
(36,684,o),
(63,688,o),
(63,625,cs)
);
},
{
closed = 1;
nodes = (
(175,8,o),
(135,50,o),
(135,144,cs),
(135,302,ls),
(135,382,o),
(158,478,o),
(265,478,cs),
(393,478,o),
(403,341,o),
(403,258,cs),
(403,34,o),
(333,8,o),
(262,8,cs)
);
}
);
width = 508;
},
{
layerId = "90062726-3AC9-4659-AA20-F783A3D8E853";
shapes = (
{
closed = 1;
nodes = (
(68,-9,ls),
(68,-13,o),
(70,-14,o),
(72,-14,c),
(78,-14,o),
(72,40,o),
(131,40,cs),
(187,40,o),
(214,-7,o),
(330,-7,cs),
(448,-7,o),
(595,56,o),
(595,265,cs),
(595,397,o),
(506,500,o),
(391,500,cs),
(314,500,o),
(278,460,o),
(264,404,cs),
(261,391,o),
(253,392,o),
(254,399,cs),
(259,468,l),
(259,721,l),
(-9,691,l),
(-9,682,l),
(47,682,o),
(68,686,o),
(68,634,cs)
);
},
{
closed = 1;
nodes = (
(285,5,o),
(266,47,o),
(266,111,cs),
(266,319,ls),
(266,376,o),
(278,466,o),
(336,466,cs),
(388,466,o),
(394,417,o),
(394,246,cs),
(394,32,o),
(376,5,o),
(327,5,cs)
);
}
);
width = 622;
},
{
hints = (
{
horizontal = 1;
place = (-6,21);
target = up;
type = BottomGhost;
},
{
horizontal = 1;
place = (736,-20);
target = down;
type = TopGhost;
},
{
place = (71,207);
type = Stem;
},
{
place = (397,201);
type = Stem;
}
);
layerId = "C0DC133F-6416-4A48-B531-E298505A9AE1";
leftMetricsKey = l;
shapes = (
{
closed = 1;
nodes = (
(65,-9,ls),
(65,-13,o),
(67,-14,o),
(69,-14,c),
(74,-14,o),
(64,63,o),
(102,63,cs),
(136,63,o),
(152,-9,o),
(256,-9,cs),
(401,-9,o),
(474,122,o),
(474,258,cs),
(474,399,o),
(406,500,o),
(278,500,cs),
(202,500,o),
(145,446,o),
(130,385,cs),
(127,372,o),
(127,387,o),
(127,394,cs),
(127,461,l),
(127,721,l),
(-12,687,l),
(-12,684,l),
(41,684,o),
(65,676,o),
(65,634,cs)
);
},
{
closed = 1;
nodes = (
(174,-5,o),
(132,43,o),
(132,144,cs),
(132,319,ls),
(132,408,o),
(187,495,o),
(269,495,cs),
(390,495,o),
(400,348,o),
(400,258,cs),
(400,34,o),
(332,-5,o),
(261,-5,cs)
);
}
);
width = 502;
},
{
hints = (
{
horizontal = 1;
place = (-6,21);
target = up;
type = BottomGhost;
},
{
horizontal = 1;
place = (736,-20);
target = down;
type = TopGhost;
},
{
place = (81,207);
type = Stem;
},
{
place = (407,201);
type = Stem;
}
);
layerId = "7291A756-B4B9-4A9F-BCDD-45C2F86033E0";
shapes = (
{
closed = 1;
nodes = (
(65,-9,ls),
(65,-13,o),
(64,-14,o),
(66,-14,c),
(72,-14,o),
(66,50,o),
(125,50,cs),
(181,50,o),
(206,-8,o),
(327,-8,cs),
(445,-8,o),
(592,56,o),
(592,265,cs),
(592,401,o),
(503,500,o),
(388,500,cs),
(311,500,o),
(274,461,o),
(261,401,cs),
(260,397,o),
(258,395,o),
(258,399,cs),
(258,465,l),
(258,721,l),
(-12,685,l),
(-12,682,l),
(44,682,o),
(65,686,o),
(65,634,cs)
);
},
{
closed = 1;
nodes = (
(282,-3,o),
(263,45,o),
(263,111,cs),
(263,349,ls),
(263,410,o),
(285,478,o),
(336,478,cs),
(385,478,o),
(391,423,o),
(391,246,cs),
(391,28,o),
(373,-3,o),
(324,-3,cs)
);
}
);
width = 616;
},
{
layerId = "EC8E161F-9AB2-4247-A7F5-C9BB1661FF9D";
shapes = (
{
closed = 1;
nodes = (
(63,-9,ls),
(63,-13,o),
(65,-14,o),
(67,-14,c),
(77,-14,o),
(64,42,o),
(102,42,cs),
(136,42,o),
(169,-7,o),
(262,-7,cs),
(407,-7,o),
(477,122,o),
(477,258,cs),
(477,390,o),
(409,500,o),
(281,500,cs),
(205,500,o),
(148,444,o),
(133,392,c),
(130,379,o),
(130,387,o),
(130,394,cs),
(130,461,l),
(130,721,l),
(-14,692,l),
(-14,684,l),
(36,684,o),
(63,688,o),
(63,625,cs)
);
},
{
closed = 1;
nodes = (
(175,8,o),
(135,50,o),
(135,144,cs),
(135,302,ls),
(135,382,o),
(158,478,o),
(265,478,cs),
(393,478,o),
(403,341,o),
(403,258,cs),
(403,34,o),
(333,8,o),
(262,8,cs)
);
}
);
width = 508;
},
{
layerId = "1188AF94-4382-4C0E-9F0C-F5AE7B488C11";
shapes = (
{
closed = 1;
nodes = (
(68,-9,ls),
(68,-13,o),
(70,-14,o),
(72,-14,c),
(78,-14,o),
(72,40,o),
(131,40,cs),
(187,40,o),
(214,-7,o),
(330,-7,cs),
(448,-7,o),
(595,56,o),
(595,265,cs),
(595,397,o),
(506,500,o),
(391,500,cs),
(314,500,o),
(278,460,o),
(264,404,cs),
(261,391,o),
(253,392,o),
(254,399,cs),
(259,468,l),
(259,721,l),
(-9,691,l),
(-9,682,l),
(47,682,o),
(68,686,o),
(68,634,cs)
);
},
{
closed = 1;
nodes = (
(285,5,o),
(266,47,o),
(266,111,cs),
(266,319,ls),
(266,376,o),
(278,466,o),
(336,466,cs),
(388,466,o),
(394,417,o),
(394,246,cs),
(394,32,o),
(376,5,o),
(327,5,cs)
);
}
);
width = 622;
},
{
hints = (
{
horizontal = 1;
place = (-6,21);
target = up;
type = BottomGhost;
},
{
horizontal = 1;
place = (736,-20);
target = down;
type = TopGhost;
},
{
place = (71,207);
type = Stem;
},
{
place = (397,201);
type = Stem;
}
);
layerId = "DFD7F247-A6A1-4633-91D9-01055A0B6A1B";
leftMetricsKey = l;
shapes = (
{
closed = 1;
nodes = (
(65,-9,ls),
(65,-13,o),
(67,-14,o),
(69,-14,c),
(74,-14,o),
(64,63,o),
(102,63,cs),
(136,63,o),
(152,-9,o),
(256,-9,cs),
(401,-9,o),
(474,122,o),
(474,258,cs),
(474,399,o),
(406,500,o),
(278,500,cs),
(202,500,o),
(145,446,o),
(130,385,cs),
(127,372,o),
(127,387,o),
(127,394,cs),
(127,461,l),
(127,721,l),
(-12,687,l),
(-12,684,l),
(41,684,o),
(65,676,o),
(65,634,cs)
);
},
{
closed = 1;
nodes = (
(174,-5,o),
(132,43,o),
(132,144,cs),
(132,319,ls),
(132,408,o),
(187,495,o),
(269,495,cs),
(390,495,o),
(400,348,o),
(400,258,cs),
(400,34,o),
(332,-5,o),
(261,-5,cs)
);
}
);
width = 502;
},
{
hints = (
{
horizontal = 1;
place = (-6,21);
target = up;
type = BottomGhost;
},
{
horizontal = 1;
place = (736,-20);
target = down;
type = TopGhost;
},
{
place = (81,207);
type = Stem;
},
{
place = (407,201);
type = Stem;
}
);
layerId = "7DF38E59-3B01-4CE0-9463-5B164C18123B";
shapes = (
{
closed = 1;
nodes = (
(65,-9,ls),
(65,-13,o),
(64,-14,o),
(66,-14,c),
(72,-14,o),
(66,50,o),
(125,50,cs),
(181,50,o),
(206,-8,o),
(327,-8,cs),
(445,-8,o),
(592,56,o),
(592,265,cs),
(592,401,o),
(503,500,o),
(388,500,cs),
(311,500,o),
(274,461,o),
(261,401,cs),
(260,397,o),
(258,395,o),
(258,399,cs),
(258,465,l),
(258,721,l),
(-12,685,l),
(-12,682,l),
(44,682,o),
(65,686,o),
(65,634,cs)
);
},
{
closed = 1;
nodes = (
(282,-3,o),
(263,45,o),
(263,111,cs),
(263,349,ls),
(263,410,o),
(285,478,o),
(336,478,cs),
(385,478,o),
(391,423,o),
(391,246,cs),
(391,28,o),
(373,-3,o),
(324,-3,cs)
);
}
);
width = 616;
}
);
unicode = 98;
},
{
color = (153, 255, 154, 255);
glyphname = b.6;
layers = (
{
layerId = "4C496422-9EE2-4715-A1C6-14E7C06350A7";
shapes = (
{
closed = 1;
nodes = (
(299,-192,l),
(433,-314,o),
(613,-389,o),
(810,-389,cs),
(1250,-389,o),
(1604,-29,o),
(1604,421,cs),
(1604,878,o),
(1245,1243,o),
(797,1243,cs),
(401,1243,o),
(70,923,o),
(70,517,cs),
(70,-9,ls),
(70,-13,o),
(72,-14,o),
(74,-14,c),
(79,-14,o),
(69,42,o),
(106,42,cs),
(141,42,o),
(166,-7,o),
(257,-7,cs),
(404,-7,o),
(479,122,o),
(479,258,cs),
(479,390,o),
(411,500,o),
(283,500,cs),
(218,500,o),
(162,459,o),
(138,417,cs),
(137,415,o),
(137,416,o),
(137,421,cs),
(137,549,l),
(137,617,ls),
(137,975,o),
(467,1226,o),
(799,1226,cs),
(1237,1226,o),
(1592,869,o),
(1592,421,cs),
(1592,-21,o),
(1242,-376,o),
(810,-376,cs),
(617,-376,o),
(442,-303,o),
(308,-182,c)
);
},
{
closed = 1;
nodes = (
(181,7,o),
(137,62,o),
(137,120,cs),
(137,319,ls),
(137,399,o),
(160,478,o),
(267,478,cs),
(395,478,o),
(405,341,o),
(405,258,cs),
(405,37,o),
(333,7,o),
(268,7,cs)
);
}
);
width = 510;
},
{
layerId = "90062726-3AC9-4659-AA20-F783A3D8E853";
shapes = (
{
closed = 1;
nodes = (
(326,-192,l),
(460,-314,o),
(640,-389,o),
(837,-389,cs),
(1277,-389,o),
(1631,-29,o),
(1631,421,cs),
(1631,878,o),
(1272,1243,o),
(824,1243,cs),
(355,1243,o),
(63,923,o),
(63,517,cs),
(63,-9,ls),
(63,-13,o),
(65,-14,o),
(67,-14,c),
(73,-14,o),
(67,40,o),
(126,40,cs),
(182,40,o),
(219,-7,o),
(330,-7,cs),
(448,-7,o),
(595,56,o),
(595,265,cs),
(595,397,o),
(506,500,o),
(391,500,cs),
(314,500,o),
(278,460,o),
(264,404,cs),
(261,391,o),
(253,392,o),
(254,399,cs),
(259,468,l),
(259,617,ls),
(259,975,o),
(497,1226,o),
(826,1226,cs),
(1264,1226,o),
(1619,869,o),
(1619,421,cs),
(1619,-21,o),
(1269,-376,o),
(837,-376,cs),
(644,-376,o),
(469,-303,o),
(335,-182,c)
);
},
{
closed = 1;
nodes = (
(285,5,o),
(266,47,o),
(266,111,cs),
(266,319,ls),
(266,376,o),
(278,466,o),
(336,466,cs),
(388,466,o),
(394,417,o),
(394,246,cs),
(394,32,o),
(376,5,o),
(327,5,cs)
);
}
);
width = 621;
},
{
layerId = "C0DC133F-6416-4A48-B531-E298505A9AE1";
shapes = (
{
closed = 1;
nodes = (
(298,-192,l),
(432,-314,o),
(612,-389,o),
(809,-389,cs),
(1249,-389,o),
(1603,-29,o),
(1603,421,cs),
(1603,878,o),
(1244,1243,o),
(796,1243,cs),
(400,1243,o),
(69,923,o),
(69,517,cs),
(69,-9,ls),
(69,-13,o),
(71,-14,o),
(73,-14,c),
(78,-14,o),
(68,63,o),
(106,63,cs),
(140,63,o),
(156,-9,o),
(260,-9,cs),
(405,-9,o),
(478,122,o),
(478,258,cs),
(478,399,o),
(410,500,o),
(282,500,cs),
(206,500,o),
(149,446,o),
(134,385,cs),
(131,372,o),
(131,387,o),
(131,394,c),
(134,540,l),
(136,617,ls),
(144,979,o),
(468,1236,o),
(800,1236,cs),
(1242,1236,o),
(1599,873,o),
(1599,421,cs),
(1599,-25,o),
(1245,-384,o),
(809,-384,cs),
(616,-384,o),
(436,-310,o),
(302,-189,c)
);
},
{
closed = 1;
nodes = (
(178,-5,o),
(136,43,o),
(136,144,cs),
(136,319,ls),
(136,408,o),
(191,495,o),
(273,495,cs),
(394,495,o),
(404,348,o),
(404,258,cs),
(404,34,o),
(336,-5,o),
(265,-5,cs)
);
}
);
width = 506;
},
{
layerId = "7291A756-B4B9-4A9F-BCDD-45C2F86033E0";
shapes = (
{
closed = 1;
nodes = (
(318,-192,l),
(452,-314,o),
(632,-389,o),
(829,-389,cs),
(1269,-389,o),
(1623,-29,o),
(1623,421,cs),
(1623,878,o),
(1264,1243,o),
(816,1243,cs),
(347,1243,o),
(55,923,o),
(55,517,cs),
(55,-9,ls),
(55,-13,o),
(54,-14,o),
(56,-14,c),
(62,-14,o),
(56,50,o),
(115,50,cs),
(171,50,o),
(196,-6,o),
(317,-6,c),
(435,-1,o),
(582,56,o),
(582,265,cs),
(582,401,o),
(493,500,o),
(378,500,cs),
(301,500,o),
(264,461,o),
(251,401,cs),
(250,397,o),
(249,394,o),
(245,394,c),
(245,540,l),
(245,617,ls),
(245,979,o),
(491,1236,o),
(820,1236,cs),
(1262,1236,o),
(1619,873,o),
(1619,421,cs),
(1619,-25,o),
(1265,-384,o),
(829,-384,cs),
(636,-384,o),
(456,-310,o),
(322,-189,c)
);
},
{
closed = 1;
nodes = (
(263,0,o),
(253,45,o),
(253,111,cs),
(253,348,ls),
(253,409,o),
(275,477,o),
(326,477,cs),
(375,477,o),
(381,420,o),
(381,246,cs),
(381,28,o),
(354,-2,o),
(305,-2,c)
);
}
);
width = 610;
},
{
layerId = "EC8E161F-9AB2-4247-A7F5-C9BB1661FF9D";
shapes = (
{
closed = 1;
nodes = (
(299,-192,l),
(433,-314,o),
(613,-389,o),
(810,-389,cs),
(1250,-389,o),
(1604,-29,o),
(1604,421,cs),
(1604,878,o),
(1245,1243,o),
(797,1243,cs),
(401,1243,o),
(70,923,o),
(70,517,cs),
(70,-9,ls),
(70,-13,o),
(72,-14,o),
(74,-14,c),
(79,-14,o),
(69,42,o),
(106,42,cs),
(141,42,o),
(166,-7,o),
(257,-7,cs),
(404,-7,o),
(479,122,o),
(479,258,cs),
(479,390,o),
(411,500,o),
(283,500,cs),
(218,500,o),
(162,459,o),
(138,417,cs),
(137,415,o),
(137,416,o),
(137,421,cs),
(137,549,l),
(137,617,ls),
(137,975,o),
(467,1226,o),
(799,1226,cs),
(1237,1226,o),
(1592,869,o),
(1592,421,cs),
(1592,-21,o),
(1242,-376,o),
(810,-376,cs),
(617,-376,o),
(442,-303,o),
(308,-182,c)
);
},
{
closed = 1;
nodes = (
(181,7,o),
(137,62,o),
(137,120,cs),
(137,319,ls),
(137,399,o),
(160,478,o),
(267,478,cs),
(395,478,o),
(405,341,o),
(405,258,cs),
(405,37,o),
(333,7,o),
(268,7,cs)
);
}
);
width = 510;
},
{
background = {
shapes = (
{
closed = 0;
nodes = (
(320,-5,l),
(443,0,o),
(590,56,o),
(590,265,cs),
(590,397,o),
(501,500,o),
(386,500,cs),
(314,500,o),
(280,467,o),
(263,416,c),
(263,421,o),
(262,404,o),
(258,396,c)
);
},
{
closed = 1;
nodes = (
(271,8,o),
(261,55,o),
(261,100,cs),
(261,348,ls),
(261,405,o),
(268,469,o),
(331,469,cs),
(383,469,o),
(389,417,o),
(389,246,cs),
(389,32,o),
(362,6,o),
(304,6,c)
);
}
);
};
layerId = "1188AF94-4382-4C0E-9F0C-F5AE7B488C11";
shapes = (
{
closed = 1;
nodes = (
(326,-192,l),
(460,-314,o),
(640,-389,o),
(837,-389,cs),
(1277,-389,o),
(1631,-29,o),
(1631,421,cs),
(1631,878,o),
(1272,1243,o),
(824,1243,cs),
(355,1243,o),
(63,923,o),
(63,517,cs),
(63,-9,ls),
(63,-13,o),
(65,-14,o),
(67,-14,c),
(73,-14,o),
(67,40,o),
(126,40,cs),
(182,40,o),
(219,-7,o),
(330,-7,cs),
(448,-7,o),
(595,56,o),
(595,265,cs),
(595,397,o),
(506,500,o),
(391,500,cs),
(314,500,o),
(278,460,o),
(264,404,cs),
(261,391,o),
(253,392,o),
(254,399,cs),
(259,468,l),
(259,617,ls),
(259,975,o),
(497,1226,o),
(826,1226,cs),
(1264,1226,o),
(1619,869,o),
(1619,421,cs),
(1619,-21,o),
(1269,-376,o),
(837,-376,cs),
(644,-376,o),
(469,-303,o),
(335,-182,c)
);
},
{
closed = 1;
nodes = (
(285,5,o),
(266,47,o),
(266,111,cs),
(266,319,ls),
(266,376,o),
(278,466,o),
(336,466,cs),
(388,466,o),
(394,417,o),
(394,246,cs),
(394,32,o),
(376,5,o),
(327,5,cs)
);
}
);
width = 621;
},
{
layerId = "DFD7F247-A6A1-4633-91D9-01055A0B6A1B";
shapes = (
{
closed = 1;
nodes = (
(298,-192,l),
(432,-314,o),
(612,-389,o),
(809,-389,cs),
(1249,-389,o),
(1603,-29,o),
(1603,421,cs),
(1603,878,o),
(1244,1243,o),
(796,1243,cs),
(400,1243,o),
(69,923,o),
(69,517,cs),
(69,-9,ls),
(69,-13,o),
(71,-14,o),
(73,-14,c),
(78,-14,o),
(68,63,o),
(106,63,cs),
(140,63,o),
(156,-9,o),
(260,-9,cs),
(405,-9,o),
(478,122,o),
(478,258,cs),
(478,399,o),
(410,500,o),
(282,500,cs),
(206,500,o),
(149,446,o),
(134,385,cs),
(131,372,o),
(131,387,o),
(131,394,c),
(134,540,l),
(136,617,ls),
(144,979,o),
(468,1236,o),
(800,1236,cs),
(1242,1236,o),
(1599,873,o),
(1599,421,cs),
(1599,-25,o),
(1245,-384,o),
(809,-384,cs),
(616,-384,o),
(436,-310,o),
(302,-189,c)
);
},
{
closed = 1;
nodes = (
(178,-5,o),
(136,43,o),
(136,144,cs),
(136,319,ls),
(136,408,o),
(191,495,o),
(273,495,cs),
(394,495,o),
(404,348,o),
(404,258,cs),
(404,34,o),
(336,-5,o),
(265,-5,cs)
);
}
);
width = 506;
},
{
layerId = "7DF38E59-3B01-4CE0-9463-5B164C18123B";
shapes = (
{
closed = 1;
nodes = (
(318,-192,l),
(452,-314,o),
(632,-389,o),
(829,-389,cs),
(1269,-389,o),
(1623,-29,o),
(1623,421,cs),
(1623,878,o),
(1264,1243,o),
(816,1243,cs),
(347,1243,o),
(55,923,o),
(55,517,cs),
(55,-9,ls),
(55,-13,o),
(54,-14,o),
(56,-14,c),
(62,-14,o),
(56,50,o),
(115,50,cs),
(171,50,o),
(196,-6,o),
(317,-6,c),
(435,-1,o),
(582,56,o),
(582,265,cs),
(582,401,o),
(493,500,o),
(378,500,cs),
(301,500,o),
(264,461,o),
(251,401,cs),
(250,397,o),
(249,394,o),
(245,394,c),
(245,540,l),
(245,617,ls),
(245,979,o),
(491,1236,o),
(820,1236,cs),
(1262,1236,o),
(1619,873,o),
(1619,421,cs),
(1619,-25,o),
(1265,-384,o),
(829,-384,cs),
(636,-384,o),
(456,-310,o),
(322,-189,c)
);
},
{
closed = 1;
nodes = (
(263,0,o),
(253,45,o),
(253,111,cs),
(253,348,ls),
(253,409,o),
(275,477,o),
(326,477,cs),
(375,477,o),
(381,420,o),
(381,246,cs),
(381,28,o),
(354,-2,o),
(305,-2,c)
);
}
);
width = 610;
}
);
},
{
color = (153, 255, 154, 255);
glyphname = b.44;
layers = (
{
layerId = "4C496422-9EE2-4715-A1C6-14E7C06350A7";
shapes = (
{
closed = 1;
nodes = (
(-2060,453,l),
(-1923,730,o),
(-1640,922,o),
(-1311,922,cs),
(-381,922,o),
(-152,-389,o),
(812,-389,cs),
(1252,-389,o),
(1606,-29,o),
(1606,421,cs),
(1606,878,o),
(1247,1243,o),
(799,1243,cs),
(403,1243,o),
(72,923,o),
(72,517,cs),
(72,-9,ls),
(72,-13,o),
(74,-14,o),
(76,-14,c),
(81,-14,o),
(71,42,o),
(109,42,cs),
(143,42,o),
(169,-7,o),
(250,-7,cs),
(406,-7,o),
(481,122,o),
(481,258,cs),
(481,390,o),
(413,500,o),
(285,500,cs),
(221,500,o),
(169,459,o),
(145,417,cs),
(143,414,o),
(143,421,o),
(143,427,cs),
(143,562,l),
(143,621,ls),
(143,980,o),
(470,1229,o),
(802,1229,cs),
(1240,1229,o),
(1595,870,o),
(1595,421,cs),
(1595,-21,o),
(1244,-377,o),
(812,-377,cs),
(-150,-377,o),
(-365,934,o),
(-1311,934,cs),
(-1644,934,o),
(-1935,737,o),
(-2074,455,c)
);
},
{
closed = 1;
nodes = (
(183,7,o),
(139,62,o),
(139,120,cs),
(139,314,ls),
(139,394,o),
(163,478,o),
(269,478,cs),
(397,478,o),
(407,341,o),
(407,258,cs),
(407,37,o),
(341,7,o),
(250,7,cs)
);
}
);
width = 512;
},
{
layerId = "90062726-3AC9-4659-AA20-F783A3D8E853";
shapes = (
{
closed = 1;
nodes = (
(-2035,453,l),
(-1898,730,o),
(-1613,922,o),
(-1284,922,cs),
(-354,922,o),
(-132,-389,o),
(839,-389,cs),
(1279,-389,o),
(1633,-29,o),
(1633,421,cs),
(1633,878,o),
(1274,1243,o),
(826,1243,cs),
(357,1243,o),
(65,923,o),
(65,517,cs),
(65,-9,ls),
(65,-13,o),
(67,-14,o),
(69,-14,c),
(75,-14,o),
(69,40,o),
(128,40,cs),
(184,40,o),
(220,-7,o),
(330,-7,cs),
(448,-7,o),
(595,56,o),
(595,265,cs),
(595,397,o),
(506,500,o),
(391,500,cs),
(314,500,o),
(278,460,o),
(264,404,cs),
(261,391,o),
(253,392,o),
(254,399,cs),
(259,468,l),
(259,619,ls),
(259,978,o),
(500,1229,o),
(829,1229,cs),
(1267,1229,o),
(1622,870,o),
(1622,421,cs),
(1622,-21,o),
(1271,-377,o),
(839,-377,cs),
(-123,-377,o),
(-338,934,o),
(-1284,934,cs),
(-1617,934,o),
(-1908,737,o),
(-2047,455,c)
);
},
{
closed = 1;
nodes = (
(285,5,o),
(266,47,o),
(266,111,cs),
(266,319,ls),
(266,376,o),
(278,466,o),
(336,466,cs),
(388,466,o),
(394,417,o),
(394,246,cs),
(394,32,o),
(376,5,o),
(327,5,cs)
);
}
);
width = 623;
},
{
layerId = "C0DC133F-6416-4A48-B531-E298505A9AE1";
shapes = (
{
closed = 1;
nodes = (
(-2068,453,l),
(-1931,734,o),
(-1642,930,o),
(-1313,930,cs),
(-376,930,o),
(-151,-401,o),
(810,-389,c),
(1250,-389,o),
(1604,-29,o),
(1604,421,cs),
(1604,878,o),
(1245,1243,o),
(797,1243,cs),
(401,1243,o),
(70,923,o),
(70,517,cs),
(70,-9,ls),
(70,-13,o),
(72,-14,o),
(74,-14,c),
(79,-14,o),
(69,63,o),
(107,63,cs),
(141,63,o),
(157,-9,o),
(261,-9,cs),
(406,-9,o),
(479,122,o),
(479,258,cs),
(479,399,o),
(411,500,o),
(283,500,cs),
(207,500,o),
(150,446,o),
(135,385,cs),
(132,372,o),
(132,387,o),
(132,394,c),
(135,549,l),
(137,617,l),
(137,978,o),
(468,1233,o),
(800,1233,cs),
(1242,1233,o),
(1600,872,o),
(1600,421,cs),
(1600,-25,o),
(1246,-385,o),
(810,-385,c),
(-152,-397,o),
(-367,934,o),
(-1313,934,cs),
(-1644,934,o),
(-1934,737,o),
(-2072,455,c)
);
},
{
closed = 1;
nodes = (
(179,-5,o),
(137,43,o),
(137,144,cs),
(137,319,ls),
(137,408,o),
(192,495,o),
(274,495,cs),
(395,495,o),
(405,348,o),
(405,258,cs),
(405,34,o),
(337,-5,o),
(266,-5,cs)
);
}
);
width = 507;
},
{
layerId = "7291A756-B4B9-4A9F-BCDD-45C2F86033E0";
shapes = (
{
closed = 1;
nodes = (
(-2046,453,l),
(-1909,734,o),
(-1620,930,o),
(-1291,930,cs),
(-354,930,o),
(-129,-401,o),
(832,-389,c),
(1272,-389,o),
(1626,-29,o),
(1626,421,cs),
(1626,878,o),
(1267,1243,o),
(819,1243,cs),
(350,1243,o),
(58,923,o),
(58,517,cs),
(58,-9,ls),
(58,-13,o),
(57,-14,o),
(59,-14,c),
(65,-14,o),
(59,50,o),
(118,50,cs),
(174,50,o),
(199,-6,o),
(320,-6,c),
(438,-1,o),
(585,56,o),
(585,265,cs),
(585,401,o),
(496,500,o),
(381,500,cs),
(304,500,o),
(267,461,o),
(254,401,cs),
(251,387,o),
(248,396,o),
(248,402,cs),
(248,552,l),
(248,617,ls),
(248,978,o),
(493,1233,o),
(822,1233,cs),
(1264,1233,o),
(1622,872,o),
(1622,421,cs),
(1622,-25,o),
(1268,-385,o),
(832,-385,c),
(-130,-397,o),
(-345,934,o),
(-1291,934,cs),
(-1622,934,o),
(-1912,737,o),
(-2050,455,c)
);
},
{
closed = 1;
nodes = (
(266,0,o),
(256,45,o),
(256,111,cs),
(256,348,ls),
(256,409,o),
(278,477,o),
(329,477,cs),
(378,477,o),
(384,420,o),
(384,246,cs),
(384,28,o),
(357,-2,o),
(308,-2,c)
);
}
);
width = 613;
},
{
layerId = "EC8E161F-9AB2-4247-A7F5-C9BB1661FF9D";
shapes = (
{
closed = 1;
nodes = (
(-2060,453,l),
(-1923,730,o),
(-1640,922,o),
(-1311,922,cs),
(-381,922,o),
(-152,-389,o),
(812,-389,cs),
(1252,-389,o),
(1606,-29,o),
(1606,421,cs),
(1606,878,o),
(1247,1243,o),
(799,1243,cs),
(403,1243,o),
(72,923,o),
(72,517,cs),
(72,-9,ls),
(72,-13,o),
(74,-14,o),
(76,-14,c),
(81,-14,o),
(71,42,o),
(109,42,cs),
(143,42,o),
(169,-7,o),
(250,-7,cs),
(406,-7,o),
(481,122,o),
(481,258,cs),
(481,390,o),
(413,500,o),
(285,500,cs),
(221,500,o),
(169,459,o),
(145,417,cs),
(143,414,o),
(143,421,o),
(143,427,cs),
(143,562,l),
(143,621,ls),
(143,980,o),
(470,1229,o),
(802,1229,cs),
(1240,1229,o),
(1595,870,o),
(1595,421,cs),
(1595,-21,o),
(1244,-377,o),
(812,-377,cs),
(-150,-377,o),
(-365,934,o),
(-1311,934,cs),
(-1644,934,o),
(-1935,737,o),
(-2074,455,c)
);
},
{
closed = 1;
nodes = (
(183,7,o),
(139,62,o),
(139,120,cs),
(139,314,ls),
(139,394,o),
(163,478,o),
(269,478,cs),
(397,478,o),
(407,341,o),
(407,258,cs),
(407,37,o),
(341,7,o),
(250,7,cs)
);
}
);
width = 512;
},
{
layerId = "1188AF94-4382-4C0E-9F0C-F5AE7B488C11";
shapes = (
{
closed = 1;
nodes = (
(-2035,453,l),
(-1898,730,o),
(-1613,922,o),
(-1284,922,cs),
(-354,922,o),
(-132,-389,o),
(839,-389,cs),
(1279,-389,o),
(1633,-29,o),
(1633,421,cs),
(1633,878,o),
(1274,1243,o),
(826,1243,cs),
(357,1243,o),
(65,923,o),
(65,517,cs),
(65,-9,ls),
(65,-13,o),
(67,-14,o),
(69,-14,c),
(75,-14,o),
(69,40,o),
(128,40,cs),
(184,40,o),
(220,-7,o),
(330,-7,cs),
(448,-7,o),
(595,56,o),
(595,265,cs),
(595,397,o),
(506,500,o),
(391,500,cs),
(314,500,o),
(278,460,o),
(264,404,cs),
(261,391,o),
(253,392,o),
(254,399,cs),
(259,468,l),
(259,619,ls),
(259,978,o),
(500,1229,o),
(829,1229,cs),
(1267,1229,o),
(1622,870,o),
(1622,421,cs),
(1622,-21,o),
(1271,-377,o),
(839,-377,cs),
(-123,-377,o),
(-338,934,o),
(-1284,934,cs),
(-1617,934,o),
(-1908,737,o),
(-2047,455,c)
);
},
{
closed = 1;
nodes = (
(285,5,o),
(266,47,o),
(266,111,cs),
(266,319,ls),
(266,376,o),
(278,466,o),
(336,466,cs),
(388,466,o),
(394,417,o),
(394,246,cs),
(394,32,o),
(376,5,o),
(327,5,cs)
);
}
);
width = 623;
},
{
layerId = "DFD7F247-A6A1-4633-91D9-01055A0B6A1B";
shapes = (
{
closed = 1;
nodes = (
(-2068,453,l),
(-1931,734,o),
(-1642,930,o),
(-1313,930,cs),
(-376,930,o),
(-151,-401,o),
(810,-389,c),
(1250,-389,o),
(1604,-29,o),
(1604,421,cs),
(1604,878,o),
(1245,1243,o),
(797,1243,cs),
(401,1243,o),
(70,923,o),
(70,517,cs),
(70,-9,ls),
(70,-13,o),
(72,-14,o),
(74,-14,c),
(79,-14,o),
(69,63,o),
(107,63,cs),
(141,63,o),
(157,-9,o),
(261,-9,cs),
(406,-9,o),
(479,122,o),
(479,258,cs),
(479,399,o),
(411,500,o),
(283,500,cs),
(207,500,o),
(150,446,o),
(135,385,cs),
(132,372,o),
(132,387,o),
(132,394,c),
(135,549,l),
(137,617,l),
(137,978,o),
(468,1233,o),
(800,1233,cs),
(1242,1233,o),
(1600,872,o),
(1600,421,cs),
(1600,-25,o),
(1246,-385,o),
(810,-385,c),
(-152,-397,o),
(-367,934,o),
(-1313,934,cs),
(-1644,934,o),
(-1934,737,o),
(-2072,455,c)
);
},
{
closed = 1;
nodes = (
(179,-5,o),
(137,43,o),
(137,144,cs),
(137,319,ls),
(137,408,o),
(192,495,o),
(274,495,cs),
(395,495,o),
(405,348,o),
(405,258,cs),
(405,34,o),
(337,-5,o),
(266,-5,cs)
);
}
);
width = 507;
},
{
layerId = "7DF38E59-3B01-4CE0-9463-5B164C18123B";
shapes = (
{
closed = 1;
nodes = (
(-2046,453,l),
(-1909,734,o),
(-1620,930,o),
(-1291,930,cs),
(-354,930,o),
(-129,-401,o),
(832,-389,c),
(1272,-389,o),
(1626,-29,o),
(1626,421,cs),
(1626,878,o),
(1267,1243,o),
(819,1243,cs),
(350,1243,o),
(58,923,o),
(58,517,cs),
(58,-9,ls),
(58,-13,o),
(57,-14,o),
(59,-14,c),
(65,-14,o),
(59,50,o),
(118,50,cs),
(174,50,o),
(199,-6,o),
(320,-6,c),
(438,-1,o),
(585,56,o),
(585,265,cs),
(585,401,o),
(496,500,o),
(381,500,cs),
(304,500,o),
(267,461,o),
(254,401,cs),
(251,387,o),
(248,396,o),
(248,402,cs),
(248,552,l),
(248,617,ls),
(248,978,o),
(493,1233,o),
(822,1233,cs),
(1264,1233,o),
(1622,872,o),
(1622,421,cs),
(1622,-25,o),
(1268,-385,o),
(832,-385,c),
(-130,-397,o),
(-345,934,o),
(-1291,934,cs),
(-1622,934,o),
(-1912,737,o),
(-2050,455,c)
);
},
{
closed = 1;
nodes = (
(266,0,o),
(256,45,o),
(256,111,cs),
(256,348,ls),
(256,409,o),
(278,477,o),
(329,477,cs),
(378,477,o),
(384,420,o),
(384,246,cs),
(384,28,o),
(357,-2,o),
(308,-2,c)
);
}
);
width = 613;
}
);
},
{
color = (153, 255, 154, 255);
glyphname = b.4.acc;
layers = (
{
layerId = "4C496422-9EE2-4715-A1C6-14E7C06350A7";
shapes = (
{
closed = 1;
nodes = (
(-2060,453,l),
(-1923,730,o),
(-1638,922,o),
(-1309,922,cs),
(-316,922,o),
(-184,-410,o),
(814,-410,cs),
(1254,-410,o),
(1608,-40,o),
(1608,421,cs),
(1608,878,o),
(1249,1243,o),
(801,1243,cs),
(405,1243,o),
(74,923,o),
(74,517,cs),
(74,-9,ls),
(74,-13,o),
(76,-14,o),
(78,-14,c),
(83,-14,o),
(73,52,o),
(111,52,cs),
(145,52,o),
(167,-8,o),
(259,-8,cs),
(410,-8,o),
(483,122,o),
(483,258,cs),
(483,394,o),
(415,500,o),
(287,500,cs),
(217,500,o),
(164,454,o),
(144,403,cs),
(143,401,o),
(142,398,o),
(141,396,c),
(141,398,o),
(141,402,o),
(141,405,cs),
(141,617,ls),
(141,974,o),
(472,1226,o),
(804,1226,cs),
(1242,1226,o),
(1597,868,o),
(1597,421,cs),
(1597,11,o),
(1246,-340,o),
(814,-340,cs),
(-212,-340,o),
(-333,934,o),
(-1309,934,cs),
(-1642,934,o),
(-1934,737,o),
(-2073,455,c)
);
},
{
closed = 1;
nodes = (
(183,3,o),
(141,54,o),
(141,131,cs),
(141,314,ls),
(141,394,o),
(171,478,o),
(274,478,cs),
(399,478,o),
(409,341,o),
(409,258,cs),
(409,37,o),
(341,3,o),
(259,3,cs)
);
}
);
width = 514;
},
{
layerId = "90062726-3AC9-4659-AA20-F783A3D8E853";
shapes = (
{
closed = 1;
nodes = (
(-2037,453,l),
(-1900,730,o),
(-1613,922,o),
(-1284,922,cs),
(-351,922,o),
(-139,-480,o),
(839,-480,cs),
(1279,-480,o),
(1633,-52,o),
(1633,421,cs),
(1633,878,o),
(1274,1243,o),
(826,1243,cs),
(357,1243,o),
(65,923,o),
(65,517,cs),
(65,-9,ls),
(65,-13,o),
(67,-14,o),
(69,-14,c),
(75,-14,o),
(69,50,o),
(128,50,cs),
(184,50,o),
(209,-7,o),
(330,-7,cs),
(448,-7,o),
(595,56,o),
(595,265,cs),
(595,397,o),
(506,500,o),
(391,500,cs),
(314,500,o),
(278,460,o),
(264,404,cs),
(261,391,o),
(253,392,o),
(254,399,cs),
(255,407,o),
(258,457,o),
(259,468,c),
(259,619,ls),
(259,976,o),
(500,1226,o),
(829,1226,cs),
(1267,1226,o),
(1622,868,o),
(1622,421,cs),
(1622,23,o),
(1271,-350,o),
(839,-350,cs),
(-264,-350,o),
(-338,934,o),
(-1284,934,cs),
(-1617,934,o),
(-1909,737,o),
(-2048,455,c)
);
},
{
closed = 1;
nodes = (
(285,5,o),
(266,47,o),
(266,111,cs),
(266,319,ls),
(266,376,o),
(278,466,o),
(336,466,cs),
(388,466,o),
(394,417,o),
(394,246,cs),
(394,32,o),
(376,5,o),
(327,5,cs)
);
}
);
width = 623;
},
{
layerId = "C0DC133F-6416-4A48-B531-E298505A9AE1";
shapes = (
{
closed = 1;
nodes = (
(-2066,453,l),
(-1929,734,o),
(-1642,930,o),
(-1313,930,cs),
(-320,930,o),
(-188,-422,o),
(810,-410,c),
(1250,-410,o),
(1604,-40,o),
(1604,421,cs),
(1604,878,o),
(1245,1243,o),
(797,1243,cs),
(401,1243,o),
(70,923,o),
(70,517,cs),
(70,-9,ls),
(70,-13,o),
(72,-14,o),
(74,-14,c),
(79,-14,o),
(69,52,o),
(107,52,cs),
(141,52,o),
(163,-8,o),
(255,-8,cs),
(406,-8,o),
(479,122,o),
(479,258,cs),
(479,394,o),
(411,500,o),
(283,500,cs),
(207,500,o),
(160,452,o),
(140,401,cs),
(139,399,o),
(138,395,o),
(137,393,c),
(137,393,o),
(137,404,o),
(137,405,c),
(137,617,ls),
(137,980,o),
(468,1236,o),
(800,1236,cs),
(1242,1236,o),
(1600,874,o),
(1600,421,cs),
(1600,11,o),
(1246,-340,o),
(810,-340,c),
(-218,-353,o),
(-337,934,o),
(-1313,934,cs),
(-1644,934,o),
(-1932,737,o),
(-2070,455,c)
);
},
{
closed = 1;
nodes = (
(179,-3,o),
(137,50,o),
(137,131,cs),
(137,316,ls),
(137,406,o),
(188,495,o),
(270,495,cs),
(395,495,o),
(405,347,o),
(405,258,cs),
(405,31,o),
(337,-3,o),
(255,-3,cs)
);
}
);
width = 507;
},
{
layerId = "7291A756-B4B9-4A9F-BCDD-45C2F86033E0";
shapes = (
{
closed = 1;
nodes = (
(-2044,453,l),
(-1907,734,o),
(-1620,930,o),
(-1291,930,cs),
(-358,930,o),
(-129,-480,o),
(832,-480,cs),
(1272,-480,o),
(1626,-52,o),
(1626,421,cs),
(1626,878,o),
(1267,1243,o),
(819,1243,cs),
(350,1243,o),
(58,923,o),
(58,517,cs),
(58,-9,ls),
(58,-13,o),
(57,-14,o),
(59,-14,c),
(65,-14,o),
(59,50,o),
(118,50,cs),
(174,50,o),
(193,-6,o),
(314,-6,cs),
(432,-6,o),
(585,56,o),
(585,265,cs),
(585,401,o),
(496,500,o),
(381,500,cs),
(304,500,o),
(267,461,o),
(254,401,cs),
(253,396,o),
(251,394,o),
(250,394,c),
(249,394,o),
(248,396,o),
(248,400,cs),
(248,617,ls),
(248,980,o),
(493,1236,o),
(822,1236,cs),
(1264,1236,o),
(1622,874,o),
(1622,421,cs),
(1622,37,o),
(1268,-323,o),
(832,-323,cs),
(-275,-323,o),
(-345,934,o),
(-1291,934,cs),
(-1622,934,o),
(-1910,737,o),
(-2048,455,c)
);
},
{
closed = 1;
nodes = (
(266,-1,o),
(256,45,o),
(256,111,cs),
(256,348,ls),
(256,409,o),
(278,477,o),
(329,477,cs),
(378,477,o),
(384,420,o),
(384,246,cs),
(384,29,o),
(357,-1,o),
(308,-1,cs)
);
}
);
width = 613;
},
{
layerId = "EC8E161F-9AB2-4247-A7F5-C9BB1661FF9D";
shapes = (
{
closed = 1;
nodes = (
(-2060,453,l),
(-1923,730,o),
(-1640,922,o),
(-1311,922,cs),
(-381,922,o),
(-152,-389,o),
(812,-389,cs),
(1252,-389,o),
(1606,-29,o),
(1606,421,cs),
(1606,878,o),
(1247,1243,o),
(799,1243,cs),
(403,1243,o),
(72,923,o),
(72,517,cs),
(72,-9,ls),
(72,-13,o),
(74,-14,o),
(76,-14,c),
(81,-14,o),
(71,42,o),
(109,42,cs),
(143,42,o),
(169,-7,o),
(250,-7,cs),
(406,-7,o),
(481,122,o),
(481,258,cs),
(481,390,o),
(413,500,o),
(285,500,cs),
(221,500,o),
(169,459,o),
(145,417,cs),
(143,414,o),
(143,421,o),
(143,427,cs),
(143,442,o),
(143,540,o),
(143,562,cs),
(143,621,ls),
(143,980,o),
(470,1229,o),
(802,1229,cs),
(1240,1229,o),
(1595,870,o),
(1595,421,cs),
(1595,-21,o),
(1244,-377,o),
(812,-377,cs),
(-150,-377,o),
(-365,934,o),
(-1311,934,cs),
(-1644,934,o),
(-1935,737,o),
(-2074,455,c)
);
},
{
closed = 1;
nodes = (
(183,7,o),
(139,62,o),
(139,120,cs),
(139,314,ls),
(139,394,o),
(163,478,o),
(269,478,cs),
(397,478,o),
(407,341,o),
(407,258,cs),
(407,37,o),
(341,7,o),
(250,7,cs)
);
}
);
width = 512;
},
{
layerId = "1188AF94-4382-4C0E-9F0C-F5AE7B488C11";
shapes = (
{
closed = 1;
nodes = (
(-2035,453,l),
(-1898,730,o),
(-1613,922,o),
(-1284,922,cs),
(-354,922,o),
(-132,-389,o),
(839,-389,cs),
(1279,-389,o),
(1633,-29,o),
(1633,421,cs),
(1633,878,o),
(1274,1243,o),
(826,1243,cs),
(357,1243,o),
(65,923,o),
(65,517,cs),
(65,-9,ls),
(65,-13,o),
(67,-14,o),
(69,-14,c),
(75,-14,o),
(69,40,o),
(128,40,cs),
(184,40,o),
(220,-7,o),
(330,-7,cs),
(448,-7,o),
(595,56,o),
(595,265,cs),
(595,397,o),
(506,500,o),
(391,500,cs),
(314,500,o),
(278,460,o),
(264,404,cs),
(261,391,o),
(253,392,o),
(254,399,c),
(254,403,o),
(259,462,o),
(259,468,cs),
(259,619,ls),
(259,978,o),
(500,1229,o),
(829,1229,cs),
(1267,1229,o),
(1622,870,o),
(1622,421,cs),
(1622,-21,o),
(1271,-377,o),
(839,-377,cs),
(-123,-377,o),
(-338,934,o),
(-1284,934,cs),
(-1617,934,o),
(-1908,737,o),
(-2047,455,c)
);
},
{
closed = 1;
nodes = (
(285,5,o),
(266,47,o),
(266,111,cs),
(266,319,ls),
(266,376,o),
(278,466,o),
(336,466,cs),
(388,466,o),
(394,417,o),
(394,246,cs),
(394,32,o),
(376,5,o),
(327,5,cs)
);
}
);
width = 623;
},
{
layerId = "DFD7F247-A6A1-4633-91D9-01055A0B6A1B";
shapes = (
{
closed = 1;
nodes = (
(-2068,453,l),
(-1931,734,o),
(-1642,930,o),
(-1313,930,cs),
(-376,930,o),
(-151,-401,o),
(810,-389,c),
(1250,-389,o),
(1604,-29,o),
(1604,421,cs),
(1604,878,o),
(1245,1243,o),
(797,1243,cs),
(401,1243,o),
(70,923,o),
(70,517,cs),
(70,-9,ls),
(70,-13,o),
(72,-14,o),
(74,-14,c),
(79,-14,o),
(69,63,o),
(107,63,cs),
(141,63,o),
(157,-9,o),
(261,-9,cs),
(406,-9,o),
(479,122,o),
(479,258,cs),
(479,399,o),
(411,500,o),
(283,500,cs),
(207,500,o),
(150,446,o),
(135,385,cs),
(134,382,o),
(134,380,o),
(133,380,c),
(132,379,o),
(132,389,o),
(132,394,c),
(137,617,l),
(137,978,o),
(468,1233,o),
(800,1233,cs),
(1242,1233,o),
(1600,872,o),
(1600,421,cs),
(1600,-25,o),
(1246,-385,o),
(810,-385,c),
(-152,-397,o),
(-367,934,o),
(-1313,934,cs),
(-1644,934,o),
(-1934,737,o),
(-2072,455,c)
);
},
{
closed = 1;
nodes = (
(179,-5,o),
(137,43,o),
(137,144,cs),
(137,319,ls),
(137,408,o),
(192,495,o),
(274,495,cs),
(395,495,o),
(405,348,o),
(405,258,cs),
(405,34,o),
(337,-5,o),
(266,-5,cs)
);
}
);
width = 507;
},
{
layerId = "7DF38E59-3B01-4CE0-9463-5B164C18123B";
shapes = (
{
closed = 1;
nodes = (
(-2046,453,l),
(-1909,734,o),
(-1620,930,o),
(-1291,930,cs),
(-354,930,o),
(-129,-401,o),
(832,-389,c),
(1272,-389,o),
(1626,-29,o),
(1626,421,cs),
(1626,878,o),
(1267,1243,o),
(819,1243,cs),
(350,1243,o),
(58,923,o),
(58,517,cs),
(58,-9,ls),
(58,-13,o),
(57,-14,o),
(59,-14,c),
(65,-14,o),
(59,50,o),
(118,50,cs),
(174,50,o),
(199,-6,o),
(320,-6,c),
(438,-1,o),
(585,56,o),
(585,265,cs),
(585,401,o),
(496,500,o),
(381,500,cs),
(304,500,o),
(267,461,o),
(254,401,cs),
(253,394,o),
(251,393,o),
(250,394,c),
(249,395,o),
(248,399,o),
(248,402,cs),
(248,617,ls),
(248,978,o),
(493,1233,o),
(822,1233,cs),
(1264,1233,o),
(1622,872,o),
(1622,421,cs),
(1622,-25,o),
(1268,-385,o),
(832,-385,c),
(-130,-397,o),
(-345,934,o),
(-1291,934,cs),
(-1622,934,o),
(-1912,737,o),
(-2050,455,c)
);
},
{
closed = 1;
nodes = (
(266,0,o),
(256,45,o),
(256,111,cs),
(256,348,ls),
(256,409,o),
(278,477,o),
(329,477,cs),
(378,477,o),
(384,420,o),
(384,246,cs),
(384,28,o),
(357,-2,o),
(308,-2,c)
);
}
);
width = 613;
}
);
},
{
color = (255, 153, 153, 255);
glyphname = c;
layers = (
{
anchors = (
{
name = top;
position = "{219, 577}";
}
);
layerId = "4C496422-9EE2-4715-A1C6-14E7C06350A7";
shapes = (
{
closed = 1;
nodes = (
(405,91,l),
(378,49,o),
(333,26,o),
(274,26,cs),
(152,26,o),
(105,128,o),
(105,258,cs),
(105,350,o),
(130,486,o),
(265,486,cs),
(307,486,o),
(334,468,o),
(342,449,c),
(328,432,o),
(321,407,o),
(321,386,cs),
(321,356,o),
(336,331,o),
(364,331,cs),
(394,331,o),
(409,358,o),
(409,389,cs),
(409,457,o),
(338,500,o),
(260,500,cs),
(130,500,o),
(30,394,o),
(30,237,cs),
(30,68,o),
(116,-9,o),
(237,-9,cs),
(314,-9,o),
(373,21,o),
(410,79,c)
);
}
);
width = 446;
},
{
anchors = (
{
name = top;
position = "{281, 577}";
}
);
layerId = "90062726-3AC9-4659-AA20-F783A3D8E853";
shapes = (
{
closed = 1;
nodes = (
(470,125,l),
(448,77,o),
(410,55,o),
(360,55,cs),
(266,55,o),
(227,119,o),
(227,273,cs),
(227,451,o),
(265,489,o),
(310,489,cs),
(345,489,o),
(371,467,o),
(375,449,c),
(352,423,o),
(340,386,o),
(340,354,cs),
(340,309,o),
(364,271,o),
(412,271,cs),
(462,271,o),
(488,312,o),
(488,364,cs),
(488,453,o),
(405,500,o),
(292,500,cs),
(141,500,o),
(25,414,o),
(25,244,cs),
(25,68,o),
(138,-9,o),
(270,-9,cs),
(363,-9,o),
(440,34,o),
(478,116,c)
);
}
);
width = 506;
},
{
anchors = (
{
name = top;
position = "{216, 577}";
}
);
hints = (
{
horizontal = 1;
place = (-5,36);
type = Stem;
},
{
horizontal = 1;
place = (255,213);
type = Stem;
},
{
place = (-24,197);
type = Stem;
},
{
place = (265,200);
type = Stem;
},
{
place = (314,151);
type = Stem;
}
);
layerId = "C0DC133F-6416-4A48-B531-E298505A9AE1";
leftMetricsKey = e;
rightMetricsKey = e;
shapes = (
{
closed = 1;
nodes = (
(407,123,l),
(385,57,o),
(336,26,o),
(269,26,cs),
(149,26,o),
(103,129,o),
(103,258,cs),
(103,354,o),
(127,495,o),
(262,495,cs),
(304,495,o),
(331,474,o),
(339,449,c),
(325,432,o),
(318,407,o),
(318,386,cs),
(318,356,o),
(333,331,o),
(361,331,cs),
(391,331,o),
(406,358,o),
(406,389,cs),
(406,457,o),
(335,500,o),
(257,500,cs),
(125,500,o),
(28,394,o),
(28,237,cs),
(28,68,o),
(111,-9,o),
(230,-9,cs),
(317,-9,o),
(379,32,o),
(412,121,c)
);
}
);
width = 440;
},
{
anchors = (
{
name = top;
position = "{278, 577}";
}
);
hints = (
{
horizontal = 1;
place = (-5,36);
type = Stem;
},
{
horizontal = 1;
place = (255,213);
type = Stem;
},
{
place = (38,197);
type = Stem;
},
{
place = (327,200);
type = Stem;
},
{
place = (376,151);
type = Stem;
}
);
layerId = "7291A756-B4B9-4A9F-BCDD-45C2F86033E0";
shapes = (
{
closed = 1;
nodes = (
(482,147,l),
(461,84,o),
(415,55,o),
(357,55,cs),
(263,55,o),
(224,119,o),
(224,273,cs),
(224,454,o),
(262,494,o),
(307,494,cs),
(342,494,o),
(368,471,o),
(372,449,c),
(349,423,o),
(337,386,o),
(337,354,cs),
(337,309,o),
(361,271,o),
(409,271,cs),
(459,271,o),
(485,312,o),
(485,364,cs),
(485,453,o),
(402,500,o),
(289,500,cs),
(138,500,o),
(22,414,o),
(22,244,cs),
(22,68,o),
(135,-9,o),
(267,-9,cs),
(369,-9,o),
(452,44,o),
(487,145,c)
);
}
);
width = 500;
},
{
anchors = (
{
name = top;
position = "{219, 577}";
}
);
background = {
shapes = (
{
closed = 1;
nodes = (
(410,98,l),
(384,50,o),
(329,26,o),
(272,26,cs),
(177,26,o),
(129,91,o),
(112,181,c),
(157,200,o),
(252,216,o),
(324,251,cs),
(384,280,o),
(423,322,o),
(423,379,cs),
(423,462,o),
(343,500,o),
(263,500,cs),
(128,500,o),
(31,391,o),
(31,237,cs),
(31,68,o),
(115,-9,o),
(233,-9,cs),
(309,-9,o),
(380,22,o),
(417,89,c)
);
},
{
closed = 1;
nodes = (
(409,98,l),
(383,50,o),
(328,26,o),
(271,26,cs),
(139,26,o),
(105,151,o),
(105,258,cs),
(105,350,o),
(130,487,o),
(262,487,cs),
(329,487,o),
(359,452,o),
(359,403,cs),
(359,305,o),
(233,222,o),
(91,192,c),
(103,177,l),
(143,198,o),
(246,214,o),
(323,251,cs),
(383,280,o),
(422,322,o),
(422,379,cs),
(422,462,o),
(342,500,o),
(262,500,cs),
(127,500,o),
(30,391,o),
(30,237,cs),
(30,68,o),
(114,-9,o),
(232,-9,cs),
(308,-9,o),
(379,22,o),
(416,89,c)
);
},
{
closed = 1;
nodes = (
(409,98,l),
(383,50,o),
(328,26,o),
(271,26,cs),
(139,26,o),
(105,151,o),
(105,258,cs),
(105,350,o),
(130,487,o),
(262,487,cs),
(329,487,o),
(359,452,o),
(359,403,cs),
(359,305,o),
(233,222,o),
(91,192,c),
(103,177,l),
(143,198,o),
(246,214,o),
(323,251,cs),
(383,280,o),
(422,322,o),
(422,379,cs),
(422,462,o),
(342,500,o),
(262,500,cs),
(127,500,o),
(30,391,o),
(30,237,cs),
(30,68,o),
(114,-9,o),
(232,-9,cs),
(308,-9,o),
(379,22,o),
(416,89,c)
);
}
);
};
layerId = "EC8E161F-9AB2-4247-A7F5-C9BB1661FF9D";
shapes = (
{
closed = 1;
nodes = (
(405,91,l),
(378,49,o),
(333,26,o),
(274,26,cs),
(152,26,o),
(105,128,o),
(105,258,cs),
(105,350,o),
(130,486,o),
(265,486,cs),
(307,486,o),
(334,468,o),
(342,449,c),
(328,432,o),
(321,407,o),
(321,386,cs),
(321,356,o),
(336,331,o),
(364,331,cs),
(394,331,o),
(409,358,o),
(409,389,cs),
(409,457,o),
(338,500,o),
(260,500,cs),
(130,500,o),
(30,394,o),
(30,237,cs),
(30,68,o),
(116,-9,o),
(237,-9,cs),
(314,-9,o),
(373,21,o),
(410,79,c)
);
}
);
width = 446;
},
{
anchors = (
{
name = top;
position = "{281, 577}";
}
);
background = {
shapes = (
{
closed = 1;
nodes = (
(470,125,l),
(445,75,o),
(400,51,o),
(344,51,cs),
(260,51,o),
(228,110,o),
(219,205,c),
(264,223,o),
(327,233,o),
(382,253,cs),
(437,273,o),
(482,311,o),
(482,367,cs),
(482,453,o),
(393,500,o),
(280,500,cs),
(129,500,o),
(13,419,o),
(13,244,cs),
(13,68,o),
(114,-9,o),
(258,-9,cs),
(360,-9,o),
(437,31,o),
(478,116,c)
);
}
);
};
layerId = "1188AF94-4382-4C0E-9F0C-F5AE7B488C11";
shapes = (
{
closed = 1;
nodes = (
(470,125,l),
(448,77,o),
(410,55,o),
(360,55,cs),
(266,55,o),
(227,119,o),
(227,273,cs),
(227,451,o),
(265,489,o),
(310,489,cs),
(345,489,o),
(371,467,o),
(375,449,c),
(352,423,o),
(340,386,o),
(340,354,cs),
(340,309,o),
(364,271,o),
(412,271,cs),
(462,271,o),
(488,312,o),
(488,364,cs),
(488,453,o),
(405,500,o),
(292,500,cs),
(141,500,o),
(25,414,o),
(25,244,cs),
(25,68,o),
(138,-9,o),
(270,-9,cs),
(363,-9,o),
(440,34,o),
(478,116,c)
);
}
);
width = 506;
},
{
anchors = (
{
name = top;
position = "{216, 577}";
}
);
hints = (
{
horizontal = 1;
place = (-5,36);
type = Stem;
},
{
horizontal = 1;
place = (255,213);
type = Stem;
},
{
place = (-24,197);
type = Stem;
},
{
place = (265,200);
type = Stem;
},
{
place = (314,151);
type = Stem;
}
);
layerId = "DFD7F247-A6A1-4633-91D9-01055A0B6A1B";
leftMetricsKey = e;
rightMetricsKey = e;
shapes = (
{
closed = 1;
nodes = (
(407,123,l),
(385,57,o),
(336,26,o),
(269,26,cs),
(149,26,o),
(103,129,o),
(103,258,cs),
(103,354,o),
(127,495,o),
(262,495,cs),
(304,495,o),
(331,474,o),
(339,449,c),
(325,432,o),
(318,407,o),
(318,386,cs),
(318,356,o),
(333,331,o),
(361,331,cs),
(391,331,o),
(406,358,o),
(406,389,cs),
(406,457,o),
(335,500,o),
(257,500,cs),
(125,500,o),
(28,394,o),
(28,237,cs),
(28,68,o),
(111,-9,o),
(230,-9,cs),
(317,-9,o),
(379,32,o),
(412,121,c)
);
}
);
width = 440;
},
{
anchors = (
{
name = top;
position = "{278, 577}";
}
);
hints = (
{
horizontal = 1;
place = (-5,36);
type = Stem;
},
{
horizontal = 1;
place = (255,213);
type = Stem;
},
{
place = (38,197);
type = Stem;
},
{
place = (327,200);
type = Stem;
},
{
place = (376,151);
type = Stem;
}
);
layerId = "7DF38E59-3B01-4CE0-9463-5B164C18123B";
shapes = (
{
closed = 1;
nodes = (
(482,147,l),
(461,84,o),
(415,55,o),
(357,55,cs),
(263,55,o),
(224,119,o),
(224,273,cs),
(224,454,o),
(262,494,o),
(307,494,cs),
(342,494,o),
(368,471,o),
(372,449,c),
(349,423,o),
(337,386,o),
(337,354,cs),
(337,309,o),
(361,271,o),
(409,271,cs),
(459,271,o),
(485,312,o),
(485,364,cs),
(485,453,o),
(402,500,o),
(289,500,cs),
(138,500,o),
(22,414,o),
(22,244,cs),
(22,68,o),
(135,-9,o),
(267,-9,cs),
(369,-9,o),
(452,44,o),
(487,145,c)
);
}
);
width = 500;
}
);
leftKerningGroup = _kern2;
rightKerningGroup = _kern2;
unicode = 99;
},
{
color = (153, 255, 154, 255);
glyphname = c.4;
layers = (
{
layerId = "4C496422-9EE2-4715-A1C6-14E7C06350A7";
shapes = (
{
closed = 1;
nodes = (
(310,485,o),
(337,468,o),
(345,449,c),
(331,432,o),
(324,407,o),
(324,386,cs),
(324,356,o),
(339,331,o),
(367,331,cs),
(397,331,o),
(412,358,o),
(412,389,cs),
(412,457,o),
(341,500,o),
(263,500,cs),
(124,500,o),
(37,365,o),
(37,203,cs),
(37,-133,o),
(364,-295,o),
(621,-306,cs),
(964,-320,o),
(1315,-53,o),
(1315,310,cs),
(1315,597,o),
(1078,834,o),
(775,834,cs),
(630,834,o),
(503,780,o),
(406,692,c),
(413,682,l),
(509,768,o),
(633,822,o),
(775,822,cs),
(1070,822,o),
(1303,594,o),
(1303,310,cs),
(1303,-10,o),
(1007,-291,o),
(664,-277,cs),
(362,-264,o),
(114,-99,o),
(114,231,cs),
(114,341,o),
(143,485,o),
(268,485,cs)
);
}
);
width = 454;
},
{
layerId = "90062726-3AC9-4659-AA20-F783A3D8E853";
shapes = (
{
closed = 1;
nodes = (
(351,488,o),
(369,466,o),
(373,449,c),
(350,423,o),
(338,386,o),
(338,354,cs),
(338,309,o),
(362,271,o),
(410,271,cs),
(460,271,o),
(486,312,o),
(486,364,cs),
(486,450,o),
(413,500,o),
(306,500,cs),
(138,500,o),
(26,386,o),
(26,205,cs),
(26,-139,o),
(416,-306,o),
(695,-306,cs),
(1062,-306,o),
(1374,-14,o),
(1374,308,cs),
(1374,595,o),
(1137,834,o),
(834,834,cs),
(689,834,o),
(562,780,o),
(465,692,c),
(471,684,l),
(567,770,o),
(692,822,o),
(834,822,cs),
(1129,822,o),
(1362,595,o),
(1362,308,cs),
(1362,0,o),
(1080,-260,o),
(749,-260,cs),
(507,-260,o),
(229,-126,o),
(229,279,cs),
(229,337,o),
(236,488,o),
(312,488,cs)
);
}
);
width = 504;
},
{
layerId = "C0DC133F-6416-4A48-B531-E298505A9AE1";
shapes = (
{
closed = 1;
nodes = (
(307,496,o),
(334,474,o),
(342,449,c),
(328,432,o),
(321,407,o),
(321,386,cs),
(321,356,o),
(336,331,o),
(364,331,cs),
(394,331,o),
(409,358,o),
(409,389,cs),
(409,457,o),
(338,500,o),
(260,500,cs),
(121,500,o),
(34,365,o),
(34,203,cs),
(34,-133,o),
(359,-306,o),
(616,-306,cs),
(962,-306,o),
(1271,-40,o),
(1271,310,cs),
(1271,597,o),
(1035,834,o),
(732,834,cs),
(587,834,o),
(459,780,o),
(362,692,c),
(367,688,l),
(463,776,o),
(590,830,o),
(732,830,cs),
(1029,830,o),
(1267,598,o),
(1267,310,cs),
(1267,-3,o),
(1003,-283,o),
(657,-283,cs),
(355,-283,o),
(111,-103,o),
(111,231,cs),
(111,345,o),
(140,496,o),
(265,496,cs)
);
}
);
width = 448;
},
{
layerId = "7291A756-B4B9-4A9F-BCDD-45C2F86033E0";
shapes = (
{
closed = 1;
nodes = (
(348,495,o),
(366,470,o),
(370,449,c),
(347,423,o),
(335,386,o),
(335,354,cs),
(335,309,o),
(359,271,o),
(407,271,cs),
(457,271,o),
(483,312,o),
(483,364,cs),
(483,450,o),
(410,500,o),
(303,500,cs),
(135,500,o),
(23,386,o),
(23,205,cs),
(23,-139,o),
(395,-289,o),
(674,-289,cs),
(1048,-289,o),
(1352,-8,o),
(1352,308,cs),
(1352,595,o),
(1116,834,o),
(813,834,cs),
(668,834,o),
(540,780,o),
(443,692,c),
(448,688,l),
(544,776,o),
(671,830,o),
(813,830,cs),
(1110,830,o),
(1348,599,o),
(1348,308,cs),
(1348,3,o),
(1067,-246,o),
(727,-246,cs),
(485,-246,o),
(226,-128,o),
(226,279,cs),
(226,340,o),
(233,495,o),
(309,495,cs)
);
}
);
width = 498;
},
{
layerId = "EC8E161F-9AB2-4247-A7F5-C9BB1661FF9D";
shapes = (
{
closed = 1;
nodes = (
(310,485,o),
(337,468,o),
(345,449,c),
(331,432,o),
(324,407,o),
(324,386,cs),
(324,356,o),
(339,331,o),
(367,331,cs),
(397,331,o),
(412,358,o),
(412,389,cs),
(412,457,o),
(341,500,o),
(263,500,cs),
(124,500,o),
(37,365,o),
(37,203,cs),
(37,-133,o),
(364,-295,o),
(621,-306,cs),
(964,-320,o),
(1315,-53,o),
(1315,310,cs),
(1315,597,o),
(1078,834,o),
(775,834,cs),
(630,834,o),
(503,780,o),
(406,692,c),
(413,682,l),
(509,768,o),
(633,822,o),
(775,822,cs),
(1070,822,o),
(1303,594,o),
(1303,310,cs),
(1303,-10,o),
(1007,-291,o),
(664,-277,cs),
(362,-264,o),
(114,-99,o),
(114,231,cs),
(114,341,o),
(143,485,o),
(268,485,cs)
);
}
);
width = 454;
},
{
layerId = "1188AF94-4382-4C0E-9F0C-F5AE7B488C11";
shapes = (
{
closed = 1;
nodes = (
(351,488,o),
(369,466,o),
(373,449,c),
(350,423,o),
(338,386,o),
(338,354,cs),
(338,309,o),
(362,271,o),
(410,271,cs),
(460,271,o),
(486,312,o),
(486,364,cs),
(486,450,o),
(413,500,o),
(306,500,cs),
(138,500,o),
(26,386,o),
(26,205,cs),
(26,-139,o),
(416,-306,o),
(695,-306,cs),
(1062,-306,o),
(1374,-14,o),
(1374,308,cs),
(1374,595,o),
(1137,834,o),
(834,834,cs),
(689,834,o),
(562,780,o),
(465,692,c),
(471,684,l),
(567,770,o),
(692,822,o),
(834,822,cs),
(1129,822,o),
(1362,595,o),
(1362,308,cs),
(1362,0,o),
(1080,-260,o),
(749,-260,cs),
(507,-260,o),
(229,-126,o),
(229,279,cs),
(229,337,o),
(236,488,o),
(312,488,cs)
);
}
);
width = 504;
},
{
layerId = "DFD7F247-A6A1-4633-91D9-01055A0B6A1B";
shapes = (
{
closed = 1;
nodes = (
(307,496,o),
(334,474,o),
(342,449,c),
(328,432,o),
(321,407,o),
(321,386,cs),
(321,356,o),
(336,331,o),
(364,331,cs),
(394,331,o),
(409,358,o),
(409,389,cs),
(409,457,o),
(338,500,o),
(260,500,cs),
(121,500,o),
(34,365,o),
(34,203,cs),
(34,-133,o),
(359,-306,o),
(616,-306,cs),
(962,-306,o),
(1271,-40,o),
(1271,310,cs),
(1271,597,o),
(1035,834,o),
(732,834,cs),
(587,834,o),
(459,780,o),
(362,692,c),
(367,688,l),
(463,776,o),
(590,830,o),
(732,830,cs),
(1029,830,o),
(1267,598,o),
(1267,310,cs),
(1267,-3,o),
(1003,-283,o),
(657,-283,cs),
(355,-283,o),
(111,-103,o),
(111,231,cs),
(111,345,o),
(140,496,o),
(265,496,cs)
);
}
);
width = 448;
},
{
layerId = "7DF38E59-3B01-4CE0-9463-5B164C18123B";
shapes = (
{
closed = 1;
nodes = (
(348,495,o),
(366,470,o),
(370,449,c),
(347,423,o),
(335,386,o),
(335,354,cs),
(335,309,o),
(359,271,o),
(407,271,cs),
(457,271,o),
(483,312,o),
(483,364,cs),
(483,450,o),
(410,500,o),
(303,500,cs),
(135,500,o),
(23,386,o),
(23,205,cs),
(23,-139,o),
(395,-289,o),
(674,-289,cs),
(1048,-289,o),
(1352,-8,o),
(1352,308,cs),
(1352,595,o),
(1116,834,o),
(813,834,cs),
(668,834,o),
(540,780,o),
(443,692,c),
(448,688,l),
(544,776,o),
(671,830,o),
(813,830,cs),
(1110,830,o),
(1348,599,o),
(1348,308,cs),
(1348,3,o),
(1067,-246,o),
(727,-246,cs),
(485,-246,o),
(226,-128,o),
(226,279,cs),
(226,340,o),
(233,495,o),
(309,495,cs)
);
}
);
width = 498;
}
);
leftKerningGroup = _kern2;
rightKerningGroup = _kern2;
},
{
color = (255, 153, 153, 255);
glyphname = d;
layers = (
{
layerId = "4C496422-9EE2-4715-A1C6-14E7C06350A7";
shapes = (
{
closed = 1;
nodes = (
(442,721,l),
(298,692,l),
(298,684,l),
(348,684,o),
(375,688,o),
(375,625,cs),
(375,439,l),
(357,473,o),
(304,500,o),
(256,500,cs),
(124,500,o),
(31,382,o),
(31,229,cs),
(31,88,o),
(106,-9,o),
(219,-9,cs),
(288,-9,o),
(347,30,o),
(372,92,c),
(375,112,l),
(375,32,o),
(406,-9,o),
(469,-9,cs),
(509,-9,o),
(542,7,o),
(553,26,c),
(549,31,l),
(543,24,o),
(530,17,o),
(505,17,cs),
(458,17,o),
(442,47,o),
(442,122,cs)
);
},
{
closed = 1;
nodes = (
(128,15,o),
(104,157,o),
(104,258,cs),
(104,349,o),
(125,482,o),
(262,482,cs),
(336,482,o),
(375,433,o),
(375,401,cs),
(375,213,ls),
(375,47,o),
(298,15,o),
(243,15,cs)
);
}
);
width = 547;
},
{
layerId = "90062726-3AC9-4659-AA20-F783A3D8E853";
shapes = (
{
closed = 1;
nodes = (
(546,721,l),
(276,691,l),
(276,682,l),
(316,682,o),
(353,686,o),
(353,634,cs),
(353,455,l),
(339,491,o),
(302,500,o),
(268,500,cs),
(121,500,o),
(23,382,o),
(23,227,cs),
(23,88,o),
(99,-9,o),
(212,-9,cs),
(274,-9,o),
(346,30,o),
(355,133,c),
(366,133,l),
(357,47,o),
(397,-9,o),
(489,-9,cs),
(546,-9,o),
(593,9,o),
(609,32,c),
(603,39,l),
(601,35,o),
(589,31,o),
(576,31,cs),
(552,31,o),
(546,60,o),
(546,125,cs)
);
},
{
closed = 1;
nodes = (
(240,71,o),
(234,180,o),
(234,261,cs),
(234,346,o),
(241,476,o),
(307,476,cs),
(337,476,o),
(350,449,o),
(353,410,c),
(353,213,ls),
(353,94,o),
(318,71,o),
(293,71,cs)
);
}
);
width = 620;
},
{
hints = (
{
horizontal = 1;
place = (-6,43);
type = Stem;
},
{
horizontal = 1;
place = (736,-20);
target = down;
type = TopGhost;
},
{
place = (41,213);
type = Stem;
},
{
place = (371,198);
type = Stem;
}
);
layerId = "C0DC133F-6416-4A48-B531-E298505A9AE1";
leftMetricsKey = o;
rightMetricsKey = l;
shapes = (
{
closed = 1;
nodes = (
(439,721,l),
(295,687,l),
(295,684,l),
(351,684,o),
(372,686,o),
(372,634,cs),
(372,441,l),
(354,480,o),
(299,500,o),
(251,500,cs),
(121,500,o),
(28,389,o),
(28,229,cs),
(28,88,o),
(103,-9,o),
(216,-9,cs),
(292,-9,o),
(356,36,o),
(372,151,c),
(372,118,ls),
(372,34,o),
(401,-9,o),
(466,-9,cs),
(504,-9,o),
(535,7,o),
(546,22,c),
(542,27,l),
(537,20,o),
(525,7,o),
(502,7,cs),
(455,7,o),
(439,39,o),
(439,122,cs)
);
},
{
closed = 1;
nodes = (
(125,15,o),
(101,157,o),
(101,258,cs),
(101,355,o),
(122,495,o),
(257,495,cs),
(333,495,o),
(372,439,o),
(372,401,cs),
(372,213,ls),
(372,47,o),
(295,15,o),
(240,15,cs)
);
}
);
width = 534;
},
{
hints = (
{
horizontal = 1;
place = (-6,43);
type = Stem;
},
{
horizontal = 1;
place = (736,-20);
target = down;
type = TopGhost;
},
{
place = (20,213);
type = Stem;
},
{
place = (350,198);
type = Stem;
}
);
layerId = "7291A756-B4B9-4A9F-BCDD-45C2F86033E0";
shapes = (
{
closed = 1;
nodes = (
(543,721,l),
(273,685,l),
(273,682,l),
(329,682,o),
(350,686,o),
(350,634,cs),
(350,452,l),
(338,493,o),
(299,500,o),
(264,500,cs),
(118,500,o),
(20,385,o),
(20,227,cs),
(20,88,o),
(96,-9,o),
(209,-9,cs),
(279,-9,o),
(332,29,o),
(350,127,c),
(350,121,ls),
(350,37,o),
(394,-9,o),
(486,-9,cs),
(542,-9,o),
(588,9,o),
(604,30,c),
(601,34,l),
(598,28,o),
(586,18,o),
(573,18,cs),
(549,18,o),
(543,49,o),
(543,119,cs)
);
},
{
closed = 1;
nodes = (
(237,48,o),
(231,170,o),
(231,261,cs),
(231,351,o),
(238,488,o),
(303,488,cs),
(334,488,o),
(347,455,o),
(350,410,c),
(350,213,ls),
(350,74,o),
(315,48,o),
(290,48,cs)
);
}
);
width = 611;
},
{
layerId = "EC8E161F-9AB2-4247-A7F5-C9BB1661FF9D";
shapes = (
{
closed = 1;
nodes = (
(442,721,l),
(298,692,l),
(298,684,l),
(348,684,o),
(375,688,o),
(375,625,cs),
(375,439,l),
(357,473,o),
(304,500,o),
(256,500,cs),
(124,500,o),
(31,382,o),
(31,229,cs),
(31,88,o),
(106,-9,o),
(219,-9,cs),
(288,-9,o),
(347,30,o),
(372,92,c),
(375,112,l),
(375,32,o),
(406,-9,o),
(469,-9,cs),
(509,-9,o),
(542,7,o),
(553,26,c),
(549,31,l),
(543,24,o),
(530,17,o),
(505,17,cs),
(458,17,o),
(442,47,o),
(442,122,cs)
);
},
{
closed = 1;
nodes = (
(128,15,o),
(104,157,o),
(104,258,cs),
(104,349,o),
(125,482,o),
(262,482,cs),
(336,482,o),
(375,433,o),
(375,401,cs),
(375,213,ls),
(375,47,o),
(298,15,o),
(243,15,cs)
);
}
);
width = 547;
},
{
layerId = "1188AF94-4382-4C0E-9F0C-F5AE7B488C11";
shapes = (
{
closed = 1;
nodes = (
(546,721,l),
(276,691,l),
(276,682,l),
(316,682,o),
(353,686,o),
(353,634,cs),
(353,455,l),
(339,491,o),
(302,500,o),
(268,500,cs),
(121,500,o),
(23,382,o),
(23,227,cs),
(23,88,o),
(99,-9,o),
(212,-9,cs),
(274,-9,o),
(346,30,o),
(355,133,c),
(366,133,l),
(357,47,o),
(397,-9,o),
(489,-9,cs),
(546,-9,o),
(593,9,o),
(609,32,c),
(603,39,l),
(601,35,o),
(589,31,o),
(576,31,cs),
(552,31,o),
(546,60,o),
(546,125,cs)
);
},
{
closed = 1;
nodes = (
(240,71,o),
(234,180,o),
(234,261,cs),
(234,346,o),
(241,476,o),
(307,476,cs),
(337,476,o),
(350,449,o),
(353,410,c),
(353,213,ls),
(353,94,o),
(318,71,o),
(293,71,cs)
);
}
);
width = 620;
},
{
hints = (
{
horizontal = 1;
place = (-6,43);
type = Stem;
},
{
horizontal = 1;
place = (736,-20);
target = down;
type = TopGhost;
},
{
place = (41,213);
type = Stem;
},
{
place = (371,198);
type = Stem;
}
);
layerId = "DFD7F247-A6A1-4633-91D9-01055A0B6A1B";
leftMetricsKey = o;
rightMetricsKey = l;
shapes = (
{
closed = 1;
nodes = (
(439,721,l),
(295,687,l),
(295,684,l),
(351,684,o),
(372,686,o),
(372,634,cs),
(372,441,l),
(354,480,o),
(299,500,o),
(251,500,cs),
(121,500,o),
(28,389,o),
(28,229,cs),
(28,88,o),
(103,-9,o),
(216,-9,cs),
(292,-9,o),
(356,36,o),
(372,151,c),
(372,118,ls),
(372,34,o),
(401,-9,o),
(466,-9,cs),
(504,-9,o),
(535,7,o),
(546,22,c),
(542,27,l),
(537,20,o),
(525,7,o),
(502,7,cs),
(455,7,o),
(439,39,o),
(439,122,cs)
);
},
{
closed = 1;
nodes = (
(125,15,o),
(101,157,o),
(101,258,cs),
(101,355,o),
(122,495,o),
(257,495,cs),
(333,495,o),
(372,439,o),
(372,401,cs),
(372,213,ls),
(372,47,o),
(295,15,o),
(240,15,cs)
);
}
);
width = 534;
},
{
hints = (
{
horizontal = 1;
place = (-6,43);
type = Stem;
},
{
horizontal = 1;
place = (736,-20);
target = down;
type = TopGhost;
},
{
place = (20,213);
type = Stem;
},
{
place = (350,198);
type = Stem;
}
);
layerId = "7DF38E59-3B01-4CE0-9463-5B164C18123B";
shapes = (
{
closed = 1;
nodes = (
(543,721,l),
(273,685,l),
(273,682,l),
(329,682,o),
(350,686,o),
(350,634,cs),
(350,452,l),
(338,493,o),
(299,500,o),
(264,500,cs),
(118,500,o),
(20,385,o),
(20,227,cs),
(20,88,o),
(96,-9,o),
(209,-9,cs),
(279,-9,o),
(332,29,o),
(350,127,c),
(350,121,ls),
(350,37,o),
(394,-9,o),
(486,-9,cs),
(542,-9,o),
(588,9,o),
(604,30,c),
(601,34,l),
(598,28,o),
(586,18,o),
(573,18,cs),
(549,18,o),
(543,49,o),
(543,119,cs)
);
},
{
closed = 1;
nodes = (
(237,48,o),
(231,170,o),
(231,261,cs),
(231,351,o),
(238,488,o),
(303,488,cs),
(334,488,o),
(347,455,o),
(350,410,c),
(350,213,ls),
(350,74,o),
(315,48,o),
(290,48,cs)
);
}
);
width = 611;
}
);
unicode = 100;
},
{
color = (153, 255, 154, 255);
glyphname = d.5;
rightMetricsKey = l.5;
layers = (
{
layerId = "4C496422-9EE2-4715-A1C6-14E7C06350A7";
shapes = (
{
closed = 1;
nodes = (
(375,439,l),
(357,473,o),
(304,500,o),
(256,500,cs),
(124,500,o),
(31,382,o),
(31,229,cs),
(31,88,o),
(106,-9,o),
(219,-9,cs),
(288,-9,o),
(350,27,o),
(375,121,c),
(375,69,ls),
(375,-108,o),
(466,-230,o),
(622,-230,cs),
(698,-230,o),
(782,-202,o),
(805,-139,c),
(799,-132,l),
(776,-189,o),
(701,-219,o),
(637,-219,cs),
(528,-219,o),
(442,-144,o),
(442,31,cs),
(442,721,l),
(298,692,l),
(298,684,l),
(348,684,o),
(375,688,o),
(375,625,cs)
);
},
{
closed = 1;
nodes = (
(128,15,o),
(104,157,o),
(104,258,cs),
(104,349,o),
(125,482,o),
(262,482,cs),
(336,482,o),
(375,433,o),
(375,401,cs),
(375,213,ls),
(375,47,o),
(298,15,o),
(243,15,cs)
);
}
);
width = 527;
},
{
layerId = "90062726-3AC9-4659-AA20-F783A3D8E853";
shapes = (
{
closed = 1;
nodes = (
(353,455,l),
(339,491,o),
(302,500,o),
(268,500,cs),
(121,500,o),
(23,382,o),
(23,227,cs),
(23,88,o),
(99,-9,o),
(212,-9,cs),
(278,-9,o),
(333,28,o),
(357,121,c),
(363,121,l),
(363,-63,o),
(395,-239,o),
(707,-239,cs),
(795,-239,o),
(892,-208,o),
(919,-139,c),
(913,-132,l),
(890,-190,o),
(814,-220,o),
(749,-220,cs),
(641,-220,o),
(547,-145,o),
(547,31,cs),
(546,721,l),
(276,691,l),
(276,682,l),
(316,682,o),
(353,686,o),
(353,634,cs)
);
},
{
closed = 1;
nodes = (
(239,57,o),
(234,174,o),
(234,251,cs),
(234,345,o),
(242,473,o),
(309,473,cs),
(339,473,o),
(350,447,o),
(353,410,c),
(353,179,l),
(347,78,o),
(311,57,o),
(290,57,cs)
);
}
);
width = 609;
},
{
hints = (
{
horizontal = 1;
place = (-6,43);
type = Stem;
},
{
horizontal = 1;
place = (736,-20);
target = down;
type = TopGhost;
},
{
place = (41,213);
type = Stem;
},
{
place = (371,198);
type = Stem;
}
);
layerId = "C0DC133F-6416-4A48-B531-E298505A9AE1";
shapes = (
{
closed = 1;
nodes = (
(372,441,l),
(354,480,o),
(299,500,o),
(251,500,cs),
(121,500,o),
(28,389,o),
(28,229,cs),
(28,88,o),
(103,-9,o),
(216,-9,cs),
(292,-9,o),
(356,36,o),
(372,151,c),
(372,69,ls),
(372,-108,o),
(465,-230,o),
(625,-230,cs),
(701,-230,o),
(781,-202,o),
(808,-139,c),
(805,-136,l),
(782,-193,o),
(707,-223,o),
(643,-223,cs),
(534,-223,o),
(439,-144,o),
(439,31,cs),
(439,721,l),
(295,687,l),
(295,684,l),
(351,684,o),
(372,686,o),
(372,634,cs)
);
},
{
closed = 1;
nodes = (
(125,15,o),
(101,157,o),
(101,258,cs),
(101,355,o),
(122,495,o),
(257,495,cs),
(333,495,o),
(372,439,o),
(372,401,cs),
(372,213,ls),
(372,47,o),
(295,15,o),
(240,15,cs)
);
}
);
width = 527;
},
{
hints = (
{
horizontal = 1;
place = (-6,43);
type = Stem;
},
{
horizontal = 1;
place = (736,-20);
target = down;
type = TopGhost;
},
{
place = (20,213);
type = Stem;
},
{
place = (350,198);
type = Stem;
}
);
layerId = "7291A756-B4B9-4A9F-BCDD-45C2F86033E0";
shapes = (
{
closed = 1;
nodes = (
(350,456,l),
(336,494,o),
(298,500,o),
(264,500,cs),
(118,500,o),
(20,385,o),
(20,227,cs),
(20,88,o),
(96,-9,o),
(209,-9,cs),
(278,-9,o),
(331,28,o),
(350,123,c),
(350,121,l),
(353,-57,o),
(396,-239,o),
(717,-239,cs),
(805,-239,o),
(900,-208,o),
(929,-139,c),
(926,-136,l),
(903,-194,o),
(827,-224,o),
(762,-224,cs),
(654,-224,o),
(544,-145,o),
(544,31,cs),
(543,721,l),
(266,685,l),
(266,682,l),
(322,682,o),
(350,686,o),
(350,634,cs)
);
},
{
closed = 1;
nodes = (
(236,57,o),
(231,174,o),
(231,251,cs),
(231,348,o),
(239,479,o),
(305,479,cs),
(336,479,o),
(347,450,o),
(350,410,c),
(350,179,l),
(344,78,o),
(308,57,o),
(287,57,cs)
);
}
);
width = 616;
},
{
layerId = "EC8E161F-9AB2-4247-A7F5-C9BB1661FF9D";
shapes = (
{
closed = 1;
nodes = (
(375,439,l),
(357,473,o),
(304,500,o),
(256,500,cs),
(124,500,o),
(31,382,o),
(31,229,cs),
(31,88,o),
(106,-9,o),
(219,-9,cs),
(288,-9,o),
(350,27,o),
(375,121,c),
(375,69,ls),
(375,-108,o),
(466,-230,o),
(622,-230,cs),
(698,-230,o),
(782,-202,o),
(805,-139,c),
(799,-132,l),
(776,-189,o),
(701,-219,o),
(637,-219,cs),
(528,-219,o),
(442,-144,o),
(442,31,cs),
(442,721,l),
(298,692,l),
(298,684,l),
(348,684,o),
(375,688,o),
(375,625,cs)
);
},
{
closed = 1;
nodes = (
(128,15,o),
(104,157,o),
(104,258,cs),
(104,349,o),
(125,482,o),
(262,482,cs),
(336,482,o),
(375,433,o),
(375,401,cs),
(375,213,ls),
(375,47,o),
(298,15,o),
(243,15,cs)
);
}
);
width = 527;
},
{
layerId = "1188AF94-4382-4C0E-9F0C-F5AE7B488C11";
shapes = (
{
closed = 1;
nodes = (
(353,455,l),
(339,491,o),
(302,500,o),
(268,500,cs),
(121,500,o),
(23,382,o),
(23,227,cs),
(23,88,o),
(99,-9,o),
(212,-9,cs),
(278,-9,o),
(333,28,o),
(357,121,c),
(363,121,l),
(363,-63,o),
(395,-239,o),
(707,-239,cs),
(795,-239,o),
(892,-208,o),
(919,-139,c),
(913,-132,l),
(890,-190,o),
(814,-220,o),
(749,-220,cs),
(641,-220,o),
(547,-145,o),
(547,31,c),
(546,721,l),
(276,691,l),
(276,682,l),
(316,682,o),
(353,686,o),
(353,634,cs)
);
},
{
closed = 1;
nodes = (
(239,57,o),
(234,174,o),
(234,251,cs),
(234,345,o),
(242,473,o),
(309,473,cs),
(339,473,o),
(350,447,o),
(353,410,c),
(353,179,l),
(347,78,o),
(311,57,o),
(290,57,cs)
);
}
);
width = 609;
},
{
hints = (
{
horizontal = 1;
place = (-6,43);
type = Stem;
},
{
horizontal = 1;
place = (736,-20);
target = down;
type = TopGhost;
},
{
place = (41,213);
type = Stem;
},
{
place = (371,198);
type = Stem;
}
);
layerId = "DFD7F247-A6A1-4633-91D9-01055A0B6A1B";
shapes = (
{
closed = 1;
nodes = (
(372,441,l),
(354,480,o),
(299,500,o),
(251,500,cs),
(121,500,o),
(28,389,o),
(28,229,cs),
(28,88,o),
(103,-9,o),
(216,-9,cs),
(292,-9,o),
(356,36,o),
(372,151,c),
(372,69,ls),
(372,-108,o),
(465,-230,o),
(625,-230,cs),
(701,-230,o),
(781,-202,o),
(808,-139,c),
(805,-136,l),
(782,-193,o),
(707,-223,o),
(643,-223,cs),
(534,-223,o),
(439,-144,o),
(439,31,cs),
(439,721,l),
(295,687,l),
(295,684,l),
(351,684,o),
(372,686,o),
(372,634,cs)
);
},
{
closed = 1;
nodes = (
(125,15,o),
(101,157,o),
(101,258,cs),
(101,355,o),
(122,495,o),
(257,495,cs),
(333,495,o),
(372,439,o),
(372,401,cs),
(372,213,ls),
(372,47,o),
(295,15,o),
(240,15,cs)
);
}
);
width = 527;
},
{
hints = (
{
horizontal = 1;
place = (-6,43);
type = Stem;
},
{
horizontal = 1;
place = (736,-20);
target = down;
type = TopGhost;
},
{
place = (20,213);
type = Stem;
},
{
place = (350,198);
type = Stem;
}
);
layerId = "7DF38E59-3B01-4CE0-9463-5B164C18123B";
shapes = (
{
closed = 1;
nodes = (
(350,456,l),
(336,494,o),
(298,500,o),
(264,500,cs),
(118,500,o),
(20,385,o),
(20,227,cs),
(20,88,o),
(96,-9,o),
(209,-9,cs),
(278,-9,o),
(331,28,o),
(350,123,c),
(350,121,l),
(353,-57,o),
(396,-239,o),
(717,-239,cs),
(805,-239,o),
(900,-208,o),
(929,-139,c),
(926,-136,l),
(903,-194,o),
(827,-224,o),
(762,-224,cs),
(654,-224,o),
(544,-145,o),
(544,31,cs),
(543,721,l),
(266,685,l),
(266,682,l),
(322,682,o),
(350,686,o),
(350,634,cs)
);
},
{
closed = 1;
nodes = (
(236,57,o),
(231,174,o),
(231,251,cs),
(231,348,o),
(239,479,o),
(305,479,cs),
(336,479,o),
(347,450,o),
(350,410,c),
(350,179,l),
(344,78,o),
(308,57,o),
(287,57,cs)
);
}
);
width = 616;
}
);
},
{
color = (153, 255, 154, 255);
glyphname = d.4;
layers = (
{
layerId = "4C496422-9EE2-4715-A1C6-14E7C06350A7";
shapes = (
{
closed = 1;
nodes = (
(31,88,o),
(106,-9,o),
(219,-9,cs),
(288,-9,o),
(350,27,o),
(375,121,c),
(377,-245,o),
(640,-414,o),
(960,-414,cs),
(1313,-414,o),
(1621,-161,o),
(1621,207,cs),
(1621,544,o),
(1348,817,o),
(1011,817,cs),
(853,817,o),
(709,757,o),
(601,659,c),
(610,651,l),
(716,747,o),
(857,805,o),
(1011,805,cs),
(1341,805,o),
(1609,537,o),
(1609,207,cs),
(1609,-144,o),
(1311,-396,o),
(971,-396,cs),
(690,-396,o),
(442,-227,o),
(442,109,cs),
(442,721,l),
(298,691,l),
(298,684,l),
(348,684,o),
(375,688,o),
(375,625,cs),
(375,439,l),
(357,473,o),
(304,500,o),
(256,500,cs),
(124,500,o),
(31,382,o),
(31,229,cs)
);
},
{
closed = 1;
nodes = (
(128,15,o),
(104,157,o),
(104,258,cs),
(104,349,o),
(125,482,o),
(262,482,cs),
(336,482,o),
(375,433,o),
(375,401,cs),
(375,213,ls),
(375,47,o),
(298,15,o),
(243,15,cs)
);
}
);
width = 518;
},
{
layerId = "90062726-3AC9-4659-AA20-F783A3D8E853";
shapes = (
{
closed = 1;
nodes = (
(23,88,o),
(99,-9,o),
(212,-9,cs),
(280,-9,o),
(333,26,o),
(355,117,c),
(381,-222,o),
(690,-413,o),
(1054,-413,cs),
(1397,-413,o),
(1674,-136,o),
(1674,207,cs),
(1674,544,o),
(1401,817,o),
(1064,817,cs),
(906,817,o),
(762,757,o),
(654,659,c),
(663,651,l),
(769,747,o),
(910,805,o),
(1064,805,cs),
(1394,805,o),
(1662,537,o),
(1662,207,cs),
(1662,-122,o),
(1394,-390,o),
(1064,-390,cs),
(793,-390,o),
(546,-226,o),
(546,138,cs),
(546,721,l),
(276,691,l),
(276,682,l),
(316,682,o),
(353,686,o),
(353,634,cs),
(353,455,l),
(339,491,o),
(302,500,o),
(268,500,cs),
(121,500,o),
(23,382,o),
(23,227,cs)
);
},
{
closed = 1;
nodes = (
(239,57,o),
(234,174,o),
(234,251,cs),
(234,345,o),
(242,473,o),
(309,473,cs),
(339,473,o),
(350,447,o),
(353,410,c),
(353,179,l),
(347,78,o),
(311,57,o),
(290,57,cs)
);
}
);
width = 617;
},
{
layerId = "C0DC133F-6416-4A48-B531-E298505A9AE1";
leftMetricsKey = o;
shapes = (
{
closed = 1;
nodes = (
(28,88,o),
(103,-9,o),
(216,-9,cs),
(292,-9,o),
(356,36,o),
(372,151,c),
(372,-217,o),
(635,-414,o),
(957,-414,cs),
(1310,-414,o),
(1618,-161,o),
(1618,207,cs),
(1618,544,o),
(1345,817,o),
(1008,817,cs),
(850,817,o),
(706,757,o),
(598,659,c),
(601,655,l),
(709,753,o),
(852,813,o),
(1008,813,cs),
(1342,813,o),
(1614,541,o),
(1614,207,cs),
(1614,-150,o),
(1312,-406,o),
(968,-406,cs),
(687,-406,o),
(439,-234,o),
(439,109,cs),
(439,721,l),
(295,687,l),
(295,684,l),
(351,684,o),
(372,686,o),
(372,634,cs),
(372,441,l),
(354,480,o),
(299,500,o),
(251,500,cs),
(121,500,o),
(28,389,o),
(28,229,cs)
);
},
{
closed = 1;
nodes = (
(125,15,o),
(101,157,o),
(101,258,cs),
(101,355,o),
(122,495,o),
(257,495,cs),
(333,495,o),
(372,439,o),
(372,401,cs),
(372,213,ls),
(372,47,o),
(295,15,o),
(240,15,cs)
);
}
);
width = 512;
},
{
layerId = "7291A756-B4B9-4A9F-BCDD-45C2F86033E0";
shapes = (
{
closed = 1;
nodes = (
(20,88,o),
(96,-9,o),
(209,-9,cs),
(281,-9,o),
(335,31,o),
(351,135,c),
(374,-207,o),
(684,-413,o),
(1051,-413,cs),
(1394,-413,o),
(1671,-136,o),
(1671,207,cs),
(1671,544,o),
(1398,817,o),
(1061,817,cs),
(903,817,o),
(759,757,o),
(651,659,c),
(654,655,l),
(762,753,o),
(905,813,o),
(1061,813,cs),
(1395,813,o),
(1667,541,o),
(1667,207,cs),
(1667,-128,o),
(1395,-400,o),
(1061,-400,cs),
(790,-400,o),
(543,-233,o),
(543,138,cs),
(543,721,l),
(273,685,l),
(273,682,l),
(329,682,o),
(350,686,o),
(350,634,cs),
(350,452,l),
(338,493,o),
(299,500,o),
(264,500,cs),
(118,500,o),
(20,385,o),
(20,227,cs)
);
},
{
closed = 1;
nodes = (
(237,48,o),
(231,170,o),
(231,261,cs),
(231,351,o),
(238,488,o),
(303,488,cs),
(334,488,o),
(347,455,o),
(350,410,c),
(350,213,ls),
(350,74,o),
(315,48,o),
(290,48,cs)
);
}
);
width = 611;
},
{
layerId = "EC8E161F-9AB2-4247-A7F5-C9BB1661FF9D";
shapes = (
{
closed = 1;
nodes = (
(31,88,o),
(106,-9,o),
(219,-9,cs),
(288,-9,o),
(350,27,o),
(375,121,c),
(377,-245,o),
(640,-414,o),
(960,-414,cs),
(1313,-414,o),
(1621,-161,o),
(1621,207,cs),
(1621,544,o),
(1348,817,o),
(1011,817,cs),
(853,817,o),
(709,757,o),
(601,659,c),
(610,651,l),
(716,747,o),
(857,805,o),
(1011,805,cs),
(1341,805,o),
(1609,537,o),
(1609,207,cs),
(1609,-144,o),
(1311,-396,o),
(971,-396,cs),
(690,-396,o),
(442,-227,o),
(442,109,cs),
(442,721,l),
(298,691,l),
(298,684,l),
(348,684,o),
(375,688,o),
(375,625,cs),
(375,439,l),
(357,473,o),
(304,500,o),
(256,500,cs),
(124,500,o),
(31,382,o),
(31,229,cs)
);
},
{
closed = 1;
nodes = (
(128,15,o),
(104,157,o),
(104,258,cs),
(104,349,o),
(125,482,o),
(262,482,cs),
(336,482,o),
(375,433,o),
(375,401,cs),
(375,213,ls),
(375,47,o),
(298,15,o),
(243,15,cs)
);
}
);
width = 518;
},
{
layerId = "1188AF94-4382-4C0E-9F0C-F5AE7B488C11";
shapes = (
{
closed = 1;
nodes = (
(23,88,o),
(99,-9,o),
(212,-9,cs),
(280,-9,o),
(333,26,o),
(355,117,c),
(381,-222,o),
(690,-413,o),
(1054,-413,cs),
(1397,-413,o),
(1674,-136,o),
(1674,207,cs),
(1674,544,o),
(1401,817,o),
(1064,817,cs),
(906,817,o),
(762,757,o),
(654,659,c),
(663,651,l),
(769,747,o),
(910,805,o),
(1064,805,cs),
(1394,805,o),
(1662,537,o),
(1662,207,cs),
(1662,-122,o),
(1394,-390,o),
(1064,-390,cs),
(793,-390,o),
(546,-226,o),
(546,138,cs),
(546,721,l),
(276,691,l),
(276,682,l),
(316,682,o),
(353,686,o),
(353,634,cs),
(353,455,l),
(339,491,o),
(302,500,o),
(268,500,cs),
(121,500,o),
(23,382,o),
(23,227,cs)
);
},
{
closed = 1;
nodes = (
(239,57,o),
(234,174,o),
(234,251,cs),
(234,345,o),
(242,473,o),
(309,473,cs),
(339,473,o),
(350,447,o),
(353,410,c),
(353,179,l),
(347,78,o),
(311,57,o),
(290,57,cs)
);
}
);
width = 617;
},
{
layerId = "DFD7F247-A6A1-4633-91D9-01055A0B6A1B";
leftMetricsKey = o;
shapes = (
{
closed = 1;
nodes = (
(28,88,o),
(103,-9,o),
(216,-9,cs),
(292,-9,o),
(356,36,o),
(372,151,c),
(372,-217,o),
(635,-414,o),
(957,-414,cs),
(1310,-414,o),
(1618,-161,o),
(1618,207,cs),
(1618,544,o),
(1345,817,o),
(1008,817,cs),
(850,817,o),
(706,757,o),
(598,659,c),
(601,655,l),
(709,753,o),
(852,813,o),
(1008,813,cs),
(1342,813,o),
(1614,541,o),
(1614,207,cs),
(1614,-150,o),
(1312,-406,o),
(968,-406,cs),
(687,-406,o),
(439,-234,o),
(439,109,cs),
(439,721,l),
(295,687,l),
(295,684,l),
(351,684,o),
(372,686,o),
(372,634,cs),
(372,441,l),
(354,480,o),
(299,500,o),
(251,500,cs),
(121,500,o),
(28,389,o),
(28,229,cs)
);
},
{
closed = 1;
nodes = (
(125,15,o),
(101,157,o),
(101,258,cs),
(101,355,o),
(122,495,o),
(257,495,cs),
(333,495,o),
(372,439,o),
(372,401,cs),
(372,213,ls),
(372,47,o),
(295,15,o),
(240,15,cs)
);
}
);
width = 512;
},
{
layerId = "7DF38E59-3B01-4CE0-9463-5B164C18123B";
shapes = (
{
closed = 1;
nodes = (
(20,88,o),
(96,-9,o),
(209,-9,cs),
(281,-9,o),
(335,31,o),
(351,135,c),
(374,-207,o),
(684,-413,o),
(1051,-413,cs),
(1394,-413,o),
(1671,-136,o),
(1671,207,cs),
(1671,544,o),
(1398,817,o),
(1061,817,cs),
(903,817,o),
(759,757,o),
(651,659,c),
(654,655,l),
(762,753,o),
(905,813,o),
(1061,813,cs),
(1395,813,o),
(1667,541,o),
(1667,207,cs),
(1667,-128,o),
(1395,-400,o),
(1061,-400,cs),
(790,-400,o),
(543,-233,o),
(543,138,cs),
(543,721,l),
(273,685,l),
(273,682,l),
(329,682,o),
(350,686,o),
(350,634,cs),
(350,452,l),
(338,493,o),
(299,500,o),
(264,500,cs),
(118,500,o),
(20,385,o),
(20,227,cs)
);
},
{
closed = 1;
nodes = (
(237,48,o),
(231,170,o),
(231,261,cs),
(231,351,o),
(238,488,o),
(303,488,cs),
(334,488,o),
(347,455,o),
(350,410,c),
(350,213,ls),
(350,74,o),
(315,48,o),
(290,48,cs)
);
}
);
width = 611;
}
);
},
{
color = (153, 255, 154, 255);
glyphname = d.6;
layers = (
{
layerId = "4C496422-9EE2-4715-A1C6-14E7C06350A7";
shapes = (
{
closed = 1;
nodes = (
(604,-192,l),
(738,-314,o),
(918,-389,o),
(1115,-389,cs),
(1555,-389,o),
(1909,-29,o),
(1909,421,cs),
(1909,878,o),
(1550,1243,o),
(1102,1243,cs),
(706,1243,o),
(378,923,o),
(378,517,cs),
(378,435,l),
(378,430,l),
(364,470,o),
(307,500,o),
(256,500,cs),
(124,500,o),
(31,382,o),
(31,229,cs),
(31,88,o),
(106,-9,o),
(219,-9,cs),
(288,-9,o),
(350,27,o),
(375,121,c),
(375,118,ls),
(375,34,o),
(404,-9,o),
(469,-9,cs),
(509,-9,o),
(542,7,o),
(553,26,c),
(549,31,l),
(546,26,o),
(530,22,o),
(505,22,cs),
(458,22,o),
(442,50,o),
(442,122,cs),
(442,617,ls),
(442,974,o),
(773,1226,o),
(1105,1226,cs),
(1543,1226,o),
(1897,868,o),
(1897,421,cs),
(1897,-21,o),
(1547,-376,o),
(1115,-376,cs),
(923,-376,o),
(746,-305,o),
(613,-187,c)
);
},
{
closed = 1;
nodes = (
(128,15,o),
(104,157,o),
(104,258,cs),
(104,349,o),
(125,482,o),
(262,482,cs),
(336,482,o),
(375,433,o),
(375,401,cs),
(375,213,ls),
(375,47,o),
(298,15,o),
(243,15,cs)
);
}
);
width = 546;
},
{
layerId = "90062726-3AC9-4659-AA20-F783A3D8E853";
shapes = (
{
closed = 1;
nodes = (
(619,-192,l),
(753,-314,o),
(933,-389,o),
(1130,-389,cs),
(1570,-389,o),
(1924,-29,o),
(1924,421,cs),
(1924,878,o),
(1565,1243,o),
(1117,1243,cs),
(648,1243,o),
(363,923,o),
(363,517,cs),
(363,449,l),
(356,444,l),
(345,490,o),
(305,500,o),
(268,500,cs),
(121,500,o),
(23,382,o),
(23,227,cs),
(23,88,o),
(99,-9,o),
(212,-9,cs),
(278,-9,o),
(340,31,o),
(355,133,c),
(366,133,l),
(357,47,o),
(397,-9,o),
(489,-9,cs),
(546,-9,o),
(593,9,o),
(609,32,c),
(603,39,l),
(601,35,o),
(589,31,o),
(576,31,cs),
(552,31,o),
(546,60,o),
(546,125,cs),
(546,617,ls),
(546,974,o),
(791,1226,o),
(1120,1226,cs),
(1558,1226,o),
(1912,868,o),
(1912,421,cs),
(1912,-21,o),
(1562,-376,o),
(1130,-376,cs),
(938,-376,o),
(761,-305,o),
(628,-187,c)
);
},
{
closed = 1;
nodes = (
(239,57,o),
(234,174,o),
(234,251,cs),
(234,345,o),
(242,473,o),
(309,473,cs),
(339,473,o),
(350,447,o),
(353,410,c),
(353,213,ls),
(353,105,o),
(311,57,o),
(290,57,cs)
);
}
);
width = 617;
},
{
layerId = "C0DC133F-6416-4A48-B531-E298505A9AE1";
leftMetricsKey = o;
shapes = (
{
closed = 1;
nodes = (
(601,-192,l),
(735,-314,o),
(915,-389,o),
(1112,-389,cs),
(1552,-389,o),
(1906,-29,o),
(1906,421,cs),
(1906,878,o),
(1547,1243,o),
(1099,1243,cs),
(703,1243,o),
(375,923,o),
(375,517,cs),
(375,437,l),
(375,434,l),
(361,477,o),
(302,500,o),
(251,500,cs),
(121,500,o),
(28,389,o),
(28,229,cs),
(28,88,o),
(103,-9,o),
(216,-9,cs),
(292,-9,o),
(356,36,o),
(372,151,c),
(372,118,ls),
(372,34,o),
(401,-9,o),
(466,-9,cs),
(504,-9,o),
(535,7,o),
(546,22,c),
(542,27,l),
(537,20,o),
(525,7,o),
(502,7,cs),
(455,7,o),
(439,39,o),
(439,122,cs),
(439,617,ls),
(439,980,o),
(770,1236,o),
(1102,1236,cs),
(1544,1236,o),
(1902,874,o),
(1902,421,cs),
(1902,-25,o),
(1548,-384,o),
(1112,-384,cs),
(918,-384,o),
(739,-309,o),
(604,-187,c)
);
},
{
closed = 1;
nodes = (
(125,15,o),
(101,157,o),
(101,258,cs),
(101,355,o),
(122,495,o),
(257,495,cs),
(333,495,o),
(372,439,o),
(372,401,cs),
(372,213,ls),
(372,47,o),
(295,15,o),
(240,15,cs)
);
}
);
width = 540;
},
{
layerId = "7291A756-B4B9-4A9F-BCDD-45C2F86033E0";
shapes = (
{
closed = 1;
nodes = (
(616,-192,l),
(750,-314,o),
(930,-389,o),
(1127,-389,cs),
(1567,-389,o),
(1921,-29,o),
(1921,421,cs),
(1921,878,o),
(1562,1243,o),
(1114,1243,cs),
(645,1243,o),
(358,923,o),
(358,517,cs),
(358,450,l),
(352,445,l),
(342,492,o),
(301,500,o),
(264,500,cs),
(118,500,o),
(20,385,o),
(20,227,cs),
(20,88,o),
(96,-9,o),
(209,-9,cs),
(279,-9,o),
(332,29,o),
(350,127,c),
(350,121,ls),
(350,37,o),
(394,-9,o),
(486,-9,cs),
(542,-9,o),
(588,9,o),
(604,30,c),
(601,34,l),
(598,28,o),
(586,18,o),
(573,18,cs),
(549,18,o),
(543,49,o),
(543,125,cs),
(543,617,ls),
(543,980,o),
(788,1236,o),
(1117,1236,cs),
(1559,1236,o),
(1917,874,o),
(1917,421,cs),
(1917,-25,o),
(1563,-384,o),
(1127,-384,cs),
(933,-384,o),
(754,-309,o),
(619,-187,c)
);
},
{
closed = 1;
nodes = (
(237,48,o),
(231,170,o),
(231,261,cs),
(231,351,o),
(238,488,o),
(303,488,cs),
(334,488,o),
(347,455,o),
(350,410,c),
(350,213,ls),
(350,74,o),
(315,48,o),
(290,48,cs)
);
}
);
width = 611;
},
{
layerId = "EC8E161F-9AB2-4247-A7F5-C9BB1661FF9D";
shapes = (
{
closed = 1;
nodes = (
(604,-192,l),
(738,-314,o),
(918,-389,o),
(1115,-389,cs),
(1555,-389,o),
(1909,-29,o),
(1909,421,cs),
(1909,878,o),
(1550,1243,o),
(1102,1243,cs),
(706,1243,o),
(378,923,o),
(378,517,cs),
(378,435,l),
(378,430,l),
(364,470,o),
(307,500,o),
(256,500,cs),
(124,500,o),
(31,382,o),
(31,229,cs),
(31,88,o),
(106,-9,o),
(219,-9,cs),
(288,-9,o),
(350,27,o),
(375,121,c),
(375,118,ls),
(375,34,o),
(404,-9,o),
(469,-9,cs),
(509,-9,o),
(542,7,o),
(553,26,c),
(549,31,l),
(546,26,o),
(530,22,o),
(505,22,cs),
(458,22,o),
(442,50,o),
(442,122,cs),
(442,617,ls),
(442,974,o),
(773,1226,o),
(1105,1226,cs),
(1543,1226,o),
(1897,868,o),
(1897,421,cs),
(1897,-21,o),
(1547,-376,o),
(1115,-376,cs),
(923,-376,o),
(746,-305,o),
(613,-187,c)
);
},
{
closed = 1;
nodes = (
(128,15,o),
(104,157,o),
(104,258,cs),
(104,349,o),
(125,482,o),
(262,482,cs),
(336,482,o),
(375,433,o),
(375,401,cs),
(375,213,ls),
(375,47,o),
(298,15,o),
(243,15,cs)
);
}
);
width = 546;
},
{
layerId = "1188AF94-4382-4C0E-9F0C-F5AE7B488C11";
shapes = (
{
closed = 1;
nodes = (
(619,-192,l),
(753,-314,o),
(933,-389,o),
(1130,-389,cs),
(1570,-389,o),
(1924,-29,o),
(1924,421,cs),
(1924,878,o),
(1565,1243,o),
(1117,1243,cs),
(648,1243,o),
(363,923,o),
(363,517,cs),
(363,449,l),
(356,444,l),
(345,490,o),
(305,500,o),
(268,500,cs),
(121,500,o),
(23,382,o),
(23,227,cs),
(23,88,o),
(99,-9,o),
(212,-9,cs),
(278,-9,o),
(340,31,o),
(355,133,c),
(366,133,l),
(357,47,o),
(397,-9,o),
(489,-9,cs),
(546,-9,o),
(593,9,o),
(609,32,c),
(603,39,l),
(601,35,o),
(589,31,o),
(576,31,cs),
(552,31,o),
(546,60,o),
(546,125,cs),
(546,617,ls),
(546,974,o),
(791,1226,o),
(1120,1226,cs),
(1558,1226,o),
(1912,868,o),
(1912,421,cs),
(1912,-21,o),
(1562,-376,o),
(1130,-376,cs),
(938,-376,o),
(761,-305,o),
(628,-187,c)
);
},
{
closed = 1;
nodes = (
(239,57,o),
(234,174,o),
(234,251,cs),
(234,345,o),
(242,473,o),
(309,473,cs),
(339,473,o),
(350,447,o),
(353,410,c),
(353,213,ls),
(353,105,o),
(311,57,o),
(290,57,cs)
);
}
);
width = 617;
},
{
layerId = "DFD7F247-A6A1-4633-91D9-01055A0B6A1B";
leftMetricsKey = o;
shapes = (
{
closed = 1;
nodes = (
(601,-192,l),
(735,-314,o),
(915,-389,o),
(1112,-389,cs),
(1552,-389,o),
(1906,-29,o),
(1906,421,cs),
(1906,878,o),
(1547,1243,o),
(1099,1243,cs),
(703,1243,o),
(375,923,o),
(375,517,cs),
(375,437,l),
(375,434,l),
(361,477,o),
(302,500,o),
(251,500,cs),
(121,500,o),
(28,389,o),
(28,229,cs),
(28,88,o),
(103,-9,o),
(216,-9,cs),
(292,-9,o),
(356,36,o),
(372,151,c),
(372,118,ls),
(372,34,o),
(401,-9,o),
(466,-9,cs),
(504,-9,o),
(535,7,o),
(546,22,c),
(542,27,l),
(537,20,o),
(525,7,o),
(502,7,cs),
(455,7,o),
(439,39,o),
(439,122,cs),
(439,617,ls),
(439,980,o),
(770,1236,o),
(1102,1236,cs),
(1544,1236,o),
(1902,874,o),
(1902,421,cs),
(1902,-25,o),
(1548,-384,o),
(1112,-384,cs),
(918,-384,o),
(739,-309,o),
(604,-187,c)
);
},
{
closed = 1;
nodes = (
(125,15,o),
(101,157,o),
(101,258,cs),
(101,355,o),
(122,495,o),
(257,495,cs),
(333,495,o),
(372,439,o),
(372,401,cs),
(372,213,ls),
(372,47,o),
(295,15,o),
(240,15,cs)
);
}
);
width = 540;
},
{
layerId = "7DF38E59-3B01-4CE0-9463-5B164C18123B";
shapes = (
{
closed = 1;
nodes = (
(616,-192,l),
(750,-314,o),
(930,-389,o),
(1127,-389,cs),
(1567,-389,o),
(1921,-29,o),
(1921,421,cs),
(1921,878,o),
(1562,1243,o),
(1114,1243,cs),
(645,1243,o),
(358,923,o),
(358,517,cs),
(358,450,l),
(352,445,l),
(342,492,o),
(301,500,o),
(264,500,cs),
(118,500,o),
(20,385,o),
(20,227,cs),
(20,88,o),
(96,-9,o),
(209,-9,cs),
(279,-9,o),
(332,29,o),
(350,127,c),
(350,121,ls),
(350,37,o),
(394,-9,o),
(486,-9,cs),
(542,-9,o),
(588,9,o),
(604,30,c),
(601,34,l),
(598,28,o),
(586,18,o),
(573,18,cs),
(549,18,o),
(543,49,o),
(543,125,cs),
(543,617,ls),
(543,980,o),
(788,1236,o),
(1117,1236,cs),
(1559,1236,o),
(1917,874,o),
(1917,421,cs),
(1917,-25,o),
(1563,-384,o),
(1127,-384,cs),
(933,-384,o),
(754,-309,o),
(619,-187,c)
);
},
{
closed = 1;
nodes = (
(237,48,o),
(231,170,o),
(231,261,cs),
(231,351,o),
(238,488,o),
(303,488,cs),
(334,488,o),
(347,455,o),
(350,410,c),
(350,213,ls),
(350,74,o),
(315,48,o),
(290,48,cs)
);
}
);
width = 611;
}
);
},
{
color = (153, 255, 154, 255);
glyphname = d.6.more;
layers = (
{
layerId = "4C496422-9EE2-4715-A1C6-14E7C06350A7";
shapes = (
{
closed = 1;
nodes = (
(-382,-321,l),
(-281,-210,o),
(-133,-146,o),
(33,-146,cs),
(412,-146,o),
(678,-388,o),
(1108,-388,cs),
(1548,-388,o),
(1902,-29,o),
(1902,421,cs),
(1902,878,o),
(1543,1243,o),
(1095,1243,cs),
(699,1243,o),
(371,923,o),
(371,517,cs),
(371,436,l),
(371,434,o),
(371,431,o),
(371,430,c),
(357,470,o),
(300,500,o),
(249,500,cs),
(117,500,o),
(24,382,o),
(24,229,cs),
(24,88,o),
(99,-9,o),
(212,-9,cs),
(281,-9,o),
(343,27,o),
(368,121,c),
(368,118,ls),
(368,34,o),
(397,-9,o),
(462,-9,cs),
(502,-9,o),
(535,7,o),
(546,26,c),
(545,27,o),
(543,30,o),
(542,31,c),
(539,26,o),
(523,22,o),
(498,22,cs),
(451,22,o),
(435,50,o),
(435,122,cs),
(435,617,ls),
(435,975,o),
(766,1227,o),
(1098,1227,cs),
(1536,1227,o),
(1890,869,o),
(1890,421,cs),
(1890,-21,o),
(1540,-376,o),
(1108,-376,cs),
(686,-376,o),
(415,-134,o),
(33,-134,cs),
(-138,-134,o),
(-292,-201,o),
(-395,-318,c)
);
},
{
closed = 1;
nodes = (
(121,15,o),
(97,157,o),
(97,258,cs),
(97,349,o),
(118,482,o),
(255,482,cs),
(329,482,o),
(368,433,o),
(368,401,cs),
(368,377,o),
(368,247,o),
(368,213,cs),
(368,47,o),
(291,15,o),
(236,15,cs)
);
}
);
width = 539;
},
{
layerId = "90062726-3AC9-4659-AA20-F783A3D8E853";
shapes = (
{
closed = 1;
nodes = (
(-360,-321,l),
(-259,-210,o),
(-111,-146,o),
(55,-146,cs),
(434,-146,o),
(700,-388,o),
(1130,-388,cs),
(1568,-388,o),
(1924,-28,o),
(1924,421,cs),
(1924,878,o),
(1565,1243,o),
(1117,1243,cs),
(648,1243,o),
(363,923,o),
(363,517,cs),
(363,443,l),
(361,443,o),
(358,442,o),
(357,442,c),
(346,489,o),
(305,500,o),
(268,500,cs),
(121,500,o),
(23,382,o),
(23,227,cs),
(23,88,o),
(99,-9,o),
(212,-9,cs),
(278,-9,o),
(340,31,o),
(355,133,c),
(366,133,l),
(357,47,o),
(397,-9,o),
(489,-9,cs),
(546,-9,o),
(593,9,o),
(609,32,c),
(608,33,o),
(604,38,o),
(603,39,c),
(601,35,o),
(589,31,o),
(576,31,cs),
(552,31,o),
(546,60,o),
(546,125,cs),
(546,617,ls),
(546,975,o),
(791,1227,o),
(1120,1227,cs),
(1558,1227,o),
(1912,869,o),
(1912,421,cs),
(1912,-21,o),
(1562,-376,o),
(1130,-376,cs),
(708,-376,o),
(437,-134,o),
(55,-134,cs),
(-116,-134,o),
(-270,-201,o),
(-373,-318,c)
);
},
{
closed = 1;
nodes = (
(239,57,o),
(234,174,o),
(234,251,cs),
(234,345,o),
(242,473,o),
(309,473,cs),
(339,473,o),
(350,447,o),
(353,410,c),
(353,368,o),
(353,241,o),
(353,213,cs),
(353,105,o),
(311,57,o),
(290,57,cs)
);
}
);
width = 617;
},
{
layerId = "C0DC133F-6416-4A48-B531-E298505A9AE1";
shapes = (
{
closed = 1;
nodes = (
(-393,-320,l),
(-290,-210,o),
(-139,-146,o),
(30,-146,cs),
(409,-146,o),
(675,-388,o),
(1105,-388,cs),
(1545,-388,o),
(1899,-29,o),
(1899,421,cs),
(1899,878,o),
(1540,1243,o),
(1092,1243,cs),
(696,1243,o),
(368,923,o),
(368,517,cs),
(368,438,l),
(368,437,o),
(368,434,o),
(368,434,c),
(354,477,o),
(295,500,o),
(244,500,cs),
(114,500,o),
(21,389,o),
(21,229,cs),
(21,88,o),
(96,-9,o),
(209,-9,cs),
(285,-9,o),
(349,36,o),
(365,151,c),
(365,118,ls),
(365,34,o),
(394,-9,o),
(459,-9,cs),
(497,-9,o),
(528,7,o),
(539,22,c),
(539,22,o),
(535,27,o),
(535,27,c),
(530,20,o),
(518,7,o),
(495,7,cs),
(448,7,o),
(432,39,o),
(432,122,cs),
(432,617,ls),
(432,979,o),
(763,1235,o),
(1095,1235,cs),
(1537,1235,o),
(1895,873,o),
(1895,421,cs),
(1895,-25,o),
(1541,-384,o),
(1105,-384,cs),
(683,-384,o),
(412,-142,o),
(30,-142,cs),
(-141,-142,o),
(-295,-206,o),
(-398,-318,c)
);
},
{
closed = 1;
nodes = (
(118,15,o),
(94,157,o),
(94,258,cs),
(94,355,o),
(115,495,o),
(250,495,cs),
(326,495,o),
(365,439,o),
(365,401,cs),
(365,389,o),
(365,230,o),
(365,213,cs),
(365,47,o),
(288,15,o),
(233,15,cs)
);
}
);
width = 533;
},
{
layerId = "7291A756-B4B9-4A9F-BCDD-45C2F86033E0";
shapes = (
{
closed = 1;
nodes = (
(-371,-320,l),
(-268,-210,o),
(-117,-146,o),
(52,-146,cs),
(431,-146,o),
(697,-388,o),
(1127,-388,cs),
(1565,-388,o),
(1921,-28,o),
(1921,421,cs),
(1921,878,o),
(1562,1243,o),
(1114,1243,cs),
(645,1243,o),
(358,923,o),
(358,517,cs),
(358,444,l),
(357,444,o),
(352,444,o),
(352,444,c),
(343,492,o),
(301,500,o),
(264,500,cs),
(118,500,o),
(20,385,o),
(20,227,cs),
(20,88,o),
(96,-9,o),
(209,-9,cs),
(279,-9,o),
(332,29,o),
(350,127,c),
(350,121,ls),
(350,37,o),
(394,-9,o),
(486,-9,cs),
(542,-9,o),
(588,9,o),
(604,30,c),
(604,30,o),
(601,34,o),
(601,34,c),
(598,28,o),
(586,18,o),
(573,18,cs),
(549,18,o),
(543,49,o),
(543,125,cs),
(543,617,ls),
(543,979,o),
(788,1235,o),
(1117,1235,cs),
(1559,1235,o),
(1917,873,o),
(1917,421,cs),
(1917,-25,o),
(1563,-384,o),
(1127,-384,cs),
(705,-384,o),
(434,-142,o),
(52,-142,cs),
(-119,-142,o),
(-273,-206,o),
(-376,-318,c)
);
},
{
closed = 1;
nodes = (
(237,48,o),
(231,170,o),
(231,261,cs),
(231,351,o),
(238,488,o),
(303,488,cs),
(334,488,o),
(347,455,o),
(350,410,c),
(350,397,o),
(350,231,o),
(350,213,cs),
(350,74,o),
(315,48,o),
(290,48,cs)
);
}
);
width = 611;
},
{
layerId = "EC8E161F-9AB2-4247-A7F5-C9BB1661FF9D";
shapes = (
{
closed = 1;
nodes = (
(-382,-321,l),
(-281,-210,o),
(-133,-146,o),
(33,-146,cs),
(412,-146,o),
(678,-388,o),
(1108,-388,cs),
(1548,-388,o),
(1902,-29,o),
(1902,421,cs),
(1902,878,o),
(1543,1243,o),
(1095,1243,cs),
(699,1243,o),
(371,923,o),
(371,517,cs),
(371,436,l),
(371,434,o),
(371,431,o),
(371,430,c),
(357,470,o),
(300,500,o),
(249,500,cs),
(117,500,o),
(24,382,o),
(24,229,cs),
(24,88,o),
(99,-9,o),
(212,-9,cs),
(281,-9,o),
(343,27,o),
(368,121,c),
(368,118,ls),
(368,34,o),
(397,-9,o),
(462,-9,cs),
(502,-9,o),
(535,7,o),
(546,26,c),
(545,27,o),
(543,30,o),
(542,31,c),
(539,26,o),
(523,22,o),
(498,22,cs),
(451,22,o),
(435,50,o),
(435,122,cs),
(435,617,ls),
(435,975,o),
(766,1227,o),
(1098,1227,cs),
(1536,1227,o),
(1890,869,o),
(1890,421,cs),
(1890,-21,o),
(1540,-376,o),
(1108,-376,cs),
(686,-376,o),
(415,-134,o),
(33,-134,cs),
(-138,-134,o),
(-292,-201,o),
(-395,-318,c)
);
},
{
closed = 1;
nodes = (
(121,15,o),
(97,157,o),
(97,258,cs),
(97,349,o),
(118,482,o),
(255,482,cs),
(329,482,o),
(368,433,o),
(368,401,cs),
(368,377,o),
(368,247,o),
(368,213,cs),
(368,47,o),
(291,15,o),
(236,15,cs)
);
}
);
width = 539;
},
{
layerId = "1188AF94-4382-4C0E-9F0C-F5AE7B488C11";
shapes = (
{
closed = 1;
nodes = (
(-360,-321,l),
(-259,-210,o),
(-111,-146,o),
(55,-146,cs),
(434,-146,o),
(700,-388,o),
(1130,-388,cs),
(1568,-388,o),
(1924,-28,o),
(1924,421,cs),
(1924,878,o),
(1565,1243,o),
(1117,1243,cs),
(648,1243,o),
(363,923,o),
(363,517,cs),
(363,443,l),
(361,443,o),
(358,442,o),
(357,442,c),
(346,489,o),
(305,500,o),
(268,500,cs),
(121,500,o),
(23,382,o),
(23,227,cs),
(23,88,o),
(99,-9,o),
(212,-9,cs),
(278,-9,o),
(340,31,o),
(355,133,c),
(366,133,l),
(357,47,o),
(397,-9,o),
(489,-9,cs),
(546,-9,o),
(593,9,o),
(609,32,c),
(608,33,o),
(604,38,o),
(603,39,c),
(601,35,o),
(589,31,o),
(576,31,cs),
(552,31,o),
(546,60,o),
(546,125,cs),
(546,617,ls),
(546,975,o),
(791,1227,o),
(1120,1227,cs),
(1558,1227,o),
(1912,869,o),
(1912,421,cs),
(1912,-21,o),
(1562,-376,o),
(1130,-376,cs),
(708,-376,o),
(437,-134,o),
(55,-134,cs),
(-116,-134,o),
(-270,-201,o),
(-373,-318,c)
);
},
{
closed = 1;
nodes = (
(239,57,o),
(234,174,o),
(234,251,cs),
(234,345,o),
(242,473,o),
(309,473,cs),
(339,473,o),
(350,447,o),
(353,410,c),
(353,368,o),
(353,241,o),
(353,213,cs),
(353,105,o),
(311,57,o),
(290,57,cs)
);
}
);
width = 617;
},
{
layerId = "DFD7F247-A6A1-4633-91D9-01055A0B6A1B";
shapes = (
{
closed = 1;
nodes = (
(-393,-320,l),
(-290,-210,o),
(-139,-146,o),
(30,-146,cs),
(409,-146,o),
(675,-388,o),
(1105,-388,cs),
(1545,-388,o),
(1899,-29,o),
(1899,421,cs),
(1899,878,o),
(1540,1243,o),
(1092,1243,cs),
(696,1243,o),
(368,923,o),
(368,517,cs),
(368,438,l),
(368,437,o),
(368,434,o),
(368,434,c),
(354,477,o),
(295,500,o),
(244,500,cs),
(114,500,o),
(21,389,o),
(21,229,cs),
(21,88,o),
(96,-9,o),
(209,-9,cs),
(285,-9,o),
(349,36,o),
(365,151,c),
(365,118,ls),
(365,34,o),
(394,-9,o),
(459,-9,cs),
(497,-9,o),
(528,7,o),
(539,22,c),
(539,22,o),
(535,27,o),
(535,27,c),
(530,20,o),
(518,7,o),
(495,7,cs),
(448,7,o),
(432,39,o),
(432,122,cs),
(432,617,ls),
(432,979,o),
(763,1235,o),
(1095,1235,cs),
(1537,1235,o),
(1895,873,o),
(1895,421,cs),
(1895,-25,o),
(1541,-384,o),
(1105,-384,cs),
(683,-384,o),
(412,-142,o),
(30,-142,cs),
(-141,-142,o),
(-295,-206,o),
(-398,-318,c)
);
},
{
closed = 1;
nodes = (
(118,15,o),
(94,157,o),
(94,258,cs),
(94,355,o),
(115,495,o),
(250,495,cs),
(326,495,o),
(365,439,o),
(365,401,cs),
(365,389,o),
(365,230,o),
(365,213,cs),
(365,47,o),
(288,15,o),
(233,15,cs)
);
}
);
width = 533;
},
{
layerId = "7DF38E59-3B01-4CE0-9463-5B164C18123B";
shapes = (
{
closed = 1;
nodes = (
(-371,-320,l),
(-268,-210,o),
(-117,-146,o),
(52,-146,cs),
(431,-146,o),
(697,-388,o),
(1127,-388,cs),
(1565,-388,o),
(1921,-28,o),
(1921,421,cs),
(1921,878,o),
(1562,1243,o),
(1114,1243,cs),
(645,1243,o),
(358,923,o),
(358,517,cs),
(358,444,l),
(357,444,o),
(352,444,o),
(352,444,c),
(343,492,o),
(301,500,o),
(264,500,cs),
(118,500,o),
(20,385,o),
(20,227,cs),
(20,88,o),
(96,-9,o),
(209,-9,cs),
(279,-9,o),
(332,29,o),
(350,127,c),
(350,121,ls),
(350,37,o),
(394,-9,o),
(486,-9,cs),
(542,-9,o),
(588,9,o),
(604,30,c),
(604,30,o),
(601,34,o),
(601,34,c),
(598,28,o),
(586,18,o),
(573,18,cs),
(549,18,o),
(543,49,o),
(543,125,cs),
(543,617,ls),
(543,979,o),
(788,1235,o),
(1117,1235,cs),
(1559,1235,o),
(1917,873,o),
(1917,421,cs),
(1917,-25,o),
(1563,-384,o),
(1127,-384,cs),
(705,-384,o),
(434,-142,o),
(52,-142,cs),
(-119,-142,o),
(-273,-206,o),
(-376,-318,c)
);
},
{
closed = 1;
nodes = (
(237,48,o),
(231,170,o),
(231,261,cs),
(231,351,o),
(238,488,o),
(303,488,cs),
(334,488,o),
(347,455,o),
(350,410,c),
(350,397,o),
(350,231,o),
(350,213,cs),
(350,74,o),
(315,48,o),
(290,48,cs)
);
}
);
width = 611;
}
);
},
